<?xml version="1.0" encoding="UTF-8"?>
<svg version="1.1" xmlns="http://www.w3.org/2000/svg" width="819" height="633">
<path d="M0 0 C270.27 0 540.54 0 819 0 C819 208.89 819 417.78 819 633 C548.73 633 278.46 633 0 633 C0 424.11 0 215.22 0 0 Z " fill="#EBEEF1" transform="translate(0,0)"/>
<path d="M0 0 C270.27 0 540.54 0 819 0 C819 208.89 819 417.78 819 633 C548.73 633 278.46 633 0 633 C0 424.11 0 215.22 0 0 Z M90 72 C90 72.66 90 73.32 90 74 C89.46117188 74.21914062 88.92234375 74.43828125 88.3671875 74.6640625 C77.50754445 80.79277194 70.51808091 91.95319143 66.89824331 103.52078646 C64.24166295 113.4395315 63.43170571 122.53434268 63.50552368 132.76985168 C63.50233833 134.39687169 63.49740209 136.02388902 63.49089086 137.65089911 C63.47819044 142.07446347 63.4901002 146.49765585 63.50641942 150.92119539 C63.51967297 155.70986468 63.5096551 160.4984957 63.50265503 165.28717041 C63.49261158 174.64807403 63.50380224 184.00883546 63.52235563 193.36972139 C63.54319826 204.28048915 63.54298131 215.19122677 63.54201047 226.10201069 C63.54101094 245.57153636 63.55928798 265.04099614 63.58837891 284.51049805 C63.61656971 303.38746338 63.63071947 322.26437075 63.62939453 341.14135742 C63.62931462 342.30482367 63.62923471 343.46828992 63.62915237 344.66701273 C63.62907166 345.82850313 63.62899095 346.98999353 63.6289078 348.18668061 C63.62752713 369.70601431 63.63931128 391.22532347 63.65721423 412.74464921 C63.66323815 420.3444389 63.66537229 427.94422407 63.66627884 435.54401588 C63.66764501 444.80550489 63.67660132 454.06695251 63.69494446 463.32842395 C63.70415837 468.05080867 63.71027956 472.77314059 63.70775604 477.4955349 C63.70555601 481.82242461 63.71266308 486.14919778 63.72705309 490.47606321 C63.73066068 492.03700441 63.73095906 493.59795771 63.72751851 495.15889928 C63.69942017 509.5001652 64.57509131 523.62528039 73.75390625 535.33203125 C75 537 75 537 76.3671875 539.390625 C81.44826618 547.51062633 89.38836407 553.92603377 98 558 C98.66 558 99.32 558 100 558 C100 558.66 100 559.32 100 560 C100.78246094 560.20496094 101.56492188 560.40992188 102.37109375 560.62109375 C103.38300781 560.89050781 104.39492187 561.15992188 105.4375 561.4375 C106.95150391 561.83775391 106.95150391 561.83775391 108.49609375 562.24609375 C111 563 111 563 112 564 C117.54931733 565.03843178 122.95865546 565.14181392 128.59195328 565.12863445 C129.54391226 565.13038749 130.49587125 565.13214053 131.47667748 565.13394669 C134.67296309 565.13860603 137.86920321 565.13614134 141.06549072 565.13371277 C143.37770587 565.13558077 145.68992071 565.13788143 148.00213504 565.14057809 C154.36136933 565.1467038 160.7205905 565.14656159 167.07982707 565.14538372 C173.23214649 565.14471543 179.38446275 565.14968965 185.53678028 565.1539966 C199.67560917 565.16366801 213.81443443 565.16648077 227.95326623 565.16705366 C238.87215238 565.1675132 249.79103711 565.16957148 260.70992279 565.17275429 C263.85285973 565.17365183 266.99579668 565.17454165 270.13873363 565.17542917 C270.9200769 565.17565021 271.70142017 565.17587126 272.50644051 565.17609901 C294.48460589 565.18225331 316.46277077 565.18619956 338.44093704 565.18575573 C339.26958213 565.18574015 340.09822722 565.18572457 340.95198277 565.18570852 C345.15190354 565.18562541 349.35182432 565.18552637 353.55174509 565.18542381 C354.80292449 565.1853939 354.80292449 565.1853939 356.07938025 565.18536337 C357.76617351 565.18532294 359.45296678 565.18528114 361.13976004 565.18523798 C387.3830552 565.18462524 413.62633744 565.19213158 439.86962891 565.20581055 C469.35383103 565.22117246 498.83802467 565.2297767 528.32223105 565.22884732 C531.46642542 565.22877269 534.61061978 565.22872399 537.75481415 565.22869301 C538.91608454 565.22867553 538.91608454 565.22867553 540.10081495 565.22865769 C552.55709678 565.22862692 565.01336738 565.23501164 577.46964588 565.24362527 C589.98954566 565.25210381 602.50942904 565.25309013 615.0293301 565.24651595 C621.81134936 565.24314668 628.59332553 565.24321041 635.37534142 565.2518692 C641.58444832 565.25971506 647.79348221 565.25832231 654.00258729 565.24958507 C656.24818507 565.24804587 658.49378825 565.24988202 660.73937967 565.25544515 C663.79456858 565.26251231 666.84950183 565.2572059 669.90468216 565.24888897 C670.77382187 565.25385715 671.64296158 565.25882533 672.53843886 565.26394406 C685.59522338 565.1889443 696.88550478 561.76534492 708 555 C708 554.34 708 553.68 708 553 C708.87398437 552.59587891 708.87398437 552.59587891 709.765625 552.18359375 C717.85771071 547.89705185 723.01453343 540.43368677 728 533 C728.7425 531.9275 729.485 530.855 730.25 529.75 C736.08895993 518.80811929 736.58140874 506.4276938 736.49447632 494.34367371 C736.49766083 492.71680406 736.50259624 491.08993709 736.50910914 489.46307737 C736.52182243 485.03532339 736.50988955 480.60794044 736.49358058 476.18021119 C736.48033724 471.38881669 736.49034271 466.59746069 736.49734497 461.80606079 C736.50739261 452.43800303 736.49619245 443.07008724 736.47764437 433.70204713 C736.45681051 422.78476699 736.45701846 411.86751702 736.45798953 400.95022074 C736.45898925 381.47012055 736.44070709 361.9900862 736.41162109 342.51000977 C736.38342994 323.61937257 736.36928052 304.72879328 736.37060547 285.83813477 C736.37072534 284.0916932 736.37072534 284.0916932 736.37084763 282.30996998 C736.37096869 280.56650529 736.37096869 280.56650529 736.3710922 278.78781909 C736.37247259 257.25789915 736.3606903 235.72800375 736.34278577 214.19809177 C736.33675985 206.59233349 736.33462747 198.98657972 736.33372116 191.38081932 C736.3323555 182.11305586 736.32340639 172.84533377 736.30505554 163.57758787 C736.2958366 158.85128346 736.28972231 154.12503188 736.29224396 149.39871788 C736.2944418 145.06937332 736.28735013 140.74014542 736.27294691 136.41082517 C736.26933525 134.84785305 736.26904497 133.28486883 736.27248149 131.72189631 C736.28836825 123.59423202 735.97499967 115.91874083 734 108 C733.0625 102.5625 733.0625 102.5625 732.66015625 100.12890625 C731.8831766 97.62326182 730.85462972 96.81887783 729 95 C728.53335938 94.05253906 728.06671875 93.10507813 727.5859375 92.12890625 C725.93318583 88.8681819 724.10551106 86.60849399 721.625 83.9375 C720.83222656 83.08285156 720.03945313 82.22820312 719.22265625 81.34765625 C718.48917969 80.57292969 717.75570312 79.79820313 717 79 C716.46246094 78.42121094 715.92492187 77.84242187 715.37109375 77.24609375 C714.2940527 76.11761193 713.1542801 75.04934555 712 74 C711.34 74 710.68 74 710 74 C709.814375 73.401875 709.62875 72.80375 709.4375 72.1875 C707.34371578 69.00130661 704.43975309 68.26793818 701 67 C699.24894742 66.29427275 697.49898188 65.58584351 695.75 64.875 C685.19757701 60.64747651 674.2700554 60.78897109 663 60.6875 C661.34291016 60.64399414 661.34291016 60.64399414 659.65234375 60.59960938 C658.59144531 60.59123047 657.53054688 60.58285156 656.4375 60.57421875 C655.48746094 60.55963623 654.53742187 60.54505371 653.55859375 60.5300293 C650.25949842 61.1360177 649.17234311 62.5171127 647 65 C645.35666496 66.03789581 643.68756133 67.03567924 642 68 C639.95950578 69.2704964 637.94982535 70.59431196 636 72 C636 72.66 636 73.32 636 74 C635.1028125 74.4021875 635.1028125 74.4021875 634.1875 74.8125 C631.96966765 75.88236968 631.96966765 75.88236968 630.4375 77.5625 C629 79 629 79 626 80 C626 80.66 626 81.32 626 82 C625.46890625 82.2371875 624.9378125 82.474375 624.390625 82.71875 C621.30257405 84.37378384 618.5471528 86.40548128 615.75 88.5 C615.19570313 88.90347656 614.64140625 89.30695313 614.0703125 89.72265625 C612.67430835 90.76450171 611.33197608 91.87745412 610 93 C610 93.66 610 94.32 610 95 C609.319375 95.226875 608.63875 95.45375 607.9375 95.6875 C604.3011291 97.31226146 600.97170737 99.32803257 598 102 C598 102.66 598 103.32 598 104 C597.1028125 104.4021875 597.1028125 104.4021875 596.1875 104.8125 C593.96966765 105.88236968 593.96966765 105.88236968 592.4375 107.5625 C591 109 591 109 588 110 C588 110.66 588 111.32 588 112 C587.46375 112.2475 586.9275 112.495 586.375 112.75 C583.4176018 114.30652537 580.70275949 116.03435673 578 118 C578 118.66 578 119.32 578 120 C577.46375 120.2475 576.9275 120.495 576.375 120.75 C573.4176018 122.30652537 570.70275949 124.03435673 568 126 C568 126.66 568 127.32 568 128 C567.42121094 128.268125 566.84242188 128.53625 566.24609375 128.8125 C563.9512441 130.02577703 562.08953922 131.38148116 560.0625 133 C557.26128661 135.23068245 554.44358709 137.42232782 551.55859375 139.54296875 C550.97005615 139.98060547 550.38151855 140.41824219 549.77514648 140.86914062 C548.60733158 141.73644918 547.43376841 142.59607992 546.25415039 143.44726562 C543.03506162 145.85219211 543.03506162 145.85219211 541.125 149.30078125 C541.08375 149.86152344 541.0425 150.42226562 541 151 C540.42378906 151.1134375 539.84757812 151.226875 539.25390625 151.34375 C531.87732908 153.4915229 525.59972496 159.89813695 519.82421875 164.70703125 C517.08991054 166.9270021 514.29813753 169.00881241 511.4375 171.0625 C502.06336286 176.9708843 502.06336286 176.9708843 495 185 C493.515 185.495 493.515 185.495 492 186 C492 186.66 492 187.32 492 188 C491.46375 188.2475 490.9275 188.495 490.375 188.75 C486.29870085 190.8954206 482.76486864 193.23513136 479.5 196.5 C476.8664586 199.1335414 474.10135703 200.95442409 471 203 C470.319375 203.680625 469.63875 204.36125 468.9375 205.0625 C467 207 467 207 464.6875 208.375 C462.46821579 209.71689278 460.79606906 210.98650568 458.875 212.6875 C455.95298935 215.25532754 452.91418469 217.54979243 449.75 219.8125 C444.81887662 223.3444341 440.14374088 227.11012896 435.5078125 231.01953125 C433 233 433 233 430.1796875 234.63671875 C429.10074219 235.31154297 429.10074219 235.31154297 428 236 C428 236.66 428 237.32 428 238 C427.46375 238.2475 426.9275 238.495 426.375 238.75 C423.4176018 240.30652537 420.70275949 242.03435673 418 244 C418 244.66 418 245.32 418 246 C417.401875 246.268125 416.80375 246.53625 416.1875 246.8125 C413.96966765 247.88236968 413.96966765 247.88236968 412.4375 249.5625 C411 251 411 251 408 252 C408 252.66 408 253.32 408 254 C407.38125 254.28875 406.7625 254.5775 406.125 254.875 C403.86674235 255.93720042 403.86674235 255.93720042 402 258 C398.875 258.125 398.875 258.125 396 258 C395.67 257.01 395.34 256.02 395 255 C393.68143262 254.09782232 392.35482014 253.20613759 391 252.359375 C388.40833287 250.59785125 386.0387018 248.62300871 383.625 246.625 C379.82532605 243.48167998 375.98377633 240.45032751 372.01953125 237.51953125 C366.97573302 233.72448771 362.08954385 229.71494776 357.2109375 225.7109375 C356.31632812 224.98132813 355.42171875 224.25171875 354.5 223.5 C353.27796875 222.49453125 353.27796875 222.49453125 352.03125 221.46875 C350.14765519 219.80468479 350.14765519 219.80468479 348 220 C348 219.34 348 218.68 348 218 C346.03084322 216.36328282 346.03084322 216.36328282 343.4375 214.625 C337.74074256 210.60463212 332.3295433 206.29992748 326.95288086 201.86181641 C323.87245062 198.99578261 323.87245062 198.99578261 320 198 C319.67 197.01 319.34 196.02 319 195 C317.34634594 193.97862543 315.67623498 192.98387706 314 192 C310.92533454 189.54026763 308.00575696 186.89603802 305.06640625 184.27734375 C304.44636719 183.73207031 303.82632813 183.18679687 303.1875 182.625 C302.34251953 181.87089844 302.34251953 181.87089844 301.48046875 181.1015625 C300.04012752 179.80101753 300.04012752 179.80101753 298 180 C298 179.34 298 178.68 298 178 C295.36107824 176.21694476 293.02821137 175.00940379 290 174 C290 173.34 290 172.68 290 172 C288.02105186 170.42324953 288.02105186 170.42324953 285.5 168.8125 C281.21390632 165.91451621 277.37487599 162.81059135 273.59375 159.28515625 C272.08174492 157.79076161 272.08174492 157.79076161 270 158 C269.773125 157.401875 269.54625 156.80375 269.3125 156.1875 C267.12807447 152.54679079 263.92405795 151.30801932 260 150 C260 149.34 260 148.68 260 148 C258.906875 147.4225 257.81375 146.845 256.6875 146.25 C253.63489018 144.51876037 252.03712232 142.87049054 250 140 C247.6431385 138.428759 245.33671845 137.14965265 242.75 136 C241 135 241 135 240 132 C238.36021682 130.95650161 236.68535024 129.96817992 235 129 C230.54915331 125.81697025 226.26426282 122.42710693 222 119 C216.28785138 114.41325814 210.55979325 109.86240966 204.71484375 105.4453125 C203 104 203 104 202 102 C200.649579 101.22626093 199.26895078 100.50475013 197.875 99.8125 C193.69381974 97.5759004 190.77455675 95.00119387 187.55078125 91.5625 C185.58682359 89.58370135 183.42051318 88.36541769 181 87 C179.55315356 85.80604076 178.10781317 84.6101462 176.67456055 83.39990234 C173.89628311 81.07731263 171.03959957 78.85580714 168.1875 76.625 C167.57801514 76.14675781 166.96853027 75.66851562 166.34057617 75.17578125 C162.16905234 71.90512144 157.98009146 68.65781374 153.76953125 65.4375 C152 64 152 64 150.76416016 62.43286133 C148.20308474 60.35274071 146.269446 60.62771339 143.00390625 60.63671875 C141.80443359 60.63736328 140.60496094 60.63800781 139.36914062 60.63867188 C138.11294922 60.65478516 136.85675781 60.67089844 135.5625 60.6875 C133.73041992 60.68266602 133.73041992 60.68266602 131.86132812 60.67773438 C116.01462656 60.77050378 103.60862308 63.97945886 90 72 Z " fill="#F7F6F6" transform="translate(0,0)"/>
<path d="M0 0 C1.80887695 -0.08701172 1.80887695 -0.08701172 3.65429688 -0.17578125 C9.98752298 -0.26571237 13.94414058 0.03060236 18.76953125 4.34765625 C20.12997014 5.76124586 21.47876032 7.18619216 22.8125 8.625 C23.92488366 9.56064116 25.0584132 10.47219049 26.21875 11.34765625 C28.36462662 12.97061091 30.50773967 14.59681955 32.6484375 16.2265625 C34.21464844 17.41378906 34.21464844 17.41378906 35.8125 18.625 C37.52351604 19.93400081 39.23221482 21.24604206 40.9375 22.5625 C41.62070313 23.08714844 42.30390625 23.61179687 43.0078125 24.15234375 C44.8125 25.625 44.8125 25.625 46.4140625 27.234375 C47.83642103 28.76550133 47.83642103 28.76550133 50.0625 29.9375 C52.38787774 31.36443634 54.16881003 32.76106815 56.1875 34.5625 C58.50113568 36.60453497 60.71716386 38.23271155 63.4375 39.6875 C66.87602927 41.6614705 69.09651285 43.76606616 71.8125 46.625 C73.46624627 47.97432532 75.13428802 49.30622781 76.8125 50.625 C96.8125 66.625 96.8125 66.625 99.41796875 68.796875 C101.75507986 70.78604596 101.75507986 70.78604596 104.8125 71.625 C105.1425 72.615 105.4725 73.605 105.8125 74.625 C108.0753054 76.15392257 110.31119205 77.40567777 112.8125 78.5 C115.61406511 80.07588038 117.54584526 82.35834526 119.8125 84.625 C120.740625 85.181875 121.66875 85.73875 122.625 86.3125 C123.346875 86.745625 124.06875 87.17875 124.8125 87.625 C124.8125 88.285 124.8125 88.945 124.8125 89.625 C125.616875 89.99625 125.616875 89.99625 126.4375 90.375 C129.3948982 91.93152537 132.10974051 93.65935673 134.8125 95.625 C134.8125 96.285 134.8125 96.945 134.8125 97.625 C135.34875 97.851875 135.885 98.07875 136.4375 98.3125 C138.88538364 99.6652778 140.84528641 101.29965524 142.953125 103.125 C146.09285476 105.65789123 149.479075 107.84126154 152.8359375 110.07421875 C153.48820313 110.58597656 154.14046875 111.09773438 154.8125 111.625 C154.8125 112.285 154.8125 112.945 154.8125 113.625 C155.39 113.91375 155.9675 114.2025 156.5625 114.5 C158.64583333 115.54166667 160.72916667 116.58333333 162.8125 117.625 C162.8125 118.285 162.8125 118.945 162.8125 119.625 C163.35777344 119.86347656 163.90304687 120.10195312 164.46484375 120.34765625 C167.40363683 121.94663352 169.79954897 123.92855486 172.375 126.0625 C173.32503906 126.84496094 174.27507812 127.62742187 175.25390625 128.43359375 C177.8125 130.625 177.8125 130.625 179.515625 132.3359375 C181.1043484 133.91509028 182.78076505 134.71422226 184.8125 135.625 C184.8125 136.285 184.8125 136.945 184.8125 137.625 C185.50988281 137.84800781 186.20726562 138.07101563 186.92578125 138.30078125 C190.47461531 139.92873084 193.11607317 142.24100217 196 144.8125 C200.81316668 149.0160035 205.71447618 152.79496543 211.08203125 156.28515625 C211.65308594 156.72730469 212.22414063 157.16945312 212.8125 157.625 C212.8125 158.285 212.8125 158.945 212.8125 159.625 C213.38742187 159.89054688 213.96234375 160.15609375 214.5546875 160.4296875 C216.91246912 161.67792483 218.84860983 163.09276241 220.9375 164.75 C221.72898437 165.37519531 222.52046875 166.00039062 223.3359375 166.64453125 C225.7470811 168.57268552 228.15517426 170.5045821 230.5625 172.4375 C235.54819317 176.43846062 240.60948135 180.33512179 245.68359375 184.22265625 C249.14151191 186.87761214 252.5784674 189.55828762 256.0078125 192.25 C257.56463057 193.4361471 259.1840121 194.5393414 260.8125 195.625 C260.8125 196.285 260.8125 196.945 260.8125 197.625 C263.644668 197.95948259 263.644668 197.95948259 266.8125 197.625 C269.06315102 195.70833079 269.06315102 195.70833079 270.8125 193.625 C271.4725 193.625 272.1325 193.625 272.8125 193.625 C272.8125 192.965 272.8125 192.305 272.8125 191.625 C274.46321396 190.59888051 276.13220006 189.60191857 277.8125 188.625 C278.6478125 187.7896875 278.6478125 187.7896875 279.5 186.9375 C279.933125 186.504375 280.36625 186.07125 280.8125 185.625 C281.4725 185.625 282.1325 185.625 282.8125 185.625 C282.8125 184.965 282.8125 184.305 282.8125 183.625 C286.00276533 181.30480703 289.22976669 179.27856922 292.8125 177.625 C292.8125 176.965 292.8125 176.305 292.8125 175.625 C294.12525608 174.73800265 295.44502605 173.86069534 296.78515625 173.015625 C299.34347541 171.26078565 301.6801695 169.29946501 304.0625 167.3125 C308.38445786 163.7294386 312.82231746 160.48525566 317.45703125 157.32421875 C320.51031839 155.12159867 323.26851371 152.66696172 326.0234375 150.10546875 C327.8648451 148.58168386 329.6794839 147.68064748 331.8125 146.625 C332.9571875 145.449375 332.9571875 145.449375 334.125 144.25 C336.33721021 142.08923654 337.68158414 141.05146722 340.3125 139.6875 C342.94743889 138.28448059 344.5965454 136.91290116 346.4375 134.5625 C349.48571723 130.79233659 352.26254802 129.14165066 356.8125 127.625 C356.8125 126.965 356.8125 126.305 356.8125 125.625 C358.2975 125.13 358.2975 125.13 359.8125 124.625 C361.50183922 122.9813186 363.16509924 121.3107124 364.8125 119.625 C369.33693719 115.63918629 374.1679601 112.14575088 379.0546875 108.6171875 C381.48419568 106.86216034 383.90527433 105.09793306 386.3125 103.3125 C386.9209375 102.86261719 387.529375 102.41273438 388.15625 101.94921875 C389.8465607 100.64900841 389.8465607 100.64900841 391.34765625 99.08203125 C393.56866158 96.87287128 396.19584413 95.33383649 398.8125 93.625 C399.8953125 92.75875 399.8953125 92.75875 401 91.875 C402.8125 90.625 402.8125 90.625 405.8125 90.625 C406.03035156 89.88765625 406.24820312 89.1503125 406.47265625 88.390625 C408.16405089 84.89934976 410.08595946 83.596823 413.25 81.375 C418.58722205 77.54430384 423.61899671 73.52818757 428.6328125 69.27734375 C430.8125 67.625 430.8125 67.625 432.8125 67.625 C433.039375 67.026875 433.26625 66.42875 433.5 65.8125 C435.68442553 62.17179079 438.88844205 60.93301932 442.8125 59.625 C442.8125 58.965 442.8125 58.305 442.8125 57.625 C444.4921875 56.1171875 444.4921875 56.1171875 446.6875 54.5 C447.40679688 53.96117187 448.12609375 53.42234375 448.8671875 52.8671875 C450.8125 51.625 450.8125 51.625 452.8125 51.625 C452.8125 50.965 452.8125 50.305 452.8125 49.625 C454.46321396 48.59888051 456.13220006 47.60191857 457.8125 46.625 C458.6478125 45.7896875 458.6478125 45.7896875 459.5 44.9375 C459.933125 44.504375 460.36625 44.07125 460.8125 43.625 C461.4725 43.625 462.1325 43.625 462.8125 43.625 C462.8125 42.965 462.8125 42.305 462.8125 41.625 C464.9296875 39.8984375 464.9296875 39.8984375 467.6875 38 C469.04488281 37.05253906 469.04488281 37.05253906 470.4296875 36.0859375 C472.8125 34.625 472.8125 34.625 474.8125 34.625 C475.1425 33.635 475.4725 32.645 475.8125 31.625 C477.74080332 29.98450315 479.64521783 28.48268729 481.6875 27 C482.50154297 26.38898438 482.50154297 26.38898438 483.33203125 25.765625 C485.81570196 23.93171656 487.86364504 22.60795165 490.8125 21.625 C490.8125 20.965 490.8125 20.305 490.8125 19.625 C492.46321396 18.59888051 494.13220006 17.60191857 495.8125 16.625 C496.369375 16.068125 496.92625 15.51125 497.5 14.9375 C498.1496875 14.2878125 498.1496875 14.2878125 498.8125 13.625 C499.4725 13.625 500.1325 13.625 500.8125 13.625 C500.8125 12.965 500.8125 12.305 500.8125 11.625 C505.01456588 7.79621409 509.72696891 5.10574687 514.8125 2.625 C515.1425 1.965 515.4725 1.305 515.8125 0.625 C519.72915027 0.59546609 523.64577113 0.57802497 527.5625 0.5625 C528.65433594 0.55412109 529.74617187 0.54574219 530.87109375 0.53710938 C550.78584233 0.47819 550.78584233 0.47819 559.3125 3.5 C560.2715625 3.82742187 561.230625 4.15484375 562.21875 4.4921875 C564.76705583 5.6051524 566.63520532 6.91859774 568.8125 8.625 C569.699375 8.955 570.58625 9.285 571.5 9.625 C572.263125 9.955 573.02625 10.285 573.8125 10.625 C574.1425 11.615 574.4725 12.605 574.8125 13.625 C576.14105472 14.30113946 577.47547339 14.9657716 578.8125 15.625 C584.17556782 20.40363094 589.19147922 25.39684425 592.8125 31.625 C593.6478125 33.0171875 593.6478125 33.0171875 594.5 34.4375 C594.933125 35.159375 595.36625 35.88125 595.8125 36.625 C596.1425 36.955 596.4725 37.285 596.8125 37.625 C597.16587871 39.09493665 597.46957059 40.57691943 597.75 42.0625 C597.90339844 42.86558594 598.05679688 43.66867188 598.21484375 44.49609375 C598.41207031 45.52863281 598.60929688 46.56117187 598.8125 47.625 C598.97303285 48.26183553 599.1335657 48.89867105 599.29896319 49.55480462 C601.18310606 57.54183078 601.09785098 65.49368074 601.07992554 73.64640808 C601.08366663 75.26539693 601.08826998 76.88438398 601.09365618 78.5033682 C601.10584482 82.9326549 601.10563061 87.36186584 601.10326743 91.79116547 C601.10285821 96.57592747 601.1139084 101.36066551 601.12338257 106.14541626 C601.13997086 115.51244579 601.14549113 124.87945013 601.14660732 134.24649312 C601.14755883 141.86340681 601.15167426 149.48031222 601.15800858 157.09722328 C601.17561509 178.70980972 601.18484837 200.32237632 601.18334763 221.93496998 C601.18322776 223.68141155 601.18322776 223.68141155 601.18310547 225.46313477 C601.18302371 226.6288567 601.18294195 227.79457863 601.18285771 228.99562547 C601.18204498 247.8833141 601.20118075 266.77092294 601.2293822 285.65858849 C601.25813496 305.06920619 601.27192118 324.47978502 601.27019465 343.89042455 C601.26953157 354.78121868 601.27498775 365.67192918 601.29655075 376.56270409 C601.31479402 385.83595293 601.31908406 395.10908021 601.3055319 404.38233926 C601.29901813 409.10929914 601.29882734 413.83602602 601.3162384 418.56296349 C601.33204482 422.89903229 601.32902893 427.23468483 601.31167014 431.57074396 C601.30861681 433.13059583 601.31216899 434.69047937 601.32339029 436.25029387 C601.46038555 456.66223319 595.5520399 471.38269792 581.8125 486.625 C575.70845376 492.625 575.70845376 492.625 572.8125 492.625 C572.8125 493.285 572.8125 493.945 572.8125 494.625 C557.88242815 507.53512095 534.27153115 504.625 516.8125 504.625 C516.8125 375.265 516.8125 245.905 516.8125 112.625 C514.5025 113.945 512.1925 115.265 509.8125 116.625 C509.1525 116.625 508.4925 116.625 507.8125 116.625 C507.4825 117.615 507.1525 118.605 506.8125 119.625 C504.85652816 121.02212274 502.8465906 122.34427629 500.8125 123.625 C496.33837688 126.56596455 493.10516171 129.34453978 489.8125 133.625 C487.43445791 135.75914034 485.49452539 137.36693634 482.5 138.5 C477.31589434 140.67009074 473.07141041 144.36608959 469.125 148.3125 C466.82583422 150.61166578 464.60992901 152.00543583 461.8125 153.625 C460.9771875 154.4603125 460.9771875 154.4603125 460.125 155.3125 C459.691875 155.745625 459.25875 156.17875 458.8125 156.625 C458.1525 156.625 457.4925 156.625 456.8125 156.625 C456.4825 157.615 456.1525 158.605 455.8125 159.625 C453.44921875 161.5625 453.44921875 161.5625 450.5 163.625 C449.53449219 164.305625 448.56898438 164.98625 447.57421875 165.6875 C446.66285156 166.326875 445.75148438 166.96625 444.8125 167.625 C443.73935547 168.49125 443.73935547 168.49125 442.64453125 169.375 C440.8125 170.625 440.8125 170.625 437.8125 170.625 C437.4825 171.615 437.1525 172.605 436.8125 173.625 C435.8225 173.955 434.8325 174.285 433.8125 174.625 C432.66532837 175.77217163 431.52153838 176.92300242 430.3984375 178.09375 C426.40273929 181.95166551 421.88910831 185.44510891 417.0625 188.1875 C414.53000505 189.80548288 413.0479564 191.78537931 411.20703125 194.12890625 C408.78136508 196.73123158 405.99216218 198.06516572 402.8125 199.625 C402.1525 199.625 401.4925 199.625 400.8125 199.625 C400.8125 200.285 400.8125 200.945 400.8125 201.625 C398.60678396 203.21347863 396.30032685 204.58317483 393.9765625 205.9921875 C391.6469399 207.74991719 391.07380673 209.07031943 389.8125 211.625 C387.48578146 212.31439809 385.15182406 212.97966922 382.8125 213.625 C381.45941687 214.93828657 380.12379922 216.26999081 378.8125 217.625 C377.94625 217.79 377.08 217.955 376.1875 218.125 C375.40375 218.29 374.62 218.455 373.8125 218.625 C373.379375 219.51638672 373.379375 219.51638672 372.9375 220.42578125 C371.52970741 223.17782023 369.88032954 224.42701506 367.4375 226.3125 C366.54933594 227.0034375 365.66117187 227.694375 364.74609375 228.40625 C360.71445432 231.45547929 356.65638799 234.46798167 352.57421875 237.44921875 C349.75718911 239.6685759 347.32624979 242.07122235 344.8125 244.625 C343.19207688 246.0502533 341.5464033 247.44738862 339.875 248.8125 C338.65490234 249.82376953 338.65490234 249.82376953 337.41015625 250.85546875 C334.6181332 252.75740325 332.04925699 253.70626985 328.8125 254.625 C328.8125 255.285 328.8125 255.945 328.8125 256.625 C326.81965862 257.9690093 324.81830329 259.30041292 322.8125 260.625 C321.9875 261.470625 321.1625 262.31625 320.3125 263.1875 C317.35544981 266.07062393 314.09842185 268.625 309.8125 268.625 C309.72613281 269.21925781 309.63976562 269.81351562 309.55078125 270.42578125 C308.60668258 273.23809635 307.38603177 274.09048449 305 275.8125 C304.31292969 276.32167969 303.62585938 276.83085937 302.91796875 277.35546875 C300.85011046 278.60232208 299.17179578 279.18495157 296.8125 279.625 C296.8125 280.285 296.8125 280.945 296.8125 281.625 C296.173125 281.728125 295.53375 281.83125 294.875 281.9375 C293.8540625 282.2778125 293.8540625 282.2778125 292.8125 282.625 C292.4825 283.615 292.1525 284.605 291.8125 285.625 C290.47916667 285.95833333 289.14583333 286.29166667 287.8125 286.625 C287.4825 287.615 287.1525 288.605 286.8125 289.625 C285.47916667 289.95833333 284.14583333 290.29166667 282.8125 290.625 C282.4825 291.615 282.1525 292.605 281.8125 293.625 C276.59027778 296.625 276.59027778 296.625 273.8125 296.625 C273.4825 297.615 273.1525 298.605 272.8125 299.625 C271.4971659 300.32651152 270.16132408 300.99025925 268.8125 301.625 C267.10328411 303.1662312 267.10328411 303.1662312 265.8125 304.625 C261.28332429 303.36104399 258.36486071 301.68397727 254.8125 298.625 C254.1525 298.295 253.4925 297.965 252.8125 297.625 C252.8125 296.965 252.8125 296.305 252.8125 295.625 C251.95978516 295.23634766 251.95978516 295.23634766 251.08984375 294.83984375 C248.60159628 293.5124939 246.56969186 291.95618581 244.375 290.1875 C241.97196408 288.2800165 239.7070073 286.5626634 237.0625 285 C234.21230268 283.25821275 232.16950742 280.98200742 229.8125 278.625 C228.73355469 277.99658203 228.73355469 277.99658203 227.6328125 277.35546875 C223.86422603 275.04316431 220.58339324 272.25920644 217.1875 269.4375 C210.88106301 264.25238318 204.46809111 259.35542013 197.8125 254.625 C192.08771988 250.4428253 186.52895925 246.05375811 180.96142578 241.66625977 C175.3635778 237.25974867 169.7186643 232.95142711 163.875 228.875 C160.8125 226.625 160.8125 226.625 159.8125 224.625 C158.15206681 223.61468351 156.4841109 222.61671306 154.8125 221.625 C152.93337424 220.17767335 151.07983213 218.69666614 149.25 217.1875 C148.32058594 216.42566406 147.39117187 215.66382813 146.43359375 214.87890625 C143.8125 212.625 143.8125 212.625 141.64453125 210.421875 C139.83591011 208.45360405 139.83591011 208.45360405 137.0625 207.3125 C133.42609698 205.42436767 130.81983385 203.12263648 127.83984375 200.34375 C125.83408065 198.54890267 125.83408065 198.54890267 123.39453125 197.17578125 C120.52806482 195.45416677 118.11373079 193.47209448 115.5625 191.3125 C111.42590082 187.87465068 107.23919691 184.77560725 102.6875 181.9140625 C100.81939126 180.62973774 99.37735783 179.25789513 97.8125 177.625 C93.71178717 173.94554387 93.71178717 173.94554387 88.8125 171.625 C88.8125 170.965 88.8125 170.305 88.8125 169.625 C88.235 169.35816406 87.6575 169.09132812 87.0625 168.81640625 C84.7415637 167.58743825 82.86069933 166.20338696 80.8125 164.5625 C77.26695336 161.7585056 73.68571347 159.01553227 70.0625 156.3125 C61.19803355 149.68098143 52.44092454 142.91916506 43.75 136.0625 C38.41928285 131.85718104 33.02412959 127.75459917 27.578125 123.69921875 C24.23290462 121.19030347 20.93706069 118.62255898 17.65234375 116.03515625 C16.08598019 114.83461008 14.45457311 113.7197154 12.8125 112.625 C12.8125 241.985 12.8125 371.345 12.8125 504.625 C-20.8875 504.625 -20.8875 504.625 -27.9375 502.125 C-28.67484375 501.8671875 -29.4121875 501.609375 -30.171875 501.34375 C-31.16960937 500.98796875 -31.16960937 500.98796875 -32.1875 500.625 C-33.1775 500.295 -34.1675 499.965 -35.1875 499.625 C-35.1875 498.965 -35.1875 498.305 -35.1875 497.625 C-35.991875 497.439375 -36.79625 497.25375 -37.625 497.0625 C-49.3020891 492.35069212 -58.69828718 481.66877342 -64.1875 470.625 C-64.72375 469.820625 -65.26 469.01625 -65.8125 468.1875 C-70.18432544 460.04000713 -71.31071834 450.77368277 -71.31613445 441.64838505 C-71.31788749 440.97917405 -71.31964053 440.30996306 -71.32144669 439.62047294 C-71.32608539 437.38604481 -71.32364672 435.15168236 -71.32121277 432.91725159 C-71.32308181 431.29586466 -71.32538288 429.67447818 -71.32807809 428.05309242 C-71.33419086 423.60352911 -71.33406312 419.15398461 -71.33288372 414.70441806 C-71.33267958 409.90338595 -71.33819963 405.10235987 -71.34294128 400.30133057 C-71.35124512 390.89814127 -71.35399599 381.49495825 -71.35455366 372.09176559 C-71.35502887 364.44945575 -71.35708387 356.80714798 -71.36025429 349.16483879 C-71.36905951 327.49907142 -71.37367378 305.83330901 -71.37292381 284.16753984 C-71.37288386 282.99971019 -71.3728439 281.83188054 -71.37280273 280.62866211 C-71.37276185 279.4594075 -71.37272097 278.29015289 -71.37267885 277.08546632 C-71.37227224 258.1282185 -71.38184596 239.17099054 -71.3959411 220.21374846 C-71.41029862 200.75015322 -71.41721165 181.28656767 -71.41634732 161.82296699 C-71.41601518 150.8949299 -71.41877011 139.96691363 -71.42952538 129.0388813 C-71.43862207 119.73647518 -71.4408124 110.43409932 -71.43401595 101.13169069 C-71.43074678 96.38543025 -71.43070843 91.63922789 -71.4393692 86.89297295 C-71.44721736 82.5473882 -71.44582003 78.20190777 -71.43708507 73.85632562 C-71.43554639 72.28507002 -71.43738009 70.71380669 -71.44294515 69.14256019 C-71.46749559 61.71874236 -71.4899479 54.752448 -69.1875 47.625 C-68.97609375 46.77292969 -68.7646875 45.92085937 -68.546875 45.04296875 C-64.90231252 31.70293558 -57.46416765 22.55320988 -47.1875 13.625 C-46.5275 13.625 -45.8675 13.625 -45.1875 13.625 C-45.1875 12.965 -45.1875 12.305 -45.1875 11.625 C-30.51598415 2.97801964 -16.9923953 0.27510624 0 0 Z " fill="#F34236" transform="translate(135.1875,60.375)"/>
<path d="M0 0 C0.95283765 -0.00145344 1.90567531 -0.00290688 2.88738683 -0.00440437 C6.09865696 -0.00807051 9.30987981 -0.00457506 12.52114964 -0.0011425 C14.83932681 -0.00229408 17.1575038 -0.00388185 19.47568041 -0.00586975 C25.19036683 -0.0096185 30.90503933 -0.00869394 36.61972594 -0.00581898 C43.46383444 -0.00263432 50.3079376 -0.0052423 57.15204583 -0.00803089 C70.56242591 -0.01330132 83.97280124 -0.01283836 97.38318178 -0.00995198 C109.11932215 -0.00743831 120.85546078 -0.00677884 132.59160137 -0.00797462 C133.36951382 -0.00805101 134.14742626 -0.00812739 134.94891181 -0.00820609 C138.10657218 -0.00851742 141.26423255 -0.00883582 144.42189293 -0.00916586 C174.05578624 -0.01222627 203.68967652 -0.00944921 233.32356937 -0.00406896 C259.66047295 0.00067633 285.9973717 0.00025257 312.33427525 -0.00452995 C341.9118037 -0.00988296 371.48932948 -0.01200878 401.06685835 -0.00891769 C404.21913882 -0.00859696 407.37141929 -0.00828412 410.52369976 -0.00797462 C411.29989329 -0.00789555 412.07608682 -0.00781647 412.87580137 -0.007735 C424.60483357 -0.00659681 436.33386384 -0.00792914 448.06289577 -0.01045418 C461.3981122 -0.01331065 474.7333231 -0.01260458 488.06853884 -0.00717343 C494.87624068 -0.00449238 501.68393356 -0.00339602 508.49163532 -0.00682259 C514.71842974 -0.00979305 520.94520517 -0.00818011 527.17199785 -0.00284503 C529.42967893 -0.00172407 531.68736159 -0.00230498 533.94504165 -0.00472082 C537.00447608 -0.00774451 540.0638448 -0.00465969 543.12327576 0 C544.44995198 -0.00351175 544.44995198 -0.00351175 545.80342975 -0.00709444 C550.19201341 0.00634054 554.30346953 0.242047 558.62455845 1.12584114 C558.62455845 1.45584114 558.62455845 1.78584114 558.62455845 2.12584114 C547.73455845 1.79584114 536.84455845 1.46584114 525.62455845 1.12584114 C525.29455845 2.11584114 524.96455845 3.10584114 524.62455845 4.12584114 C522.9175272 5.40709114 522.9175272 5.40709114 520.81205845 6.62584114 C518.50897936 7.9895606 516.3814436 9.31137615 514.24955845 10.93834114 C512.62455845 12.12584114 512.62455845 12.12584114 510.62455845 12.12584114 C510.62455845 12.78584114 510.62455845 13.44584114 510.62455845 14.12584114 C509.1987772 15.63365364 509.1987772 15.63365364 507.31205845 17.25084114 C506.69717564 17.78966927 506.08229282 18.32849739 505.4487772 18.88365364 C503.62455845 20.12584114 503.62455845 20.12584114 500.62455845 20.12584114 C500.62455845 20.78584114 500.62455845 21.44584114 500.62455845 22.12584114 C498.80085635 23.62788705 496.91342078 25.05300283 494.99955845 26.43834114 C490.09295075 30.00476149 490.09295075 30.00476149 485.37455845 33.81334114 C483.07587558 35.74632447 480.75597474 37.60975363 478.37455845 39.43834114 C477.7094022 39.95009895 477.04424595 40.46185677 476.35893345 40.98912239 C474.62455845 42.12584114 474.62455845 42.12584114 472.62455845 42.12584114 C472.62455845 42.78584114 472.62455845 43.44584114 472.62455845 44.12584114 C471.1987772 45.63365364 471.1987772 45.63365364 469.31205845 47.25084114 C468.38973423 48.05908333 468.38973423 48.05908333 467.4487772 48.88365364 C465.62455845 50.12584114 465.62455845 50.12584114 462.62455845 50.12584114 C462.62455845 50.78584114 462.62455845 51.44584114 462.62455845 52.12584114 C460.94487095 53.63365364 460.94487095 53.63365364 458.74955845 55.25084114 C458.03026157 55.78966927 457.3109647 56.32849739 456.56987095 56.88365364 C454.62455845 58.12584114 454.62455845 58.12584114 452.62455845 58.12584114 C452.62455845 58.78584114 452.62455845 59.44584114 452.62455845 60.12584114 C450.40088363 62.10244098 448.32742399 63.79637292 445.62455845 65.06334114 C443.43612364 66.10083846 443.43612364 66.10083846 441.43705845 68.31334114 C436.8635142 72.88688539 431.6724425 76.63898675 426.44487095 80.43443489 C425.90483433 80.82921028 425.36479771 81.22398567 424.80839634 81.63072395 C423.25344171 82.76492065 421.69110494 83.88897566 420.1284647 85.01255989 C417.69915603 87.06288125 416.91511183 88.32669568 415.62455845 91.12584114 C413.94189925 92.16132372 412.25199531 93.19032112 410.5034647 94.11021614 C408.67827544 95.09680493 407.0122739 96.18945001 405.31205845 97.37584114 C402.62455845 99.12584114 402.62455845 99.12584114 400.62455845 99.12584114 C400.29455845 100.11584114 399.96455845 101.10584114 399.62455845 102.12584114 C398.16362095 103.45005989 398.16362095 103.45005989 396.24955845 104.81334114 C395.53026157 105.33412239 394.8109647 105.85490364 394.06987095 106.39146614 C392.85944126 107.24998177 392.85944126 107.24998177 391.62455845 108.12584114 C385.54504155 112.46080102 379.65339348 116.78089708 374.1831522 121.87584114 C372.62455845 123.12584114 372.62455845 123.12584114 370.62455845 123.12584114 C370.29455845 124.11584114 369.96455845 125.10584114 369.62455845 126.12584114 C368.63455845 126.12584114 367.64455845 126.12584114 366.62455845 126.12584114 C366.62455845 126.78584114 366.62455845 127.44584114 366.62455845 128.12584114 C364.24561001 130.23290975 361.88030162 131.97878882 359.12455845 133.56334114 C356.48480202 135.08289922 356.48480202 135.08289922 354.18705845 137.56334114 C350.72870123 141.02169836 347.27960287 143.57415967 342.62455845 145.12584114 C342.29455845 146.11584114 341.96455845 147.10584114 341.62455845 148.12584114 C339.28108725 149.70926763 336.95778875 150.97773878 334.37455845 152.12584114 C332.27318371 153.0686406 332.27318371 153.0686406 331.62455845 156.12584114 C330.24204486 157.1037166 328.85064674 158.07141502 327.4175272 158.97349739 C321.25588676 162.9335931 315.63551744 167.70959746 310.0190897 172.39146614 C307.61956593 174.12945726 305.41222934 175.15535536 302.62455845 176.12584114 C302.62455845 176.78584114 302.62455845 177.44584114 302.62455845 178.12584114 C300.94487095 179.63365364 300.94487095 179.63365364 298.74955845 181.25084114 C298.03026157 181.78966927 297.3109647 182.32849739 296.56987095 182.88365364 C294.62455845 184.12584114 294.62455845 184.12584114 292.62455845 184.12584114 C292.62455845 184.78584114 292.62455845 185.44584114 292.62455845 186.12584114 C291.1987772 187.63365364 291.1987772 187.63365364 289.31205845 189.25084114 C288.38973423 190.05908333 288.38973423 190.05908333 287.4487772 190.88365364 C285.62455845 192.12584114 285.62455845 192.12584114 282.62455845 192.12584114 C282.62455845 192.78584114 282.62455845 193.44584114 282.62455845 194.12584114 C280.60115355 196.19742235 279.08779266 197.71269317 276.62455845 199.12584114 C273.44279048 199.12584114 271.57027268 199.02928881 269.22612095 196.78990364 C268.69760532 196.24076302 268.1690897 195.69162239 267.62455845 195.12584114 C262.45781419 190.79244273 257.09745329 186.71091335 251.68705845 182.68834114 C246.81826499 179.06317309 242.11736823 175.2811824 237.4487772 171.40318489 C233.36280945 168.10841421 229.12090963 165.04125552 224.8628397 161.97349739 C224.12420689 161.36377083 223.38557407 160.75404427 222.62455845 160.12584114 C222.62455845 159.46584114 222.62455845 158.80584114 222.62455845 158.12584114 C221.92717564 157.90283333 221.22979282 157.67982552 220.5112772 157.45005989 C216.96236565 155.82207475 214.32120465 153.50964982 211.43705845 150.93834114 C206.64604579 146.75957437 201.76846067 142.97238309 196.45268345 139.46568489 C194.62455845 138.12584114 194.62455845 138.12584114 193.62455845 136.12584114 C192.92330845 135.71334114 192.22205845 135.30084114 191.49955845 134.87584114 C188.55807658 133.08537392 186.17651413 131.08396978 183.6050272 128.81334114 C180.62947833 126.27796222 177.48691507 123.96872318 174.3472147 121.64146614 C173.49449986 120.89123177 173.49449986 120.89123177 172.62455845 120.12584114 C172.62455845 119.46584114 172.62455845 118.80584114 172.62455845 118.12584114 C172.04705845 118.02271614 171.46955845 117.91959114 170.87455845 117.81334114 C168.26794687 117.01687649 166.65102735 115.93518837 164.62455845 114.12584114 C164.62455845 113.46584114 164.62455845 112.80584114 164.62455845 112.12584114 C163.90268345 111.87834114 163.18080845 111.63084114 162.43705845 111.37584114 C159.33762958 109.9983172 157.24266416 108.2767038 154.62455845 106.12584114 C153.76475376 105.45423958 152.90494907 104.78263802 152.0190897 104.09068489 C151.16701939 103.42166145 150.31494907 102.75263802 149.43705845 102.06334114 C148.57725376 101.39173958 147.71744907 100.72013802 146.8315897 100.02818489 C144.62455845 98.12584114 144.62455845 98.12584114 142.62455845 95.12584114 C140.98823953 94.07691876 139.31969982 93.07677411 137.62455845 92.12584114 C136.63455845 91.46584114 135.64455845 90.80584114 134.62455845 90.12584114 C134.62455845 89.46584114 134.62455845 88.80584114 134.62455845 88.12584114 C133.82018345 88.03302864 133.82018345 88.03302864 132.99955845 87.93834114 C129.45429688 86.7254885 127.36531924 84.67973188 124.62455845 82.12584114 C124.62455845 81.46584114 124.62455845 80.80584114 124.62455845 80.12584114 C124.08830845 80.04334114 123.55205845 79.96084114 122.99955845 79.87584114 C119.72665682 78.84229326 117.32986466 77.21630503 114.62455845 75.12584114 C114.62455845 74.13584114 114.62455845 73.14584114 114.62455845 72.12584114 C113.77184361 71.98082161 113.77184361 71.98082161 112.9019022 71.83287239 C110.1226886 70.97002906 108.44524234 69.64102204 106.18705845 67.81334114 C105.44584751 67.21908333 104.70463657 66.62482552 103.9409647 66.01255989 C103.17655064 65.3899427 102.41213657 64.76732552 101.62455845 64.12584114 C99.95865629 62.79155273 98.29198501 61.45822405 96.62455845 60.12584114 C94.19489085 58.18210706 91.76550732 56.2380843 89.3394022 54.28990364 C87.4874613 52.81368024 85.62495489 51.35063838 83.7534647 49.89927864 C82.84467564 49.19029427 81.93588657 48.48130989 80.99955845 47.75084114 C80.16166782 47.10373177 79.3237772 46.45662239 78.46049595 45.78990364 C77.85463657 45.24076302 77.2487772 44.69162239 76.62455845 44.12584114 C76.62455845 43.46584114 76.62455845 42.80584114 76.62455845 42.12584114 C76.04705845 42.01884895 75.46955845 41.91185677 74.87455845 41.80162239 C69.19992626 40.09726237 64.71723586 35.21851855 60.62455845 31.12584114 C58.96176518 30.11941364 57.29472361 29.11998707 55.62455845 28.12584114 C54.17585737 26.92926778 52.7284984 25.73097236 51.2925272 24.51915169 C48.51576462 22.19962827 45.66169968 19.97972546 42.81205845 17.75084114 C42.20257359 17.27259895 41.59308872 16.79435677 40.96513462 16.30162239 C36.79361079 13.03096258 32.60464991 9.78365488 28.3940897 6.56334114 C26.62455845 5.12584114 26.62455845 5.12584114 25.39091587 3.5565052 C22.81726587 1.47197321 20.86969804 1.76955512 17.59330845 1.79771614 C16.38932407 1.80287239 15.1853397 1.80802864 13.94487095 1.81334114 C12.68416782 1.83396614 11.4234647 1.85459114 10.12455845 1.87584114 C8.89479282 1.88099739 7.6650272 1.88615364 6.39799595 1.89146614 C-0.90696908 1.95350406 -8.11444852 2.32197219 -15.37544155 3.12584114 C-15.04544155 2.46584114 -14.71544155 1.80584114 -14.37544155 1.12584114 C-9.73193507 -0.32400426 -4.81475526 -0.01271115 0 0 Z " fill="#EBEEF1" transform="translate(125.3754415512085,59.87415885925293)"/>
<path d="M0 0 C0 129.36 0 258.72 0 392 C-3.15100845 390.94966385 -3.79098404 390.30414105 -6 388 C-13.61613235 381.55750116 -21.46567588 375.39357761 -29.44921875 369.4140625 C-30.04621582 368.96345459 -30.64321289 368.51284668 -31.25830078 368.04858398 C-32.44664864 367.15209694 -33.63895739 366.26083262 -34.83544922 365.37524414 C-36.2604864 364.29722242 -37.63545718 363.15363976 -39 362 C-39 361.34 -39 360.68 -39 360 C-40.65 359.34 -42.3 358.68 -44 358 C-44 357.34 -44 356.68 -44 356 C-45.65 355.34 -47.3 354.68 -49 354 C-49 353.34 -49 352.68 -49 352 C-49.69480469 351.76925781 -50.38960937 351.53851562 -51.10546875 351.30078125 C-54.5958936 349.73220976 -57.36430932 347.57958726 -60.3125 345.1875 C-61.21621338 344.46651123 -61.21621338 344.46651123 -62.13818359 343.73095703 C-67.51725515 339.42742401 -72.84302784 335.05719712 -78.17700195 330.69799805 C-82.05502714 327.5405059 -85.97877722 324.475051 -90 321.5 C-95.34701962 317.54378198 -100.49383672 313.37892136 -105.63647461 309.16381836 C-111.60793955 304.28349196 -117.68265508 299.54422482 -123.79736328 294.8449707 C-127.79590068 291.76115223 -131.67615251 288.58986933 -135.48852539 285.27905273 C-137.22726089 283.80768538 -139.03896061 282.50708277 -140.9375 281.25 C-142.4534375 280.13625 -142.4534375 280.13625 -144 279 C-144 278.34 -144 277.68 -144 277 C-144.804375 276.9071875 -144.804375 276.9071875 -145.625 276.8125 C-149.0624136 275.63654272 -151.28347899 273.36973109 -154 271 C-154.99 270.34 -155.98 269.68 -157 269 C-157 268.34 -157 267.68 -157 267 C-158.0828125 266.62875 -158.0828125 266.62875 -159.1875 266.25 C-162.27606582 264.87730408 -164.51011418 263.27646704 -167 261 C-167 260.34 -167 259.68 -167 259 C-167.763125 258.731875 -168.52625 258.46375 -169.3125 258.1875 C-171.90881123 257.04029271 -173.1250348 256.05353332 -175 254 C-175.66 253.67 -176.32 253.34 -177 253 C-177 252.34 -177 251.68 -177 251 C-178.10021484 250.61134766 -178.10021484 250.61134766 -179.22265625 250.21484375 C-182.09156722 248.95994739 -184.03886221 247.56205767 -186.4375 245.5625 C-190.56373605 242.17309182 -194.72824207 238.84742571 -198.9375 235.5625 C-203.16357023 232.25348758 -207.3559069 228.91170551 -211.5 225.5 C-231.72017087 207.66245554 -231.72017087 207.66245554 -254 193 C-253.505 192.01 -253.505 192.01 -253 191 C-251.68 191 -250.36 191 -249 191 C-248.67 190.01 -248.34 189.02 -248 188 C-246.6846659 187.29848848 -245.34882408 186.63474075 -244 186 C-243.54625 185.525625 -243.0925 185.05125 -242.625 184.5625 C-240.38878993 182.41229801 -237.76364114 181.38182057 -235 180 C-233.41666667 178.58333333 -233.41666667 178.58333333 -232 177 C-230.34614767 175.65080468 -228.678298 174.31866272 -227 173 C-226.113125 172.2575 -225.22625 171.515 -224.3125 170.75 C-222 169 -222 169 -220 169 C-220 168.34 -220 167.68 -220 167 C-218.390625 165.81640625 -218.390625 165.81640625 -216.25 164.5625 C-215.52167969 164.12292969 -214.79335938 163.68335938 -214.04296875 163.23046875 C-213.36878906 162.82441406 -212.69460938 162.41835938 -212 162 C-208.55203193 159.7635797 -208.55203193 159.7635797 -207 156 C-205.328125 155.0078125 -205.328125 155.0078125 -203.25 154.125 C-199.38393965 152.32313973 -196.91074473 150.15330679 -194 147 C-190.37931034 144 -190.37931034 144 -188 144 C-188 143.34 -188 142.68 -188 142 C-187.43152344 141.70867187 -186.86304688 141.41734375 -186.27734375 141.1171875 C-179.85484511 137.70758054 -174.73865682 133.82178637 -169.68359375 128.61328125 C-166.88758462 125.89053 -163.92864527 123.52227791 -160.8125 121.1875 C-159.66745471 120.31708206 -158.52292992 119.44597901 -157.37890625 118.57421875 C-156.81316895 118.14415527 -156.24743164 117.7140918 -155.66455078 117.27099609 C-153.17490858 115.36998739 -150.70802977 113.44166668 -148.25 111.5 C-147.45078125 110.8709375 -146.6515625 110.241875 -145.828125 109.59375 C-143.89985668 108.11664255 -143.89985668 108.11664255 -143 106 C-137.57692308 103 -137.57692308 103 -135 103 C-134.505 101.515 -134.505 101.515 -134 100 C-130.535 99.505 -130.535 99.505 -127 99 C-126.7215625 97.9171875 -126.7215625 97.9171875 -126.4375 96.8125 C-124.49553072 93.01299488 -121.69909281 91.05020474 -118 89 C-117.34 89 -116.68 89 -116 89 C-116 88.34 -116 87.68 -116 87 C-114.49705948 86.04061307 -112.94499493 85.15770376 -111.375 84.3125 C-107.07749781 81.84294945 -104.37162668 79.38583327 -101.34765625 75.51953125 C-99.30672937 73.21831225 -96.76286898 72.30017364 -94 71 C-87.83041264 66.67380026 -87.83041264 66.67380026 -83 61 C-82.01 60.67 -81.02 60.34 -80 60 C-79.67 59.34 -79.34 58.68 -79 58 C-77.42072436 57.10736594 -75.8395308 56.21799194 -74.25 55.34375 C-66.02078292 50.76216275 -66.02078292 50.76216275 -60 44 C-59.34 44 -58.68 44 -58 44 C-57.67 43.01 -57.34 42.02 -57 41 C-55 40 -53 39 -51 38 C-49.31002677 36.35697047 -47.64783606 34.68528688 -46 33 C-44.35248649 31.58161088 -42.68388792 30.18750907 -41 28.8125 C-40.175 28.13832031 -39.35 27.46414062 -38.5 26.76953125 C-36.0433158 25.03065946 -33.79606547 24.06691972 -31 23 C-27.96102687 20.65745821 -25.30020151 18.30810155 -22.625 15.5625 C-19.90273676 12.90505255 -17.05340032 10.7240477 -13.98828125 8.484375 C-12.17798194 7.13287453 -10.46149615 5.72318656 -8.75 4.25 C-3.55555556 0 -3.55555556 0 0 0 Z " fill="#CFD7DC" transform="translate(652,173)"/>
<path d="M0 0 C2.40806358 1.51600764 3.78721155 2.40221802 4.7578125 5.12890625 C4.87898437 5.93199219 5.00015625 6.73507813 5.125 7.5625 C5.25132812 8.34753906 5.37765625 9.13257812 5.5078125 9.94140625 C5.67023437 10.95074219 5.83265625 11.96007812 6 13 C6.15713396 13.6345696 6.31426791 14.26913919 6.47616351 14.92293817 C8.37180225 22.91201366 8.28535963 30.86474736 8.26742554 39.02140808 C8.27116663 40.64039693 8.27576998 42.25938398 8.28115618 43.8783682 C8.29334482 48.3076549 8.29313061 52.73686584 8.29076743 57.16616547 C8.29035821 61.95092747 8.3014084 66.73566551 8.31088257 71.52041626 C8.32747086 80.88744579 8.33299113 90.25445013 8.33410732 99.62149312 C8.33505883 107.23840681 8.33917426 114.85531222 8.34550858 122.47222328 C8.36311509 144.08480972 8.37234837 165.69737632 8.37084763 187.30996998 C8.37076772 188.47426436 8.3706878 189.63855874 8.37060547 190.83813477 C8.37052371 192.0038567 8.37044195 193.16957863 8.37035771 194.37062547 C8.36954498 213.2583141 8.38868075 232.14592294 8.4168822 251.03358849 C8.44563496 270.44420619 8.45942118 289.85478502 8.45769465 309.26542455 C8.45703157 320.15621868 8.46248775 331.04692918 8.48405075 341.93770409 C8.50229402 351.21095293 8.50658406 360.48408021 8.4930319 369.75733926 C8.48651813 374.48429914 8.48632734 379.21102602 8.5037384 383.93796349 C8.51954482 388.27403229 8.51652893 392.60968483 8.49917014 396.94574396 C8.49611681 398.50559583 8.49966899 400.06547937 8.51089029 401.62529387 C8.57990228 411.90790083 7.53258513 421.3007066 4 431 C3.34 431.66 2.68 432.32 2 433 C2.45413964 427.73198013 3.26175615 422.8145671 4.52000046 417.67720413 C6.24848784 409.68666093 6.41416828 401.91549989 6.36749268 393.78973389 C6.36952172 392.19927582 6.37286656 390.608819 6.37739825 389.0183661 C6.38597691 384.6869767 6.3760463 380.35580469 6.36285591 376.02443433 C6.35189435 371.33884101 6.35838077 366.65326633 6.36264038 361.96766663 C6.36825567 352.80738465 6.35799521 343.64718684 6.34235242 334.48691919 C6.32477587 323.82024806 6.32339243 313.15359302 6.32273683 302.48690966 C6.32105131 283.46407397 6.30526327 264.44127654 6.28125 245.41845703 C6.25795511 226.9513314 6.24381948 208.48423004 6.24023438 190.01708984 C6.24001161 188.87787947 6.23978884 187.7386691 6.23955932 186.5649372 C6.23911673 184.2700253 6.2386747 181.97511339 6.23823325 179.68020149 C6.2379039 177.98219699 6.2379039 177.98219699 6.2375679 176.24988937 C6.23735192 175.12077469 6.23713593 173.99166001 6.2369134 172.82832973 C6.23321697 155.23076644 6.22186064 137.63320708 6.2094375 120.03564809 C6.2049986 113.65362472 6.2015619 107.27160173 6.19881538 100.88957742 C6.19439085 90.77663973 6.1866434 80.6637165 6.17204097 70.55078796 C6.16541879 65.9287821 6.16036559 61.30678907 6.15958023 56.68477821 C6.15879672 52.46008572 6.15342384 48.2354257 6.14426073 44.01074329 C6.14174046 42.47681786 6.14092432 40.94288856 6.14191952 39.40896139 C6.14300567 37.33541634 6.13802898 35.26197489 6.13142776 33.18844223 C6.13018127 32.0333276 6.12893477 30.87821296 6.1276505 29.68809485 C6.18290697 27.02891058 6.18290697 27.02891058 5 25 C4.65585848 22.98431396 4.34903342 20.9621783 4.0625 18.9375 C3.10866267 12.50977533 2.06005359 6.18016076 0 0 Z " fill="#D44F46" transform="translate(728,95)"/>
<path d="M0 0 C0.99 0.33 1.98 0.66 3 1 C2.34 1 1.68 1 1 1 C1 130.36 1 259.72 1 393 C-32.62694301 393 -32.62694301 393 -39.75 390.5625 C-40.48734375 390.31628906 -41.2246875 390.07007813 -41.984375 389.81640625 C-44 389 -44 389 -47 387 C-39.94110263 387.70588974 -32.98795036 388.78213386 -26 390 C-26 390.66 -26 391.32 -26 392 C-17.42 392 -8.84 392 0 392 C0 262.64 0 133.28 0 0 Z " fill="#DE5F56" transform="translate(147,172)"/>
<path d="M0 0 C1.33332095 2.6666419 0.67102033 4.16680303 0 7 C-0.66 7 -1.32 7 -2 7 C-2 9.31 -2 11.62 -2 14 C-2.66 14 -3.32 14 -4 14 C-3.979375 15.216875 -3.95875 16.43375 -3.9375 17.6875 C-3.89844717 19.99161686 -3.99162761 21.96276095 -4.49841303 24.21686238 C-5.0814221 27.45178385 -5.12409267 30.48036058 -5.12304783 33.76848316 C-5.12420167 34.43947162 -5.12535552 35.11046007 -5.12654433 35.80178151 C-5.129195 38.05422471 -5.12470158 40.3065967 -5.12025452 42.55903625 C-5.12069053 44.18852305 -5.12156601 45.81800977 -5.12284368 47.44749612 C-5.12508262 51.92842839 -5.12107553 56.40933682 -5.11606562 60.89026606 C-5.11175272 65.72117082 -5.11320814 70.5520742 -5.1139679 75.38298035 C-5.1144926 83.75393811 -5.1113514 92.12488808 -5.10573006 100.49584389 C-5.09760779 112.59888575 -5.09499909 124.70192385 -5.09374207 136.80496814 C-5.09155269 156.4407003 -5.0848957 176.0764283 -5.07543945 195.7121582 C-5.06626238 214.78800435 -5.05918299 233.86384936 -5.05493164 252.93969727 C-5.05466892 254.11525991 -5.05440619 255.29082255 -5.05413551 256.5020083 C-5.05283048 262.39937919 -5.05156677 268.29675009 -5.05032361 274.194121 C-5.03995456 323.12941687 -5.02233935 372.06470823 -5 421 C-5.33 421 -5.66 421 -6 421 C-6.75549196 416.29474614 -7.12580716 411.78693506 -7.12863445 407.02338505 C-7.13038749 406.35417405 -7.13214053 405.68496306 -7.13394669 404.99547294 C-7.13858539 402.76104481 -7.13614672 400.52668236 -7.13371277 398.29225159 C-7.13558181 396.67086466 -7.13788288 395.04947818 -7.14057809 393.42809242 C-7.14669086 388.97852911 -7.14656312 384.52898461 -7.14538372 380.07941806 C-7.14517958 375.27838595 -7.15069963 370.47735987 -7.15544128 365.67633057 C-7.16374512 356.27314127 -7.16649599 346.86995825 -7.16705366 337.46676559 C-7.16752887 329.82445575 -7.16958387 322.18214798 -7.17275429 314.53983879 C-7.18155951 292.87407142 -7.18617378 271.20830901 -7.18542381 249.54253984 C-7.18538386 248.37471019 -7.1853439 247.20688054 -7.18530273 246.00366211 C-7.18526185 244.8344075 -7.18522097 243.66515289 -7.18517885 242.46046632 C-7.18477224 223.5032185 -7.19434596 204.54599054 -7.2084411 185.58874846 C-7.22279862 166.12515322 -7.22971165 146.66156767 -7.22884732 127.19796699 C-7.22851518 116.2699299 -7.23127011 105.34191363 -7.24202538 94.4138813 C-7.25112207 85.11147518 -7.2533124 75.80909932 -7.24651595 66.50669069 C-7.24324678 61.76043025 -7.24320843 57.01422789 -7.2518692 52.26797295 C-7.25971736 47.9223882 -7.25832003 43.57690777 -7.24958507 39.23132562 C-7.24804639 37.66007002 -7.24988009 36.08880669 -7.25544515 34.51756019 C-7.30309734 20.10799757 -7.30309734 20.10799757 -5 13 C-4.61328125 11.58267578 -4.61328125 11.58267578 -4.21875 10.13671875 C-3.9815625 9.32847656 -3.744375 8.52023438 -3.5 7.6875 C-3.2628125 6.86636719 -3.025625 6.04523438 -2.78125 5.19921875 C-2 3 -2 3 0 0 Z " fill="#D65148" transform="translate(71,95)"/>
<path d="M0 0 C0 129.36 0 258.72 0 392 C-0.33 392 -0.66 392 -1 392 C-1.33 263.63 -1.66 135.26 -2 3 C-6.95 6.96 -11.9 10.92 -17 15 C-18.32 14.67 -19.64 14.34 -21 14 C-20.41992188 13.55269531 -19.83984375 13.10539063 -19.2421875 12.64453125 C-13.89262208 8.5051584 -13.89262208 8.5051584 -8.6875 4.1875 C-3.54285714 0 -3.54285714 0 0 0 Z " fill="#E9BEBE" transform="translate(652,173)"/>
<path d="M0 0 C4 2 4 2 6 5 C4.35 4.67 2.7 4.34 1 4 C1 132.04 1 260.08 1 392 C0.67 392 0.34 392 0 392 C0 262.64 0 133.28 0 0 Z " fill="#FED2D0" transform="translate(148,173)"/>
<path d="M0 0 C0 3 0 3 -1.13671875 4.5 C-5.08799862 8.32189287 -8.70547673 11.23515891 -14 13 C-14.433125 13.928125 -14.433125 13.928125 -14.875 14.875 C-16.38684555 17.73070826 -18.17616369 18.48957593 -21 20 C-21.886875 20.5775 -22.77375 21.155 -23.6875 21.75 C-24.450625 22.1625 -25.21375 22.575 -26 23 C-26.66 22.67 -27.32 22.34 -28 22 C-24.61281417 19.04706876 -21.21498467 16.4383095 -17.4375 14 C-13.84302112 11.65786887 -10.99746019 9.08072297 -8 6 C-6.34738161 4.97695052 -4.68208635 3.97383946 -3 3 C-1.24850835 1.41754725 -1.24850835 1.41754725 0 0 Z " fill="#E56F66" transform="translate(470,204)"/>
<path d="M0 0 C-1.80686443 4.21601701 -4.2767685 6.99478162 -8.25 9.3125 C-11.56788201 11.34847305 -14.1553309 13.86496941 -16.9375 16.57421875 C-19.46832768 18.32374925 -20.98662359 18.27727248 -24 18 C-24 17.01 -24 16.02 -24 15 C-23.236875 14.896875 -22.47375 14.79375 -21.6875 14.6875 C-18.78105605 13.94399108 -17.96433971 13.15141968 -16 11 C-15.34 11 -14.68 11 -14 11 C-14 10.34 -14 9.68 -14 9 C-12.34928604 7.97388051 -10.68029994 6.97691857 -9 6 C-8.443125 5.443125 -7.88625 4.88625 -7.3125 4.3125 C-6.6628125 3.6628125 -6.6628125 3.6628125 -6 3 C-5.34 3 -4.68 3 -4 3 C-4 2.34 -4 1.68 -4 1 C-2 0 -2 0 0 0 Z " fill="#E7726A" transform="translate(422,243)"/>
<path d="M0 0 C0.66 0.33 1.32 0.66 2 1 C-0.90360995 5.02038301 -3.87336383 7.30505393 -8 10 C-8.804375 10.86625 -9.60875 11.7325 -10.4375 12.625 C-13.62637357 15.58054135 -15.80602432 16.09541701 -20 17 C-19.2575 16.278125 -18.515 15.55625 -17.75 14.8125 C-15.00916624 12.13867305 -15.00916624 12.13867305 -13.0625 9.375 C-10.64003952 6.58550005 -8.3934912 5.40165941 -5 4 C-4.34 4 -3.68 4 -3 4 C-2.67 3.01 -2.34 2.02 -2 1 C-1.34 0.67 -0.68 0.34 0 0 Z " fill="#E1A19E" transform="translate(520,272)"/>
<path d="M0 0 C7.05889737 0.70588974 14.01204964 1.78213386 21 3 C21 3.66 21 4.32 21 5 C29.91 5 38.82 5 48 5 C48 5.33 48 5.66 48 6 C43.99813807 6.02489435 39.99630672 6.04295127 35.99438477 6.05493164 C34.63565281 6.05993113 33.27692615 6.06673291 31.91821289 6.07543945 C29.95461415 6.08769842 27.99097459 6.09273487 26.02734375 6.09765625 C24.84906006 6.10289307 23.67077637 6.10812988 22.45678711 6.11352539 C17.20170011 5.94094149 12.22895071 5.26628987 7.25 3.5625 C6.51265625 3.31628906 5.7753125 3.07007813 5.015625 2.81640625 C3 2 3 2 0 0 Z " fill="#DB6F67" transform="translate(100,559)"/>
<path d="M0 0 C0.66 0.33 1.32 0.66 2 1 C-4.20574962 8.36820993 -4.20574962 8.36820993 -7.75 11.1875 C-10.27925908 13.2249587 -11.44428264 15.17142298 -13 18 C-14.5625 20.3125 -14.5625 20.3125 -16 22 C-16.66 22 -17.32 22 -18 22 C-16.65625204 15.93447101 -13.32223048 12.78232611 -9 8.625 C-8.35804687 7.98433594 -7.71609375 7.34367187 -7.0546875 6.68359375 C-2.28121668 2 -2.28121668 2 0 2 C0 1.34 0 0.68 0 0 Z " fill="#E66A61" transform="translate(90,72)"/>
<path d="M0 0 C2.40806358 1.51600764 3.78721155 2.40221802 4.7578125 5.12890625 C4.87898437 5.93199219 5.00015625 6.73507813 5.125 7.5625 C5.269375 8.44292969 5.41375 9.32335937 5.5625 10.23046875 C5.706875 11.14441406 5.85125 12.05835937 6 13 C6.36832978 14.79304981 6.74308932 16.58479368 7.125 18.375 C7.77382894 21.439469 8 23.80787434 8 27 C7.34 27 6.68 27 6 27 C4.67505338 24.35010676 4.47783483 21.87230395 4.0625 18.9375 C3.10866267 12.50977533 2.06005359 6.18016076 0 0 Z " fill="#E66D65" transform="translate(728,95)"/>
<path d="M0 0 C0.66 0.33 1.32 0.66 2 1 C-12.3398986 15.675117 -12.3398986 15.675117 -19 16 C-15.46096654 12.20817844 -15.46096654 12.20817844 -13.0625 11.125 C-10.69153663 9.99669226 -10.69153663 9.99669226 -8.5625 7.0625 C-6.14938518 4.17853351 -4.27716799 2.72961644 -1 1 C-0.67 0.67 -0.34 0.34 0 0 Z " fill="#E56C63" transform="translate(490,188)"/>
<path d="M0 0 C0.33 0 0.66 0 1 0 C1.45671437 5.59475108 0.55744235 10.46978847 -0.875 15.875 C-1.13555176 16.87478882 -1.13555176 16.87478882 -1.40136719 17.89477539 C-2.23304321 20.90133802 -2.75877734 22.75877734 -5 25 C-3.4375 6.875 -3.4375 6.875 0 0 Z " fill="#E56F67" transform="translate(735,503)"/>
<path d="M0 0 C1.33332095 2.6666419 0.67102033 4.16680303 0 7 C-0.66 7 -1.32 7 -2 7 C-2 9.31 -2 11.62 -2 14 C-2.66 14 -3.32 14 -4 14 C-3.938125 15.258125 -3.87625 16.51625 -3.8125 17.8125 C-3.67439419 20.62065146 -3.64839787 21.59025178 -5.51171875 23.76171875 C-6.00285156 24.17035156 -6.49398437 24.57898438 -7 25 C-6.61320532 16.25844026 -4.91694235 7.37541353 0 0 Z " fill="#E46B62" transform="translate(71,95)"/>
<path d="M0 0 C0 3 0 3 -1.13671875 4.5 C-5.68033511 8.89483296 -10.0317538 11.78322284 -16 14 C-16 13.34 -16 12.68 -16 12 C-15.01 11.67 -14.02 11.34 -13 11 C-11.31066078 9.3563186 -9.64740076 7.6857124 -8 6 C-2.82802548 1.41401274 -2.82802548 1.41401274 0 0 Z " fill="#E6736B" transform="translate(508,174)"/>
<path d="M0 0 C0.66 0.33 1.32 0.66 2 1 C-1.37983609 5.84933004 -5.84595951 10.07816719 -11 13 C-13.28125 12.6953125 -13.28125 12.6953125 -15 12 C-14.41992188 11.55269531 -13.83984375 11.10539063 -13.2421875 10.64453125 C-8.7576236 7.1738044 -4.32898614 3.66298828 0 0 Z " fill="#E3A9A8" transform="translate(646,175)"/>
<path d="M0 0 C-0.75 1.9375 -0.75 1.9375 -2 4 C-3.33333333 4.33333333 -4.66666667 4.66666667 -6 5 C-6.27585937 5.62390625 -6.55171875 6.2478125 -6.8359375 6.890625 C-8.3485763 9.63164834 -9.75471805 10.10188722 -12.625 11.25 C-13.44226563 11.58515625 -14.25953125 11.9203125 -15.1015625 12.265625 C-16.04128906 12.62914062 -16.04128906 12.62914062 -17 13 C-17.33 12.34 -17.66 11.68 -18 11 C-17.45730469 10.74605469 -16.91460937 10.49210937 -16.35546875 10.23046875 C-15.64003906 9.88628906 -14.92460937 9.54210937 -14.1875 9.1875 C-13.47980469 8.85105469 -12.77210938 8.51460938 -12.04296875 8.16796875 C-9.96719046 6.98124273 -8.62196211 5.73975825 -7 4 C-2.31428571 0 -2.31428571 0 0 0 Z " fill="#E2BCBC" transform="translate(427,346)"/>
<path d="M0 0 C0.66 0.33 1.32 0.66 2 1 C1.0479279 2.00596297 0.08812654 3.00461563 -0.875 4 C-1.40867187 4.556875 -1.94234375 5.11375 -2.4921875 5.6875 C-4 7 -4 7 -6 7 C-6.433125 7.928125 -6.433125 7.928125 -6.875 8.875 C-8 11 -8 11 -10 13 C-11.98821313 13.39764263 -13.98944339 13.73775349 -16 14 C-11.375 9.125 -11.375 9.125 -8 8 C-8 7.34 -8 6.68 -8 6 C-6.34928604 4.97388051 -4.68029994 3.97691857 -3 3 C-1.24850835 1.41754725 -1.24850835 1.41754725 0 0 Z " fill="#E56D64" transform="translate(596,104)"/>
<path d="M0 0 C0.66 0.33 1.32 0.66 2 1 C-1.37457481 4.45419273 -4.84477514 7.66826979 -8.5625 10.75 C-9.49191406 11.52859375 -10.42132812 12.3071875 -11.37890625 13.109375 C-13.74044356 14.81277896 -15.1642331 15.59965644 -18 16 C-13.375 11.125 -13.375 11.125 -10 10 C-9.566875 9.071875 -9.566875 9.071875 -9.125 8.125 C-7.17403831 4.43985015 -3.82038744 3.27346248 0 2 C0 1.34 0 0.68 0 0 Z " fill="#E5766E" transform="translate(578,118)"/>
<path d="M0 0 C9.09353818 1.65160416 9.09353818 1.65160416 13 5 C14.3303125 5.495 14.3303125 5.495 15.6875 6 C16.450625 6.33 17.21375 6.66 18 7 C18.33 7.99 18.66 8.98 19 10 C19.99 10.33 20.98 10.66 22 11 C21.01 11.495 21.01 11.495 20 12 C19.41798828 11.32517578 19.41798828 11.32517578 18.82421875 10.63671875 C16.62539846 8.6639014 14.57011171 7.85108103 11.8125 6.8125 C10.91144531 6.46832031 10.01039063 6.12414062 9.08203125 5.76953125 C8.39496094 5.51558594 7.70789063 5.26164062 7 5 C7 4.34 7 3.68 7 3 C6.030625 2.87625 5.06125 2.7525 4.0625 2.625 C3.051875 2.41875 2.04125 2.2125 1 2 C0.67 1.34 0.34 0.68 0 0 Z " fill="#E67A73" transform="translate(691,64)"/>
<path d="M0 0 C0.66 0.33 1.32 0.66 2 1 C-1.17091427 5.56611655 -4.20507917 7.43129241 -9 10 C-10.35387289 10.97201131 -11.69855198 11.95884159 -13 13 C-13.66 12.67 -14.32 12.34 -15 12 C-13 9 -13 9 -10 8 C-9.67 7.34 -9.34 6.68 -9 6 C-7.24317275 4.97784597 -5.48399924 3.95804552 -3.69140625 3 C-1.8257777 1.99165437 -1.8257777 1.99165437 0 0 Z " fill="#E3B9B9" transform="translate(582,225)"/>
<path d="M0 0 C0.66 0 1.32 0 2 0 C1.60824727 2.43931365 1.2627764 3.73170598 -0.48828125 5.51953125 C-1.09027344 5.94621094 -1.69226563 6.37289063 -2.3125 6.8125 C-3.20388672 7.47185547 -3.20388672 7.47185547 -4.11328125 8.14453125 C-6.48204164 9.21856546 -7.60093031 8.86324141 -10 8 C-8.71283353 6.99421411 -7.42011342 5.99553202 -6.125 5 C-5.40570312 4.443125 -4.68640625 3.88625 -3.9453125 3.3125 C-2 2 -2 2 0 2 C0 1.34 0 0.68 0 0 Z " fill="#E1B1B0" transform="translate(536,260)"/>
<path d="M0 0 C0.66 0.33 1.32 0.66 2 1 C0.78521149 2.18163051 -0.44752408 3.34482835 -1.6875 4.5 C-2.37199219 5.1496875 -3.05648438 5.799375 -3.76171875 6.46875 C-6.40656372 8.27813784 -7.86162389 8.3077917 -11 8 C-11 7.01 -11 6.02 -11 5 C-10.236875 4.896875 -9.47375 4.79375 -8.6875 4.6875 C-5.75657342 3.93772808 -4.98482838 3.16526733 -3 1 C-2.01 0.67 -1.02 0.34 0 0 Z " fill="#E5635A" transform="translate(409,253)"/>
<path d="M0 0 C0.33 0.66 0.66 1.32 1 2 C-1.57784846 4.64752004 -3.91648098 6.94432065 -7 9 C-8.32 8.67 -9.64 8.34 -11 8 C-7.37 5.36 -3.74 2.72 0 0 Z " fill="#E76E66" transform="translate(621,85)"/>
<path d="M0 0 C0.99 0 1.98 0 3 0 C3 0.66 3 1.32 3 2 C-2.03236992 6.27820004 -7.58048005 8.00438001 -14 9 C-13.67 8.34 -13.34 7.68 -13 7 C-10.4375 6.375 -10.4375 6.375 -8 6 C-8 5.34 -8 4.68 -8 4 C-5.36 3.34 -2.72 2.68 0 2 C0 1.34 0 0.68 0 0 Z " fill="#E46B62" transform="translate(705,553)"/>
<path d="M0 0 C0.66 0 1.32 0 2 0 C3.35439668 2.70879335 3.06501451 5.00933268 3 8 C3.66 8 4.32 8 5 8 C5 9.65 5 11.3 5 13 C5.66 13.33 6.32 13.66 7 14 C6.01 14 5.02 14 4 14 C3.32471777 12.42032193 2.66010306 10.83608097 2 9.25 C1.62875 8.36828125 1.2575 7.4865625 0.875 6.578125 C0 4 0 4 0 0 Z " fill="#E66B63" transform="translate(66,516)"/>
<path d="M0 0 C0.66 0.33 1.32 0.66 2 1 C0.43122326 2.5358444 -1.15556154 4.05331331 -2.75 5.5625 C-3.63171875 6.40941406 -4.5134375 7.25632813 -5.421875 8.12890625 C-8 10 -8 10 -10.328125 9.77734375 C-10.87984375 9.52082031 -11.4315625 9.26429688 -12 9 C-8.99375541 5.64688104 -6.04010925 3.93222616 -2 2 C-1.34 1.34 -0.68 0.68 0 0 Z " fill="#E3A9A7" transform="translate(560,242)"/>
<path d="M0 0 C0.66 0.33 1.32 0.66 2 1 C0.33333333 2.66666667 -1.33333333 4.33333333 -3 6 C-4.2065625 7.3303125 -4.2065625 7.3303125 -5.4375 8.6875 C-8.22173072 11.20009845 -10.39898343 12.07880972 -14 13 C-13.34 12.01 -12.68 11.02 -12 10 C-11.34 10 -10.68 10 -10 10 C-10 9.34 -10 8.68 -10 8 C-8.34928604 6.97388051 -6.68029994 5.97691857 -5 5 C-4.1646875 4.1646875 -4.1646875 4.1646875 -3.3125 3.3125 C-2.6628125 2.6628125 -2.6628125 2.6628125 -2 2 C-1.34 2 -0.68 2 0 2 C0 1.34 0 0.68 0 0 Z " fill="#E5776F" transform="translate(636,72)"/>
<path d="M0 0 C0.66 0.33 1.32 0.66 2 1 C-1.64751781 6.08441876 -3.85169289 7.79444959 -10 9 C-6.83047153 5.73991357 -3.60062011 2.77762123 0 0 Z " fill="#E29A96" transform="translate(616,198)"/>
<path d="M0 0 C5.19822672 1.36144033 8.09543873 3.46730171 12 7 C11.67 7.99 11.34 8.98 11 10 C10.443125 9.401875 9.88625 8.80375 9.3125 8.1875 C7.08601084 5.92147928 7.08601084 5.92147928 4.375 4.4375 C2 3 2 3 0 0 Z " fill="#E46C63" transform="translate(358,333)"/>
<path d="M0 0 C2.475 0.495 2.475 0.495 5 1 C5 1.66 5 2.32 5 3 C7.475 3.99 7.475 3.99 10 5 C10 5.66 10 6.32 10 7 C11.32 7.66 12.64 8.32 14 9 C9.98165669 9 8.50894113 7.43998366 5.3125 5.0625 C3.82169922 3.96615234 3.82169922 3.96615234 2.30078125 2.84765625 C1.54152344 2.23792969 0.78226562 1.62820312 0 1 C0 0.67 0 0.34 0 0 Z " fill="#F5C1BF" transform="translate(372,238)"/>
<path d="M0 0 C-1.48781815 3.78717347 -3.61988409 5.77407001 -7 8 C-7.99 7.67 -8.98 7.34 -10 7 C-8.71034824 5.62437146 -7.37310707 4.29233607 -6 3 C-5.34 3 -4.68 3 -4 3 C-4 2.34 -4 1.68 -4 1 C-2 0 -2 0 0 0 Z " fill="#E67770" transform="translate(432,235)"/>
<path d="M0 0 C0.66 0.33 1.32 0.66 2 1 C-3.16923077 6.78461538 -3.16923077 6.78461538 -7.375 7.875 C-8.674375 7.936875 -8.674375 7.936875 -10 8 C-6.91367389 4.7373124 -4.06516496 1.97764782 0 0 Z " fill="#E56960" transform="translate(648,64)"/>
<path d="M0 0 C0.33 1.32 0.66 2.64 1 4 C-1.31 5.98 -3.62 7.96 -6 10 C-6.66 9.67 -7.32 9.34 -8 9 C-5.36 6.03 -2.72 3.06 0 0 Z " fill="#F9CAC7" transform="translate(722,540)"/>
<path d="M0 0 C0.66 0.33 1.32 0.66 2 1 C0.57277341 2.1998278 -0.86715776 3.3845576 -2.3125 4.5625 C-3.51326172 5.55443359 -3.51326172 5.55443359 -4.73828125 6.56640625 C-5.85783203 7.27603516 -5.85783203 7.27603516 -7 8 C-7.99 7.67 -8.98 7.34 -10 7 C-9.34 7 -8.68 7 -8 7 C-7.67 6.01 -7.34 5.02 -7 4 C-5.03384339 2.9349985 -3.03273074 1.93166826 -1 1 C-0.67 0.67 -0.34 0.34 0 0 Z " fill="#E4AAA7" transform="translate(602,210)"/>
<path d="M0 0 C0.66 0.33 1.32 0.66 2 1 C0.375 3.5 0.375 3.5 -2 6 C-5.25 6.3125 -5.25 6.3125 -8 6 C-7.67 5.34 -7.34 4.68 -7 4 C-5.68 4 -4.36 4 -3 4 C-2.67 3.01 -2.34 2.02 -2 1 C-1.34 0.67 -0.68 0.34 0 0 Z " fill="#E2A7A3" transform="translate(406,360)"/>
<path d="M0 0 C0.66 0.33 1.32 0.66 2 1 C-0.42195448 3.87255066 -2.59742703 4.70838919 -6.1875 5.6875 C-7.08855469 5.93886719 -7.98960938 6.19023438 -8.91796875 6.44921875 C-9.60503906 6.63097656 -10.29210937 6.81273438 -11 7 C-9.48699734 3.97399468 -7.00173218 3.41257985 -4 2 C-3.2575 1.5875 -2.515 1.175 -1.75 0.75 C-0.88375 0.37875 -0.88375 0.37875 0 0 Z " fill="#E6776F" transform="translate(103,65)"/>
<path d="M0 0 C0.66 0.33 1.32 0.66 2 1 C-0.19924069 4.35673579 -2.38269598 6.23772368 -6 8 C-6.66 7.67 -7.32 7.34 -8 7 C-5.36 4.69 -2.72 2.38 0 0 Z " fill="#E46C64" transform="translate(523,162)"/>
<path d="M0 0 C1.40907283 2.81814566 0.50872691 4.17277204 -0.4375 7.125 C-0.72496094 8.03507812 -1.01242188 8.94515625 -1.30859375 9.8828125 C-1.53675781 10.58148438 -1.76492187 11.28015625 -2 12 C-2.33 12 -2.66 12 -3 12 C-3.2954439 6.97745369 -2.98514628 4.10457614 0 0 Z " fill="#FBD3CF" transform="translate(68,98)"/>
<path d="M0 0 C-3.36423277 2.96052484 -6.69159287 3.92289822 -11 5 C-11 4.34 -11 3.68 -11 3 C-9.73581754 2.30034557 -8.46334598 1.61565237 -7.1875 0.9375 C-6.47980469 0.55464844 -5.77210938 0.17179687 -5.04296875 -0.22265625 C-3 -1 -3 -1 0 0 Z " fill="#E0B1B0" transform="translate(420,354)"/>
<path d="M0 0 C0.86625 0.4640625 0.86625 0.4640625 1.75 0.9375 C3.84294184 1.92583364 5.74535275 2.5168613 8 3 C8.33 4.32 8.66 5.64 9 7 C7.68 6.67 6.36 6.34 5 6 C5 5.34 5 4.68 5 4 C4.360625 3.71125 3.72125 3.4225 3.0625 3.125 C1 2 1 2 0 0 Z " fill="#E3675D" transform="translate(383,352)"/>
<path d="M0 0 C0.66 0.33 1.32 0.66 2 1 C0.68 2.65 -0.64 4.3 -2 6 C-3.32 5.67 -4.64 5.34 -6 5 C-5.01 4.67 -4.02 4.34 -3 4 C-2.67 3.01 -2.34 2.02 -2 1 C-1.34 0.67 -0.68 0.34 0 0 Z " fill="#E29A98" transform="translate(520,272)"/>
<path d="M0 0 C0.66 0.33 1.32 0.66 2 1 C0.35 2.98 -1.3 4.96 -3 7 C-4.32 6.67 -5.64 6.34 -7 6 C-4.69 4.02 -2.38 2.04 0 0 Z " fill="#E29994" transform="translate(638,181)"/>
<path d="M0 0 C0.33 0.99 0.66 1.98 1 3 C-2.625 6 -2.625 6 -6 6 C-6 5.34 -6 4.68 -6 4 C-4.03852126 2.61061923 -2.03833424 1.2739589 0 0 Z " fill="#E6736B" transform="translate(604,98)"/>
<path d="M0 0 C0.66 0.33 1.32 0.66 2 1 C0.68 2.65 -0.64 4.3 -2 6 C-3.32 5.67 -4.64 5.34 -6 5 C-4.02 3.35 -2.04 1.7 0 0 Z " fill="#E29894" transform="translate(490,295)"/>
<path d="M0 0 C0.66 0.33 1.32 0.66 2 1 C0.68 2.65 -0.64 4.3 -2 6 C-3.32 5.67 -4.64 5.34 -6 5 C-4.02 3.35 -2.04 1.7 0 0 Z " fill="#E9817A" transform="translate(440,227)"/>
<path d="M0 0 C0.66 0.33 1.32 0.66 2 1 C-0.3125 3.5 -0.3125 3.5 -3 6 C-3.99 6 -4.98 6 -6 6 C-4 3 -4 3 -1 2 C-0.67 1.34 -0.34 0.68 0 0 Z " fill="#E59D99" transform="translate(573,231)"/>
<path d="M0 0 C2.9375 0.75 2.9375 0.75 6 2 C6.875 4.125 6.875 4.125 7 6 C1.125 2.25 1.125 2.25 0 0 Z " fill="#F2B8B5" transform="translate(152,64)"/>
</svg>
