<?xml version="1.0" encoding="UTF-8"?>
<svg version="1.1" xmlns="http://www.w3.org/2000/svg" width="1060" height="512">
<path d="M0 0 C349.8 0 699.6 0 1060 0 C1060 168.96 1060 337.92 1060 512 C710.2 512 360.4 512 0 512 C0 343.04 0 174.08 0 0 Z " fill="#C70F2E" transform="translate(0,0)"/>
<path d="M0 0 C160.71 0 321.42 0 487 0 C487 67.65 487 135.3 487 205 C326.29 205 165.58 205 0 205 C0 137.35 0 69.7 0 0 Z " fill="#FDFCFC" transform="translate(0,0)"/>
<path d="M0 0 C160.71 0 321.42 0 487 0 C487 66 487 132 487 200 C326.29 200 165.58 200 0 200 C0 134 0 68 0 0 Z " fill="#FDFBFC" transform="translate(0,312)"/>
<path d="M0 0 C153.45 0 306.9 0 465 0 C465 67.65 465 135.3 465 205 C311.55 205 158.1 205 0 205 C0 137.35 0 69.7 0 0 Z " fill="#FDFCFC" transform="translate(595,0)"/>
<path d="M0 0 C153.45 0 306.9 0 465 0 C465 66 465 132 465 200 C311.55 200 158.1 200 0 200 C0 134 0 68 0 0 Z " fill="#FDFBFC" transform="translate(595,312)"/>
<path d="M0 0 C100.65 0 201.3 0 305 0 C305 50.49 305 100.98 305 153 C283.17517454 142.66192478 283.17517454 142.66192478 272.85749817 137.48887634 C271.66149211 136.89109251 270.46539778 136.29348524 269.2692253 135.69603449 C266.05041048 134.0877233 262.83281862 132.47697998 259.61545813 130.86576188 C256.12024501 129.11596451 252.62385001 127.36853147 249.12760925 125.62078857 C243.09278383 122.60363607 237.05868343 119.58503788 231.02509499 116.56541252 C222.30189613 112.19972261 213.57757311 107.83628312 204.85298773 103.4733649 C190.69262974 96.39209578 176.53316304 89.30904643 162.37426758 82.22485352 C148.63287863 75.34955861 134.8910633 68.4751171 121.14868164 61.60180664 C120.29939265 61.17703078 119.45010366 60.75225493 118.57507864 60.31460708 C114.31378323 58.18330678 110.05247951 56.05202308 105.79117167 53.92074764 C70.52616033 36.28307169 35.26259994 18.64249645 0 1 C0 0.67 0 0.34 0 0 Z " fill="#022269" transform="translate(146,0)"/>
<path d="M0 0 C100.65 0 201.3 0 305 0 C301.36840422 2.72369684 297.79614684 4.71519869 293.75 6.6875 C292.30723866 7.3996322 290.86453183 8.11187485 289.421875 8.82421875 C288.31875977 9.3663501 288.31875977 9.3663501 287.19335938 9.91943359 C283.78769782 11.59724504 280.39418593 13.29912825 277 15 C275.66673187 15.66679706 274.33339834 16.33346336 273 17 C272.34 17.33 271.68 17.66 271 18 C247.22135417 29.88932292 223.44270833 41.77864583 199.6640625 53.66796875 C198.73650146 54.13178955 197.80894043 54.59561035 196.85327148 55.07348633 C194.94926752 56.02540685 193.04513312 56.97706653 191.14086914 57.9284668 C186.99322228 60.00103195 182.84648574 62.07517566 178.70703125 64.1640625 C171.74604089 67.67165161 164.74750849 71.07081853 157.6875 74.375 C150.31277449 77.83246423 143.0898274 81.52158437 135.89941406 85.34594727 C129.13005066 88.94556252 122.29459147 92.3914204 115.42529297 95.79541016 C111.42215646 97.78368029 107.42558627 99.78506743 103.42822266 101.78491211 C100.02428025 103.48785296 96.61957014 105.18925227 93.21484375 106.890625 C89.62094526 108.68730399 86.02876874 110.48718241 82.44140625 112.296875 C75.5687011 115.759768 68.65759106 119.1120891 61.6875 122.375 C54.3217664 125.82834181 47.10646032 129.51104996 39.92578125 133.33276367 C32.9813486 137.02739187 25.96442112 140.55733493 18.9140625 144.04443359 C16.93518014 145.03236032 14.9668071 146.03904723 13 147.05078125 C12.35844971 147.37860596 11.71689941 147.70643066 11.0559082 148.04418945 C9.29976963 148.94256689 7.54627571 149.84610873 5.79296875 150.75 C3 152 3 152 0 152 C0 101.84 0 51.68 0 0 Z " fill="#012268" transform="translate(631,0)"/>
<path d="M0 0 C0 48.84 0 97.68 0 148 C-97.35 148 -194.7 148 -295 148 C-291.9231329 145.69234968 -289.36414238 144.05720841 -285.98156452 142.36633778 C-284.4552662 141.59973952 -284.4552662 141.59973952 -282.89813358 140.81765443 C-281.78209206 140.26220545 -280.66605054 139.70675647 -279.51618958 139.13447571 C-278.31708764 138.53413052 -277.11816095 137.9334352 -275.91939467 137.33242005 C-272.62569986 135.68236531 -269.32952773 134.03731437 -266.03292954 132.39306962 C-262.47799561 130.61889072 -258.92536857 128.84010353 -255.37245178 127.06188965 C-248.41330033 123.57979259 -241.45201939 120.10197348 -234.4900103 116.62559406 C-226.38879173 112.58017367 -218.28966313 108.53057747 -210.19061657 104.4808109 C-195.74599074 97.25824765 -181.29943551 90.03955204 -166.85180664 82.82299805 C-152.81877826 75.81353233 -138.7871577 68.80125877 -124.75708008 61.78588867 C-123.89246766 61.35356248 -123.02785524 60.9212363 -122.13704244 60.47580931 C-120.8424072 59.82846143 -120.8424072 59.82846143 -119.52161771 59.16803581 C-103.56443941 51.18910217 -87.60594806 43.21279796 -71.64684055 35.23772383 C-65.99435364 32.41299132 -60.3422597 29.58747351 -54.69028664 26.76171303 C-47.80974582 23.32178289 -40.92845483 19.8833587 -34.04620913 16.44684068 C-30.53171998 14.691912 -27.01755474 12.93634269 -23.50424194 11.17905998 C-20.29349042 9.57313957 -17.08183198 7.96904893 -13.86941179 6.36646917 C-12.1458194 5.50601975 -10.42321477 4.64359262 -8.70063621 3.78111535 C-7.69092724 3.27787309 -6.68121827 2.77463083 -5.64091206 2.2561388 C-4.7625089 1.81728944 -3.88410575 1.37844007 -2.97908431 0.92629224 C-1 0 -1 0 0 0 Z " fill="#022268" transform="translate(451,364)"/>
<path d="M0 0 C4.06418323 0.81283665 6.48671993 1.5558809 10.07063389 3.34795189 C11.07437347 3.84621841 12.07811305 4.34448493 13.11226898 4.85785043 C14.20778751 5.40929684 15.30330604 5.96074324 16.43202209 6.52890015 C17.60136793 7.11158586 18.77071377 7.69427158 19.97549433 8.29461443 C23.22004228 9.91159249 26.4608003 11.53604021 29.70098698 13.16173601 C33.19646622 14.91389411 36.69539445 16.65913972 40.19389343 18.40525818 C47.0464713 21.82680064 53.8958119 25.25477553 60.74406058 28.68497322 C68.71683636 32.67816851 76.69265751 36.66526299 84.66858082 40.65216668 C98.89818436 47.76537314 113.12480724 54.88452088 127.34985352 62.00683594 C141.15764365 68.92023323 154.96780865 75.82885732 168.78051758 82.73242188 C183.81644763 90.24735892 198.85112798 97.76478505 213.88357252 105.28669226 C215.48609131 106.08855531 217.08861036 106.89041783 218.69112968 107.69227982 C219.47962743 108.08683046 220.26812518 108.4813811 221.0805168 108.88788783 C226.6409651 111.67005274 232.20226756 114.45050551 237.76387215 117.23035812 C244.54022359 120.61747346 251.31509987 124.00751856 258.08812077 127.40128921 C261.54478507 129.13324648 265.00207437 130.86392382 268.46110153 132.59115791 C272.20790301 134.46214954 275.95157903 136.33930984 279.69496155 138.21713257 C280.7927108 138.76411753 281.89046004 139.31110249 283.02147442 139.87466276 C284.02260626 140.37814477 285.02373809 140.88162678 286.05520725 141.40036583 C286.91977812 141.83308465 287.78434899 142.26580348 288.67511898 142.71163499 C291 144 291 144 295 147 C197.65 147 100.3 147 0 147 C0 98.49 0 49.98 0 0 Z " fill="#022269" transform="translate(631,365)"/>
<path d="M0 0 C4.71180846 1.57060282 8.92422185 3.32494237 13.3125 5.5625 C14.00690186 5.91256104 14.70130371 6.26262207 15.41674805 6.62329102 C20.4197381 9.15873029 25.36906639 11.78838448 30.3125 14.4375 C37.07909743 18.06293638 43.95632363 21.38237562 50.91333008 24.62475586 C56.19517491 27.10201472 61.3656667 29.73096862 66.5 32.5 C72.37765788 35.66948685 78.32163866 38.61828718 84.375 41.4375 C91.72654098 44.86451722 98.91930001 48.5248148 106.07885742 52.33520508 C113.01029289 56.02226096 120.01279069 59.5489313 127.04833984 63.03222656 C130.36996959 64.67932943 133.68448738 66.34062952 137 68 C140.89640082 69.94865383 144.79309937 71.89671131 148.69018555 73.84399414 C154.8791088 76.93684467 161.06682511 80.03202712 167.24940491 83.13754272 C170.76968636 84.90569189 174.29085239 86.67207355 177.8125 88.4375 C178.55257294 88.8085083 179.29264587 89.1795166 180.05514526 89.56176758 C189.23546491 94.16026967 198.43968871 98.68286413 207.74804688 103.01782227 C215.04230943 106.43806217 222.12693666 110.23310177 229.21728516 114.05371094 C231.78739277 115.41795869 234.39035921 116.7133864 237 118 C237 118.33 237 118.66 237 119 C158.79 119 80.58 119 0 119 C0 79.73 0 40.46 0 0 Z " fill="#012268" transform="translate(0,49)"/>
<path d="M0 0 C78.21 0 156.42 0 237 0 C234.44253713 2.55746287 233.25668886 3.53911008 230.1484375 4.9453125 C229.38885742 5.29513184 228.62927734 5.64495117 227.84667969 6.00537109 C227.03102539 6.37484863 226.21537109 6.74432617 225.375 7.125 C219.06648661 10.04295597 212.8655009 13.07263301 206.75 16.375 C200.82270216 19.57332287 194.82129114 22.54203741 188.7265625 25.40625 C171.22027618 33.71342294 153.9277179 42.46086868 136.60107422 51.13427734 C131.61072142 53.63231284 126.61856815 56.12672597 121.62587929 58.62008858 C117.71962914 60.57139081 113.81434941 62.52462894 109.90934372 64.47842026 C108.07040957 65.39821587 106.23118933 66.31743978 104.39165115 67.23602676 C94.72174668 72.06612087 85.0895397 76.95001187 75.55926704 82.05120277 C69.93176366 85.06143207 64.21636213 87.8541476 58.4375 90.5625 C56.46436647 91.49769158 54.49171167 92.43389387 52.51953125 93.37109375 C51.10728271 94.04180908 51.10728271 94.04180908 49.66650391 94.72607422 C39.68410282 99.49517959 29.87137303 104.57004427 20.10571289 109.76586914 C2.733232 119 2.733232 119 0 119 C0 79.73 0 40.46 0 0 Z " fill="#012268" transform="translate(0,349)"/>
<path d="M0 0 C-2.98881662 2.36765754 -6.04479097 4.18203293 -9.42245865 5.94600964 C-10.53060747 6.52674305 -11.6387563 7.10747647 -12.78048539 7.70580786 C-14.01050916 8.34560542 -15.24060469 8.98526504 -16.47076416 9.62480164 C-17.77850439 10.30775446 -19.08612183 10.99094245 -20.39362693 11.67434531 C-23.99060343 13.55279016 -27.59030463 15.42595687 -31.19072533 17.29779017 C-33.49481813 18.49604662 -35.79821626 19.69562874 -38.10143661 20.89556122 C-67.44840786 36.18186009 -96.88972349 51.2834196 -126.36979248 66.31122683 C-131.21326137 68.78030862 -136.0560589 71.25070448 -140.8984375 73.72192383 C-141.86209353 74.21367876 -142.82574957 74.70543369 -143.8186073 75.21209029 C-159.27416225 83.1033244 -174.66777958 91.10835637 -190.04010299 99.16029885 C-205.91682486 107.47316025 -221.85564482 115.65668865 -237.85472655 123.7315734 C-246.79872021 128.24995163 -255.70834681 132.81691421 -264.54920197 137.53436852 C-315.31210036 164.57141822 -356.49058293 173.57142637 -414 168 C-411.55737947 165.25039526 -408.95119612 163.75043881 -405.70338249 162.05399036 C-404.59784141 161.47325695 -403.49230034 160.89252353 -402.35325801 160.29419214 C-401.12100022 159.6543573 -399.8886507 159.01469909 -398.65621948 158.37519836 C-397.34996401 157.69241932 -396.04392482 157.00922635 -394.73808396 156.32565469 C-391.14173659 154.44535241 -387.54134536 152.57291679 -383.93999934 150.70220983 C-381.63579645 149.50459273 -379.33271049 148.30485445 -377.02996445 147.10443878 C-347.6882748 131.81041454 -318.24566812 116.71289597 -288.76499026 101.68877317 C-283.92006458 99.21966478 -279.07579366 96.74927437 -274.23193359 94.27807617 C-273.26797437 93.78632124 -272.30401514 93.29456631 -271.31084503 92.78790971 C-255.85474668 84.89880462 -240.46200936 76.89345317 -225.09118532 68.83970115 C-209.2164229 60.52520657 -193.2788218 52.34172139 -177.28003228 44.2684266 C-168.33606657 39.75084841 -159.42685412 35.18432712 -150.58709335 30.46563148 C-99.46307767 3.2265981 -57.89922766 -5.52722363 0 0 Z " fill="#C70F2D" transform="translate(1057,0)"/>
<path d="M0 0 C-2.94584629 2.39495137 -5.62342259 4.49795257 -9.08203125 6.078125 C-10.22031372 6.60611694 -10.22031372 6.60611694 -11.3815918 7.14477539 C-12.58489136 7.69186157 -12.58489136 7.69186157 -13.8125 8.25 C-15.52408984 9.0441685 -17.23501776 9.83976499 -18.9453125 10.63671875 C-19.79770508 11.03294434 -20.65009766 11.42916992 -21.52832031 11.83740234 C-25.11033734 13.52226654 -28.65231774 15.281868 -32.1875 17.0625 C-32.83501221 17.38831055 -33.48252441 17.71412109 -34.1496582 18.04980469 C-35.44950342 18.70467615 -36.74906599 19.36010896 -38.04833984 20.01611328 C-41.36116236 21.68620019 -44.68096677 23.3423006 -48 25 C-49.33336587 25.66660158 -50.66669923 26.33326821 -52 27 C-118 60 -184 93 -309.7409668 155.83630371 C-312.05659253 156.98805692 -312.05659253 156.98805692 -314.36987305 158.49255371 C-323.74175639 164.00287791 -332.14974614 163.78293597 -342.671875 163.5859375 C-344.44832921 163.5747227 -346.2248022 163.56619333 -348.00128174 163.56021118 C-352.63770356 163.53749211 -357.27296626 163.47871929 -361.90893555 163.4119873 C-366.65527677 163.35019555 -371.40180849 163.32311804 -376.1484375 163.29296875 C-385.4327961 163.22895597 -394.71630102 163.12678669 -404 163 C-401.05572062 160.67264897 -398.05738277 158.87027514 -394.73371506 157.13207722 C-393.66040019 156.56876078 -392.58708532 156.00544434 -391.48124576 155.42505771 C-390.29052449 154.80491158 -389.09973148 154.18490321 -387.90887451 153.5650177 C-386.64238276 152.90268766 -385.37601332 152.24012368 -384.10975575 151.57734603 C-380.62679151 149.75592049 -377.14110828 147.93975654 -373.65470457 146.12492478 C-371.42347463 144.96309512 -369.19293788 143.79994458 -366.96257782 142.636446 C-338.53497963 127.80970046 -310.01290287 113.167837 -281.45203023 98.59968453 C-276.75877341 96.20570966 -272.06618873 93.81042013 -267.37402344 91.41430664 C-265.97339861 90.69910385 -265.97339861 90.69910385 -264.54447833 89.96945252 C-249.57382063 82.32072161 -234.66524242 74.5582467 -219.77795109 66.74872819 C-204.39851345 58.68433046 -188.95691495 50.74955801 -173.4549439 42.92326182 C-164.79027544 38.54457282 -156.16016159 34.11758724 -147.59883881 29.53965187 C-97.53194918 2.81868881 -56.68763813 -5.2937345 0 0 Z " fill="#C60F2E" transform="translate(439,349)"/>
<path d="M0 0 C22.52016245 -2.07346731 36.75071683 4.09589945 56.1389991 14.11867929 C60.20132872 16.20451757 64.29300389 18.23134733 68.38114929 20.26597595 C75.43705369 23.78741663 82.47391407 27.34460853 89.49868965 30.92771912 C99.65482469 36.10796719 109.83857737 41.2318658 120.0296179 46.34303313 C136.56832575 54.63965306 153.08426941 62.98055956 169.58618164 71.35009766 C185.60331669 79.47364257 201.63096222 87.57582761 217.6730957 95.64990234 C218.66418414 96.14873061 219.65527257 96.64755887 220.67639399 97.16150314 C225.64913443 99.66418793 230.62208326 102.16645831 235.59513581 104.66852283 C276.76258801 125.38154636 317.89325321 146.16679025 359 167 C359 167.33 359 167.66 359 168 C303.06288984 180.42383129 258.38067316 162.24647249 209.27734375 137.59375 C208.51883135 137.213365 207.76031896 136.83297999 206.97882134 136.44106817 C187.30810789 126.56741145 167.80419625 116.38351102 148.34961569 106.09188557 C137.04590964 100.11581462 125.7009682 94.22439146 114.32495117 88.38720703 C113.515847 87.97201465 112.70674284 87.55682226 111.87312036 87.12904829 C107.8110489 85.04513192 103.74828235 82.96257487 99.6851691 80.88069057 C66.34624863 63.79608711 33.13776885 46.47118405 0 29 C0 19.43 0 9.86 0 0 Z " fill="#C6112F" transform="translate(0,0)"/>
<path d="M0 0 C10.13678245 -0.18670778 20.27314509 -0.32818072 30.41130733 -0.41449738 C35.12077714 -0.45596028 39.82905677 -0.5120449 44.5378418 -0.60351562 C49.09618593 -0.69149318 53.65339766 -0.73849034 58.21252632 -0.75901794 C59.93750365 -0.7736145 61.66243051 -0.80210974 63.38691521 -0.84584045 C74.40897007 -1.11380919 82.7425307 0.23409302 92.47737789 5.54631901 C107.53387795 13.71901358 122.79605728 21.47099681 138.12109375 29.12524414 C140.26686695 30.19881016 142.41255536 31.27254567 144.5581665 32.34643555 C150.32059492 35.22990605 156.08426313 38.11088972 161.84823227 40.99127889 C165.45298886 42.79276208 169.05731661 44.59510206 172.66152954 46.39767265 C173.26311781 46.69854341 173.86470609 46.99941416 174.48452431 47.30940221 C175.70710485 47.92085236 176.92968451 48.5323043 178.15226328 49.14375799 C189.55018145 54.84413474 200.94931316 60.54208116 212.34887755 66.23916494 C222.12612207 71.12554465 231.90230553 76.01404175 241.67773438 80.90405273 C253.06480838 86.60026371 264.45252802 92.2951806 275.84128666 97.98802274 C277.05403284 98.59423657 278.26677819 99.20045206 279.47952271 99.80666924 C280.07607184 100.10486667 280.67262098 100.4030641 281.28724736 100.71029781 C285.48881381 102.81064949 289.68991574 104.91192843 293.89083862 107.01356697 C299.53057038 109.83487265 305.17127009 112.65423341 310.81273651 115.47206879 C312.88559052 116.50783275 314.95810161 117.54428332 317.03025055 118.58145714 C319.84957142 119.99247596 322.67010249 121.40104515 325.4909668 122.80897522 C326.31749473 123.22335455 327.14402266 123.63773387 327.99559689 124.06467015 C328.74923299 124.44018432 329.50286909 124.8156985 330.27934265 125.2025919 C330.93013637 125.52790758 331.58093008 125.85322326 332.25144482 126.18839699 C334.17325837 127.12029396 334.17325837 127.12029396 337 128 C337 139.55 337 151.1 337 163 C322.375 163 322.375 163 317.34035015 160.46998596 C316.18584635 159.90567588 315.03134256 159.3413658 313.8418538 158.75995541 C312.60646073 158.12372299 311.37131752 157.48700521 310.13639832 156.84985352 C308.78984574 156.17941702 307.44215095 155.51127064 306.0934332 154.84520054 C302.41674346 153.02129865 298.7569411 151.1656174 295.09921825 149.30403566 C291.14227284 147.29736768 287.1702374 145.32098297 283.19999695 143.34078979 C276.33206751 139.9102255 269.4738805 136.46082105 262.62203026 132.9982605 C252.71556226 127.99209333 242.79477797 123.01486898 232.87031881 118.04448283 C216.76714763 109.97868796 200.67571463 101.88975999 184.59155273 93.78613281 C168.97169256 85.91649557 153.34638227 78.05785195 137.71362305 70.21386719 C136.74925189 69.7299739 135.78488072 69.24608062 134.79128619 68.7475239 C129.95305515 66.31992535 125.11471625 63.89254186 120.27632368 61.46526527 C80.16743947 41.3434918 40.07754831 21.1841065 0 1 C0 0.67 0 0.34 0 0 Z " fill="#C5112F" transform="translate(723,349)"/>
<path d="M0 0 C71.28 0 142.56 0 216 0 C216 35.64 216 71.28 216 108 C209.25 105.75 209.25 105.75 205.9820652 104.11408043 C205.23860584 103.7443418 204.49514648 103.37460316 203.72915804 102.99366033 C202.92953595 102.59093644 202.12991386 102.18821255 201.30606079 101.77328491 C200.01205197 101.12756214 200.01205197 101.12756214 198.69190156 100.46879447 C195.80652167 99.02774946 192.92403526 97.58101085 190.04150391 96.13427734 C187.97185154 95.09916905 185.90202289 94.06441317 183.83203125 93.02998352 C178.2150662 90.22178804 172.60058233 87.40866434 166.98652697 84.59465742 C161.11829253 81.65429124 155.24779404 78.7184524 149.37753296 75.78213501 C139.52555912 70.85355916 129.67512004 65.92192576 119.82568359 60.98828125 C109.68209154 55.90730193 99.53765807 50.82800885 89.39208984 45.75097656 C88.76639711 45.43786747 88.14070438 45.12475839 87.49605127 44.80216114 C84.35703389 43.23134739 81.21799996 41.66056672 78.0789578 40.0898025 C52.05007009 27.06499709 26.02411597 14.03433686 0 1 C0 0.67 0 0.34 0 0 Z " fill="#022268" transform="translate(844,349)"/>
<path d="M0 0 C0 35.64 0 71.28 0 108 C-71.28 108 -142.56 108 -216 108 C-213.27742164 105.95806623 -211.17907598 104.4644495 -208.23374748 102.9910326 C-207.49550362 102.61930292 -206.75725975 102.24757324 -205.99664485 101.86457902 C-204.79051955 101.26486245 -204.79051955 101.26486245 -203.56002808 100.6530304 C-202.70047551 100.22169412 -201.84092295 99.79035785 -200.95532334 99.34595078 C-198.07220748 97.9004015 -195.18626319 96.46059314 -192.30029297 95.02075195 C-190.23384252 93.98617189 -188.16756244 92.95125145 -186.10144043 91.91601562 C-180.48789179 89.1046776 -174.87181967 86.29841592 -169.25517797 83.49326348 C-163.38524102 80.56082312 -157.51725362 77.62448619 -151.6489563 74.68876648 C-141.16490868 69.44460608 -130.67868713 64.20480593 -120.19175161 58.96642347 C-110.67686487 54.2134511 -101.16408715 49.45628019 -91.65283203 44.69604492 C-80.61091233 39.16973836 -69.56765877 33.64611196 -58.52241623 28.12644929 C-52.67422675 25.20391685 -46.8265894 22.2802936 -40.98034286 19.35387611 C-35.48780879 16.60473041 -29.99334784 13.8594755 -24.49734497 11.11727142 C-22.47533572 10.10759424 -20.45401368 9.09653953 -18.43341446 8.0840435 C-15.6861029 6.70767572 -12.93640183 5.33620743 -10.18600464 3.96601868 C-9.37745966 3.55951546 -8.56891468 3.15301225 -7.73586833 2.73419076 C-2.22830048 0 -2.22830048 0 0 0 Z " fill="#022268" transform="translate(1060,60)"/>
<path d="M0 0 C-4.71340576 3.34524014 -9.5634002 5.78986877 -14.8125 8.1875 C-21.13954397 11.12645098 -27.36221124 14.18396585 -33.5 17.5 C-40.2272704 21.12565465 -47.06075698 24.45301832 -53.97998047 27.6953125 C-64.57416427 32.66248547 -74.999769 37.91069567 -85.3125 43.4375 C-92.07908253 47.0629555 -98.95632682 50.3823771 -105.91333008 53.62475586 C-111.19517274 56.1020137 -116.36568711 58.73093238 -121.5 61.5 C-128.20156776 65.11432868 -135.01356241 68.40923297 -141.9140625 71.625 C-147.19558502 74.10232653 -152.36591332 76.73105437 -157.5 79.5 C-164.20156776 83.11432868 -171.01356241 86.40923297 -177.9140625 89.625 C-183.1955992 92.10233317 -188.36579077 94.73126514 -193.5 97.5 C-200.22759013 101.12509514 -207.06072135 104.45300162 -213.97998047 107.6953125 C-224.57416427 112.66248547 -234.999769 117.91069567 -245.3125 123.4375 C-252.07908253 127.0629555 -258.95632682 130.3823771 -265.91333008 133.62475586 C-271.90626977 136.43552812 -277.74432585 139.47321267 -283.56835938 142.61621094 C-289.71517395 145.90812052 -295.98637239 148.90041761 -302.31835938 151.81835938 C-307.00276388 153.9913686 -311.45165759 156.36001837 -315.859375 159.05566406 C-318.38134173 160.16822876 -320.27238003 160.17047625 -323 160 C-320.01672736 157.62509462 -316.98763315 155.86725848 -313.58109951 154.16051865 C-312.47423241 153.6035523 -311.36736531 153.04658596 -310.22695678 152.47274184 C-308.9988712 151.85982468 -307.77074663 151.24698564 -306.54258728 150.63421631 C-305.23766833 149.97953052 -303.93292212 149.32450035 -302.62833411 148.66915536 C-299.0420731 146.86893168 -295.45332004 145.07372674 -291.8641299 143.27935171 C-287.9942481 141.34358704 -284.1266555 139.40325826 -280.25874329 137.46356201 C-271.80255231 133.22404182 -263.34337955 128.99049523 -254.88362575 124.75809002 C-249.60453172 122.11691522 -244.32609204 119.47443465 -239.04779243 116.83167267 C-224.44086918 109.51843005 -209.83331619 102.20644963 -195.22305965 94.89986801 C-194.28818967 94.43233923 -193.35331968 93.96481046 -192.3901203 93.48311414 C-190.4948488 92.53529526 -188.59957679 91.58747741 -186.70430427 90.63966057 C-185.76346345 90.16914875 -184.82262263 89.69863694 -183.85327148 89.21386719 C-182.44029349 88.50724278 -182.44029349 88.50724278 -180.99877048 87.78634313 C-165.71681847 80.14359423 -150.43958969 72.49145509 -135.16440742 64.83518621 C-119.49135774 56.97965 -103.81459926 49.13155931 -88.13399798 41.29110742 C-79.32585162 36.88674136 -70.5193287 32.4791956 -61.71684074 28.06352997 C-54.22591863 24.30585258 -46.7316304 20.55499906 -39.23279732 16.81313202 C-35.40410837 14.90238797 -31.57713734 12.98838936 -27.7544136 11.06573486 C-24.25950498 9.3080548 -20.76016855 7.55955263 -17.25697238 5.81845167 C-15.98611577 5.18478406 -14.71696375 4.54768464 -13.4496591 3.90694281 C-11.73539309 3.0408343 -10.01440463 2.18806888 -8.29305935 1.33611679 C-7.33643381 0.85739679 -6.37980826 0.37867679 -5.39419407 -0.11454988 C-3 -1 -3 -1 0 0 Z " fill="#B72E45" transform="translate(979,1)"/>
<path d="M0 0 C1.98 0.495 1.98 0.495 4 1 C-12.03763119 9.45451956 -28.09283757 17.87542904 -44.16088867 26.27197266 C-45.21541393 26.82304227 -45.21541393 26.82304227 -46.29124272 27.38524461 C-74.19386653 41.96348094 -102.18243526 56.37157074 -130.21754367 70.69324372 C-134.68918485 72.97772011 -139.16011936 75.26357622 -143.63061523 77.55029297 C-144.51999522 78.00519263 -145.40937521 78.46009229 -146.3257061 78.92877679 C-160.6158494 86.24212173 -174.84435889 93.66806124 -189.05241664 101.13938792 C-203.76779055 108.87414969 -218.54545358 116.47887561 -233.3835066 123.97562826 C-241.66266544 128.16286943 -249.90696058 132.39791373 -258.0819912 136.7854805 C-307.11325781 163.04866699 -347.5257488 169.90763317 -403 165 C-400.59481455 162.47379893 -398.54315306 161.17031071 -395.3125 159.8125 C-394.50425781 159.46832031 -393.69601562 159.12414062 -392.86328125 158.76953125 C-392.24839844 158.51558594 -391.63351562 158.26164063 -391 158 C-391.8125 159.9375 -391.8125 159.9375 -393 162 C-393.99 162.33 -394.98 162.66 -396 163 C-386.76790865 163.11621345 -377.53607183 163.20487617 -368.30340672 163.25906086 C-364.01556492 163.2850763 -359.72822617 163.32032502 -355.44067383 163.37719727 C-351.29739933 163.43180736 -347.1546065 163.46148102 -343.01099968 163.47438622 C-341.43581505 163.48357445 -339.86065467 163.50151665 -338.28567696 163.52865028 C-326.89319333 163.77066374 -326.89319333 163.77066374 -316.67710876 159.07658386 C-315 158 -315 158 -312 158 C-312 157.34 -312 156.68 -312 156 C-310.783125 155.566875 -309.56625 155.13375 -308.3125 154.6875 C-305.71089778 153.72224123 -303.58499698 152.75099819 -301.1875 151.3125 C-299 150 -299 150 -296 150 C-296 149.34 -296 148.68 -296 148 C-293.09399739 146.74335022 -291.20395416 146 -288 146 C-288 145.34 -288 144.68 -288 144 C-285.09399739 142.74335022 -283.20395416 142 -280 142 C-280 141.34 -280 140.68 -280 140 C-278.783125 139.566875 -277.56625 139.13375 -276.3125 138.6875 C-273.71089778 137.72224123 -271.58499698 136.75099819 -269.1875 135.3125 C-267 134 -267 134 -264 134 C-264 133.34 -264 132.68 -264 132 C-261.09399739 130.74335022 -259.20395416 130 -256 130 C-256 129.34 -256 128.68 -256 128 C-253.09399739 126.74335022 -251.20395416 126 -248 126 C-248 125.34 -248 124.68 -248 124 C-246.783125 123.566875 -245.56625 123.13375 -244.3125 122.6875 C-241.71089778 121.72224123 -239.58499698 120.75099819 -237.1875 119.3125 C-235 118 -235 118 -232 118 C-232 117.34 -232 116.68 -232 116 C-229.09399739 114.74335022 -227.20395416 114 -224 114 C-224 113.34 -224 112.68 -224 112 C-221.09399739 110.74335022 -219.20395416 110 -216 110 C-216 109.34 -216 108.68 -216 108 C-214.783125 107.566875 -213.56625 107.13375 -212.3125 106.6875 C-209.71089778 105.72224123 -207.58499698 104.75099819 -205.1875 103.3125 C-203 102 -203 102 -200 102 C-200 101.34 -200 100.68 -200 100 C-197.09399739 98.74335022 -195.20395416 98 -192 98 C-192 97.34 -192 96.68 -192 96 C-189.09399739 94.74335022 -187.20395416 94 -184 94 C-184 93.34 -184 92.68 -184 92 C-182.783125 91.566875 -181.56625 91.13375 -180.3125 90.6875 C-177.71089778 89.72224123 -175.58499698 88.75099819 -173.1875 87.3125 C-171 86 -171 86 -168 86 C-168 85.34 -168 84.68 -168 84 C-165.09399739 82.74335022 -163.20395416 82 -160 82 C-160 81.34 -160 80.68 -160 80 C-157.09399739 78.74335022 -155.20395416 78 -152 78 C-152 77.34 -152 76.68 -152 76 C-150.783125 75.566875 -149.56625 75.13375 -148.3125 74.6875 C-145.71089778 73.72224123 -143.58499698 72.75099819 -141.1875 71.3125 C-139 70 -139 70 -136 70 C-136 69.34 -136 68.68 -136 68 C-133.09399739 66.74335022 -131.20395416 66 -128 66 C-128 65.34 -128 64.68 -128 64 C-125.09399739 62.74335022 -123.20395416 62 -120 62 C-120 61.34 -120 60.68 -120 60 C-118.783125 59.566875 -117.56625 59.13375 -116.3125 58.6875 C-113.71089778 57.72224123 -111.58499698 56.75099819 -109.1875 55.3125 C-107 54 -107 54 -104 54 C-104 53.34 -104 52.68 -104 52 C-101.09399739 50.74335022 -99.20395416 50 -96 50 C-96 49.34 -96 48.68 -96 48 C-93.09399739 46.74335022 -91.20395416 46 -88 46 C-88 45.34 -88 44.68 -88 44 C-86.783125 43.566875 -85.56625 43.13375 -84.3125 42.6875 C-81.71089778 41.72224123 -79.58499698 40.75099819 -77.1875 39.3125 C-75 38 -75 38 -72 38 C-72 37.34 -72 36.68 -72 36 C-69.09399739 34.74335022 -67.20395416 34 -64 34 C-64 33.34 -64 32.68 -64 32 C-61.09399739 30.74335022 -59.20395416 30 -56 30 C-56 29.34 -56 28.68 -56 28 C-54.783125 27.566875 -53.56625 27.13375 -52.3125 26.6875 C-49.71089778 25.72224123 -47.58499698 24.75099819 -45.1875 23.3125 C-43 22 -43 22 -40 22 C-40 21.34 -40 20.68 -40 20 C-37.09399739 18.74335022 -35.20395416 18 -32 18 C-32 17.34 -32 16.68 -32 16 C-29.09399739 14.74335022 -27.20395416 14 -24 14 C-24 13.34 -24 12.68 -24 12 C-22.783125 11.566875 -21.56625 11.13375 -20.3125 10.6875 C-17.71089778 9.72224123 -15.58499698 8.75099819 -13.1875 7.3125 C-11 6 -11 6 -8 6 C-8 5.34 -8 4.68 -8 4 C-5.09399739 2.74335022 -3.20395416 2 0 2 C0 1.34 0 0.68 0 0 Z " fill="#B12C42" transform="translate(1046,3)"/>
<path d="M0 0 C0.66 0 1.32 0 2 0 C2 49.5 2 99 2 150 C2.99 150.33 3.98 150.66 5 151 C3.35 151.33 1.7 151.66 0 152 C0 101.84 0 51.68 0 0 Z " fill="#273D67" transform="translate(631,0)"/>
<path d="M0 0 C4.66647855 0.12475234 9.33378493 0.17797851 14.00146484 0.23803711 C23.09211897 0.36514433 32.17918945 0.56877887 41.26708984 0.82397461 C36.51708984 4.82397461 36.51708984 4.82397461 34.26708984 4.82397461 C34.26708984 3.83397461 34.26708984 2.84397461 34.26708984 1.82397461 C25.26090861 1.88530633 16.2550412 1.96249879 7.24917507 2.05968952 C3.06693402 2.10433098 -1.11521103 2.14360058 -5.29760742 2.17041016 C-9.33728161 2.19650559 -13.37658508 2.23695146 -17.41602898 2.28716087 C-18.9536673 2.30378756 -20.49136969 2.31532792 -22.02908516 2.32158852 C-24.19059827 2.33127583 -26.35117196 2.35938761 -28.51245117 2.39160156 C-30.35444847 2.40825615 -30.35444847 2.40825615 -32.23365784 2.42524719 C-37.73225602 3.05179299 -42.20772088 5.4314275 -47.02978516 8.08569336 C-48.12613281 8.68027344 -48.12613281 8.68027344 -49.24462891 9.28686523 C-50.75377818 10.11255162 -52.26156478 10.94073293 -53.76806641 11.77124023 C-54.49380859 12.16375977 -55.21955078 12.5562793 -55.96728516 12.96069336 C-56.61922852 13.3186499 -57.27117187 13.67660645 -57.94287109 14.04541016 C-59.73291016 14.82397461 -59.73291016 14.82397461 -62.73291016 14.82397461 C-62.73291016 14.16397461 -62.73291016 13.50397461 -62.73291016 12.82397461 C-42.68471612 -1.31972286 -23.58409691 -0.69908352 0 0 Z " fill="#9B253B" transform="translate(397.73291015625,348.176025390625)"/>
<path d="M0 0 C3.63 1.65 7.26 3.3 11 5 C11 5.33 11 5.66 11 6 C0.57715422 6.09285808 -9.84559244 6.16384514 -20.26876831 6.20724869 C-25.10917823 6.22808485 -29.94930423 6.25632966 -34.78955078 6.30175781 C-39.46447524 6.34535758 -44.13912734 6.36916696 -48.8142395 6.37950897 C-50.59396652 6.38687504 -52.37367936 6.40125922 -54.15328979 6.42292023 C-56.65459906 6.45214278 -59.15479632 6.45594825 -61.65625 6.45410156 C-62.38489761 6.46848267 -63.11354523 6.48286377 -63.86427307 6.49768066 C-69.47943688 6.4530974 -73.12363393 4.76391868 -78 2 C-76.14383984 1.41184521 -76.14383984 1.41184521 -74 1 C-73.24052567 1.46545731 -72.48105133 1.93091461 -71.69856262 2.41047668 C-68.23098205 4.4529715 -65.83341137 4.39725559 -61.82299805 4.43237305 C-61.12001083 4.4425647 -60.41702362 4.45275635 -59.69273376 4.46325684 C-57.38231359 4.49331367 -55.0723085 4.5026412 -52.76171875 4.51171875 C-51.1545932 4.52857093 -49.54748079 4.5467219 -47.94038391 4.56611633 C-43.7203685 4.61356421 -39.50040637 4.64340713 -35.2802124 4.66955566 C-30.96990438 4.69938759 -26.65977982 4.74590886 -22.34960938 4.79101562 C-13.89982983 4.8769894 -5.45003348 4.94436086 3 5 C3 4.34 3 3.68 3 3 C2.01 2.67 1.02 2.34 0 2 C0 1.34 0 0.68 0 0 Z " fill="#AC233A" transform="translate(348,162)"/>
<path d="M0 0 C0 0.99 0 1.98 0 3 C-1.98 3.99 -1.98 3.99 -4 5 C20.42 5 44.84 5 70 5 C69.67 5.66 69.34 6.32 69 7 C42.6 7 16.2 7 -11 7 C-8.42355713 4.42355713 -6.96726521 3.31230641 -3.8125 1.8125 C-2.73935547 1.29623047 -2.73935547 1.29623047 -1.64453125 0.76953125 C-1.10183594 0.51558594 -0.55914063 0.26164063 0 0 Z " fill="#AB1D35" transform="translate(654,161)"/>
<path d="M0 0 C26.4 0 52.8 0 80 0 C80 0.33 80 0.66 80 1 C55.91 1 31.82 1 7 1 C6.67 1.99 6.34 2.98 6 4 C4.02 3.01 2.04 2.02 0 1 C0 0.67 0 0.34 0 0 Z " fill="#9A243A" transform="translate(723,349)"/>
<path d="M0 0 C0 0.99 0 1.98 0 3 C-7.22155783 6.88701337 -14.45055109 10.76082152 -21.75 14.5 C-22.69359375 14.9846875 -23.6371875 15.469375 -24.609375 15.96875 C-27 17 -27 17 -30 17 C-30 16.34 -30 15.68 -30 15 C-20.1 10.05 -10.2 5.1 0 0 Z " fill="#B3283F" transform="translate(77,490)"/>
<path d="M0 0 C0 0.99 0 1.98 0 3 C-7.22155783 6.88701337 -14.45055109 10.76082152 -21.75 14.5 C-22.69359375 14.9846875 -23.6371875 15.469375 -24.609375 15.96875 C-27 17 -27 17 -30 17 C-30 16.34 -30 15.68 -30 15 C-20.1 10.05 -10.2 5.1 0 0 Z " fill="#B3283F" transform="translate(109,474)"/>
<path d="M0 0 C0 0.99 0 1.98 0 3 C-7.22155783 6.88701337 -14.45055109 10.76082152 -21.75 14.5 C-22.69359375 14.9846875 -23.6371875 15.469375 -24.609375 15.96875 C-27 17 -27 17 -30 17 C-30 16.34 -30 15.68 -30 15 C-20.1 10.05 -10.2 5.1 0 0 Z " fill="#B3283F" transform="translate(141,458)"/>
<path d="M0 0 C0 0.99 0 1.98 0 3 C-7.22155783 6.88701337 -14.45055109 10.76082152 -21.75 14.5 C-22.69359375 14.9846875 -23.6371875 15.469375 -24.609375 15.96875 C-27 17 -27 17 -30 17 C-30 16.34 -30 15.68 -30 15 C-20.1 10.05 -10.2 5.1 0 0 Z " fill="#B3283F" transform="translate(173,442)"/>
<path d="M0 0 C0 0.99 0 1.98 0 3 C-7.22155783 6.88701337 -14.45055109 10.76082152 -21.75 14.5 C-22.69359375 14.9846875 -23.6371875 15.469375 -24.609375 15.96875 C-27 17 -27 17 -30 17 C-30 16.34 -30 15.68 -30 15 C-20.1 10.05 -10.2 5.1 0 0 Z " fill="#B3283F" transform="translate(205,426)"/>
<path d="M0 0 C0 0.99 0 1.98 0 3 C-7.22155783 6.88701337 -14.45055109 10.76082152 -21.75 14.5 C-22.69359375 14.9846875 -23.6371875 15.469375 -24.609375 15.96875 C-27 17 -27 17 -30 17 C-30 16.34 -30 15.68 -30 15 C-20.1 10.05 -10.2 5.1 0 0 Z " fill="#B3283F" transform="translate(237,410)"/>
<path d="M0 0 C0 0.99 0 1.98 0 3 C-7.22155783 6.88701337 -14.45055109 10.76082152 -21.75 14.5 C-22.69359375 14.9846875 -23.6371875 15.469375 -24.609375 15.96875 C-27 17 -27 17 -30 17 C-30 16.34 -30 15.68 -30 15 C-20.1 10.05 -10.2 5.1 0 0 Z " fill="#B3283F" transform="translate(269,394)"/>
<path d="M0 0 C0 0.99 0 1.98 0 3 C-7.22155783 6.88701337 -14.45055109 10.76082152 -21.75 14.5 C-22.69359375 14.9846875 -23.6371875 15.469375 -24.609375 15.96875 C-27 17 -27 17 -30 17 C-30 16.34 -30 15.68 -30 15 C-20.1 10.05 -10.2 5.1 0 0 Z " fill="#B3283F" transform="translate(301,378)"/>
<path d="M0 0 C0 0.99 0 1.98 0 3 C-7.22155783 6.88701337 -14.45055109 10.76082152 -21.75 14.5 C-22.69359375 14.9846875 -23.6371875 15.469375 -24.609375 15.96875 C-27 17 -27 17 -30 17 C-30 16.34 -30 15.68 -30 15 C-20.1 10.05 -10.2 5.1 0 0 Z " fill="#B3283F" transform="translate(333,362)"/>
<path d="M0 0 C-0.5878125 0.28359375 -1.175625 0.5671875 -1.78125 0.859375 C-3.78717043 1.89058762 -5.6179569 3.01181375 -7.5 4.25 C-21.36940299 13 -21.36940299 13 -27 13 C-27 12.34 -27 11.68 -27 11 C-23.44580541 9.15022665 -19.88041341 7.32315224 -16.3125 5.5 C-15.30509766 4.97535156 -14.29769531 4.45070313 -13.25976562 3.91015625 C-12.28330078 3.41386719 -11.30683594 2.91757812 -10.30078125 2.40625 C-9.40528564 1.94541016 -8.50979004 1.48457031 -7.5871582 1.00976562 C-4.85433982 -0.05685104 -2.90491366 -0.20144397 0 0 Z " fill="#B3273F" transform="translate(362,350)"/>
<path d="M0 0 C0 0.99 0 1.98 0 3 C-2.98055586 5.42603384 -5.00323092 6.91332443 -8.875 7.25 C-9.57625 7.1675 -10.2775 7.085 -11 7 C-8.81482901 4.59424393 -6.74080329 3.20464419 -3.8125 1.8125 C-2.73935547 1.29623047 -2.73935547 1.29623047 -1.64453125 0.76953125 C-1.10183594 0.51558594 -0.55914063 0.26164063 0 0 Z " fill="#B33046" transform="translate(654,161)"/>
<path d="M0 0 C3.96 0 7.92 0 12 0 C12 0.33 12 0.66 12 1 C10.35 1 8.7 1 7 1 C6.67 1.99 6.34 2.98 6 4 C4.02 3.01 2.04 2.02 0 1 C0 0.67 0 0.34 0 0 Z " fill="#9F2E42" transform="translate(723,349)"/>
<path d="M0 0 C-0.66 1.32 -1.32 2.64 -2 4 C-3.98 4 -5.96 4 -8 4 C-2.7826087 0 -2.7826087 0 0 0 Z " fill="#1D366A" transform="translate(164,508)"/>
<path d="M0 0 C-5.75 4 -5.75 4 -8 4 C-7 1 -7 1 -5.125 -0.25 C-3 -1 -3 -1 0 0 Z " fill="#BA273F" transform="translate(979,1)"/>
</svg>
