<?xml version="1.0" encoding="UTF-8"?>
<svg version="1.1" xmlns="http://www.w3.org/2000/svg" width="790" height="798">
<path d="M0 0 C260.7 0 521.4 0 790 0 C790 263.34 790 526.68 790 798 C529.3 798 268.6 798 0 798 C0 534.66 0 271.32 0 0 Z " fill="#F7F6F6" transform="translate(0,0)"/>
<path d="M0 0 C1.16789062 0.144375 2.33578125 0.28875 3.5390625 0.4375 C6.70950929 0.88698106 9.84902385 1.42972024 13 2 C14.13139404 2.18900879 14.13139404 2.18900879 15.28564453 2.38183594 C27.330493 4.39434583 38.59975067 7.27020203 50.09912109 11.35546875 C52.67917123 12.23028667 55.2947986 12.90462808 57.9375 13.5625 C62.59510586 14.77475358 66.75393149 16.60061907 71.08984375 18.671875 C75.35489472 20.61834121 79.74603513 22.19358259 84.15234375 23.7890625 C86.83527259 24.92995131 88.72115719 26.2188916 91 28 C92.98014432 28.72351427 94.97821315 29.40265389 97 30 C97 30.66 97 31.32 97 32 C97.56589844 32.12117188 98.13179687 32.24234375 98.71484375 32.3671875 C99.44832031 32.53476563 100.18179687 32.70234375 100.9375 32.875 C101.66839844 33.03742188 102.39929688 33.19984375 103.15234375 33.3671875 C105 34 105 34 106 36 C108.30965848 37.05352843 110.6429774 38.05719096 113 39 C113 39.66 113 40.32 113 41 C114.2375 41.309375 114.2375 41.309375 115.5 41.625 C119.25916871 43.10181628 121.75731963 44.99466488 124.8984375 47.46875 C128.07269393 49.78159111 131.4430545 51.34856102 135 53 C135 53.66 135 54.32 135 55 C135.53625 55.2475 136.0725 55.495 136.625 55.75 C141.91255892 58.53292575 146.50036248 62.10174601 151 66 C151.98033203 66.84111328 151.98033203 66.84111328 152.98046875 67.69921875 C156.02885364 70.33581431 159.02090835 72.96569063 161.8125 75.875 C163.89583664 78.20650404 163.89583664 78.20650404 167 79 C167 79.66 167 80.32 167 81 C167.66 81 168.32 81 169 81 C170.48046875 82.5390625 170.48046875 82.5390625 172.1875 84.625 C174.49816385 87.35752779 176.7751151 89.7577037 179.5625 92 C182.80822806 94.66353469 185.1489221 97.6344761 187.54296875 101.0703125 C189.19193985 103.25420452 191.06047423 105.07159962 193 107 C196.97954367 111.79988819 200.5434761 116.81521415 204 122 C205.75109747 124.26874292 207.52559734 126.51639223 209.31640625 128.75390625 C211.06468324 131.08629435 212.52514113 133.48727749 214 136 C215.01840877 137.56408137 216.0394127 139.12647491 217.0625 140.6875 C223.5982722 150.95005295 230.04662539 161.57743711 234.20703125 173.04296875 C235.03450645 175.2784334 235.03450645 175.2784334 237.0625 178.0625 C239.56127107 181.85095936 240.69439711 185.68366258 242 190 C242.49386256 191.5436437 242.99378229 193.08536376 243.5 194.625 C243.82484375 195.63433594 243.82484375 195.63433594 244.15625 196.6640625 C244.83779171 198.55092335 245.61737131 200.40219401 246.42578125 202.23828125 C248.16787866 206.25684856 249.45236635 210.3645382 250.6875 214.5625 C250.91244141 215.29146484 251.13738281 216.02042969 251.36914062 216.77148438 C252.61197892 220.96842464 253.25873715 224.57349689 253 229 C253.66 229 254.32 229 255 229 C255.82136372 234.11826271 256.63904192 239.2370972 257.45361328 244.35644531 C257.72999603 246.09032273 258.00730776 247.82405237 258.28564453 249.55761719 C259.09322098 254.58966397 259.88341859 259.62387718 260.64572144 264.66299438 C260.86976469 266.14090019 261.0969948 267.61832948 261.3286438 269.09506226 C263.01153341 279.94927279 263.2807939 290.58494271 263.20581055 301.54711914 C263.18740778 304.32642733 263.18530279 307.10540239 263.18554688 309.88476562 C263.16342291 321.18506916 262.93889942 332.17554387 260.53125 343.2578125 C259.6757046 347.67393656 259.18586076 352.13953235 258.66015625 356.60546875 C257.92631077 360.3789109 256.51971264 363.47597246 255 367 C254.41375204 369.52738009 253.89268537 372.07075978 253.4375 374.625 C252.64836886 379.02095089 251.72052467 382.88835246 250 387 C249.53286118 388.76324651 249.09729382 390.53505071 248.6875 392.3125 C246.82767145 399.99148284 244.41397 407.48138987 242 415 C241.34 415 240.68 415 240 415 C239.34 417.64 238.68 420.28 238 423 C237.34 423 236.68 423 236 423 C235.91105469 423.83273437 235.82210937 424.66546875 235.73046875 425.5234375 C234.86083769 429.66232329 233.26644418 432.90457491 231.3125 436.625 C230.58976328 438.03381289 229.86710791 439.44266751 229.14453125 440.8515625 C228.6043335 441.89425293 228.6043335 441.89425293 228.05322266 442.95800781 C226.50607785 445.95761819 225.00364665 448.97835208 223.5 452 C222.66666667 453.66666667 221.83333333 455.33333333 221 457 C220.34 457 219.68 457 219 457 C217.30584376 467.52016376 216.27540587 479.15526433 221 489 C221.4125 489.886875 221.825 490.77375 222.25 491.6875 C224.29790094 494.39365481 226.62195728 496.32309276 229.2421875 498.4609375 C231 500 231 500 233.5 503.0625 C235.57751401 505.50357897 237.0416297 506.83304708 239.625 508.5625 C242.76697537 510.67962503 244.07736524 512.71549896 246 516 C248.72388347 518.63985622 251.69751143 520.98158087 254.68359375 523.31640625 C257.14239481 525.27241008 258.94556417 526.9085478 260.5625 529.625 C261.85485147 532.17764507 261.85485147 532.17764507 264.5 533.5 C267 535 267 535 268.375 537.3125 C270.87213194 541.44237205 274.66423077 544.83211538 279 547 C280.0064275 548.66279327 281.00585407 550.32983484 282 552 C282.48726562 552.48082031 282.97453125 552.96164062 283.4765625 553.45703125 C292.59051846 562.6878328 293.65042384 578.66786035 293.6171875 590.86767578 C293.23727762 602.29465249 288.90489958 612.18665433 281.375 620.875 C280 622 280 622 278 622 C277.34 623.32 276.68 624.64 276 626 C275.01 626 274.02 626 273 626 C272.67 626.99 272.34 627.98 272 629 C260.34187925 637.10226693 244.89878384 639.77164046 231 638 C218.23469843 635.24851531 207.99955934 628.18125734 200 618 C199.195625 617.525625 198.39125 617.05125 197.5625 616.5625 C194.49218272 614.69035531 192.6712301 612.45305791 190.40234375 609.69921875 C187.84142976 606.59616141 185.08487257 604.06755163 181.9375 601.5625 C179 599 179 599 177.5625 596.5625 C175.66330524 593.44782059 173.35120745 591.59305406 170.5234375 589.33203125 C169 588 169 588 168 586 C167.01 585.67 166.02 585.34 165 585 C164.5875 584.278125 164.175 583.55625 163.75 582.8125 C161.78154254 579.64890766 159.61196805 577.86441154 156.75 575.5390625 C155 574 155 574 152.625 570.9375 C149.2403665 567.14993394 145.50754743 565.22555115 141 563 C140.41605469 562.63261719 139.83210938 562.26523437 139.23046875 561.88671875 C133.03975799 559.42561307 123.70026969 559.93427905 117.328125 561.76953125 C114.7870544 563.044572 112.42170765 564.50870319 110 566 C106.76885399 567.74444025 103.50733714 569.43010035 100.25 571.125 C98.62977947 571.98095954 97.00997092 572.83769947 95.390625 573.6953125 C92.85166952 575.03609707 90.30793336 576.342722 87.734375 577.6171875 C84.99398504 578.95218215 84.99398504 578.95218215 82.4921875 580.5625 C79.75780343 582.13969959 77.13582705 583.0615604 74.125 584 C70.82946979 585.05841846 67.68449876 586.13521482 64.5 587.5 C59.44298724 589.66729118 54.22742783 591.29513145 49 593 C48.33460205 593.23847656 47.6692041 593.47695313 46.98364258 593.72265625 C40.33745476 596.06430304 33.66023218 597.28149618 26.72851562 598.4609375 C22.72177645 599.1761126 18.98916487 599.90480285 15.23046875 601.48828125 C9.36415449 603.82480797 3.10268438 604.41715013 -3.125 605.1875 C-3.81273499 605.27338379 -4.50046997 605.35926758 -5.20904541 605.44775391 C-38.78853055 609.51787839 -72.33927913 607.09953413 -105.46337891 600.67700195 C-108.63614274 600.06965182 -111.81132932 599.51631064 -115 599 C-115 598.34 -115 597.68 -115 597 C-116.134375 596.938125 -117.26875 596.87625 -118.4375 596.8125 C-123.31426543 596.27837807 -127.87388728 595.01242055 -132.5625 593.625 C-133.62392212 593.31139526 -133.62392212 593.31139526 -134.70678711 592.99145508 C-138.92726889 591.71129274 -143.04901616 590.25773049 -147.16772461 588.68261719 C-149.58184935 587.78323108 -152.02738929 587.03367812 -154.5 586.3125 C-155.78390625 585.93544922 -155.78390625 585.93544922 -157.09375 585.55078125 C-157.7228125 585.36902344 -158.351875 585.18726563 -159 585 C-159 584.34 -159 583.68 -159 583 C-159.78375 582.938125 -160.5675 582.87625 -161.375 582.8125 C-177.42136276 579.21590145 -196.10285268 566.4345545 -208.9921875 556.44140625 C-211.79102646 554.43212303 -214.76557777 552.85028714 -217.82421875 551.2734375 C-220.44008571 549.7424274 -222.65521603 547.92098598 -225 546 C-229.08486246 542.89024084 -229.08486246 542.89024084 -233.18359375 539.79882812 C-236.73660056 537.09436294 -239.8770528 534.20581147 -243 531 C-244.38215518 529.7348922 -245.77687022 528.48327787 -247.1875 527.25 C-247.86167969 526.65703125 -248.53585938 526.0640625 -249.23046875 525.453125 C-250.94668032 523.93415284 -250.94668032 523.93415284 -253 523 C-253 522.34 -253 521.68 -253 521 C-254.32 520.34 -255.64 519.68 -257 519 C-257 518.34 -257 517.68 -257 517 C-257.66 517 -258.32 517 -259 517 C-261.125 515.125 -261.125 515.125 -263 513 C-263 512.34 -263 511.68 -263 511 C-263.66 511 -264.32 511 -265 511 C-266.01532792 509.34262648 -267.01190805 507.67375389 -268 506 C-269.54370311 504.19451507 -271.13043731 502.42526058 -272.75 500.6875 C-274.07451172 499.25083984 -274.07451172 499.25083984 -275.42578125 497.78515625 C-276.27527344 496.86605469 -277.12476563 495.94695312 -278 495 C-281.7955042 490.8242412 -285.14439015 486.8783335 -288 482 C-289.15299496 480.48946574 -290.32130077 478.9905634 -291.5 477.5 C-293.91704886 474.42559476 -296.11160925 471.43343773 -298 468 C-298.42410156 467.26394531 -298.84820312 466.52789063 -299.28515625 465.76953125 C-303 459.26079387 -303 459.26079387 -303 457 C-303.66 457 -304.32 457 -305 457 C-308.6043679 452.16230728 -311.67698799 447.13722814 -312 441 C-312.66 441 -313.32 441 -314 441 C-314.66 438.36 -315.32 435.72 -316 433 C-316.66 433 -317.32 433 -318 433 C-318.23074219 432.33355469 -318.46148437 431.66710937 -318.69921875 430.98046875 C-320.78983184 425.07221437 -323.13730855 419.38091353 -325.76953125 413.6953125 C-329.37860705 405.78971789 -333 397.8186386 -333 389 C-333.66 389 -334.32 389 -335 389 C-336.71640445 382.01147917 -338.37841938 375.01112493 -340 368 C-340.19706543 367.15163574 -340.39413086 366.30327148 -340.59716797 365.42919922 C-349.48123713 326.49400429 -353.25136343 268.66114403 -338 231 C-337.34050068 227.69214477 -336.76429606 224.388315 -336.23242188 221.05859375 C-335.4127127 216.30337478 -334.01253334 212.38763796 -332 208 C-329.71344374 201.76489984 -327.87461209 195.36836305 -326 189 C-325.34 189 -324.68 189 -324 189 C-323.87882812 188.37351562 -323.75765625 187.74703125 -323.6328125 187.1015625 C-323.46523438 186.28429687 -323.29765625 185.46703125 -323.125 184.625 C-322.96257812 183.81289062 -322.80015625 183.00078125 -322.6328125 182.1640625 C-322 180 -322 180 -320 178 C-319.51117552 176.663503 -319.08068136 175.30519223 -318.6875 173.9375 C-317.07603717 168.87637301 -314.67569306 164.56535166 -312 160 C-311.18440046 158.52254013 -310.37190067 157.04336489 -309.5625 155.5625 C-305.56161338 148.38590963 -301.47214928 141.45798358 -296.44921875 134.9453125 C-293.61604339 131.14229005 -290.99518747 127.12817013 -288.984375 122.828125 C-288 121 -288 121 -286 120 C-285.566875 119.278125 -285.13375 118.55625 -284.6875 117.8125 C-282.75296723 114.58827871 -280.45950693 111.82510931 -278 109 C-277.46117187 108.37996094 -276.92234375 107.75992188 -276.3671875 107.12109375 C-275.18953965 105.77181561 -274.00845245 104.42553282 -272.82421875 103.08203125 C-271.60739502 101.69323671 -270.40160263 100.29469939 -269.20703125 98.88671875 C-265.71509884 94.79352645 -262.18859049 91.36908365 -258 88 C-255.03328292 85.18542226 -252.33536923 82.23414961 -249.6875 79.125 C-240.86971753 68.95657251 -240.86971753 68.95657251 -235 67 C-235 66.34 -235 65.68 -235 65 C-233.34928604 63.97388051 -231.68029994 62.97691857 -230 62 C-229.46375 61.46375 -228.9275 60.9275 -228.375 60.375 C-227 59 -227 59 -224 58 C-223.484375 57.484375 -222.96875 56.96875 -222.4375 56.4375 C-221.963125 55.963125 -221.48875 55.48875 -221 55 C-220.34 55 -219.68 55 -219 55 C-219 54.34 -219 53.68 -219 53 C-216.10787826 50.86533872 -213.24232221 49.11611273 -210 47.5625 C-207.17126705 46.08920159 -205.05816606 44.37572737 -202.65625 42.3046875 C-199.38641805 39.72892365 -195.67125478 37.93511939 -192 36 C-190.66355943 35.275667 -189.32766801 34.55032031 -187.9921875 33.82421875 C-186.51591506 33.02810772 -185.03934962 32.23253981 -183.5625 31.4375 C-182.87115967 31.06141602 -182.17981934 30.68533203 -181.4675293 30.29785156 C-176.11990503 27.44495184 -170.64788705 25.18600965 -165 23 C-160.30708054 21.13842331 -155.62192468 19.25783163 -150.9375 17.375 C-150.00901245 17.00665039 -150.00901245 17.00665039 -149.06176758 16.63085938 C-147.25606534 15.91396934 -145.45413185 15.18760906 -143.65234375 14.4609375 C-142.59007568 14.03603027 -141.52780762 13.61112305 -140.43334961 13.17333984 C-137.86566505 12.2408438 -137.86566505 12.2408438 -137 10 C-134.47098987 9.49234068 -131.98990368 9.09736373 -129.4375 8.75 C-121.77434305 7.60763209 -114.36653813 5.9027557 -106.875 3.9375 C-97.56637084 1.53449678 -88.60686057 -0.24671256 -79 -1 C-77.71351563 -1.10957031 -76.42703125 -1.21914062 -75.1015625 -1.33203125 C-50.31681518 -3.15635545 -24.65548929 -3.08606929 0 0 Z " fill="#FD6174" transform="translate(425,71)"/>
<path d="M0 0 C1.33942154 -0.00101212 1.33942154 -0.00101212 2.7059021 -0.00204468 C24.41259947 0.02400852 48.17241893 0.9728731 67.82080078 11.27075195 C70.79383634 12.77984404 73.88874718 13.93302652 77 15.125 C83.80589062 17.77579678 90.27954997 20.85211004 96.75 24.25 C96.75 24.91 96.75 25.57 96.75 26.25 C97.46542969 26.34925781 98.18085938 26.44851562 98.91796875 26.55078125 C106.54391213 28.43360037 114.98894762 34.91813777 120.75 40.25 C120.75 40.91 120.75 41.57 120.75 42.25 C121.43320312 42.46269531 122.11640625 42.67539063 122.8203125 42.89453125 C126.66158226 44.67175873 129.46983819 47.15100736 132.625 49.9375 C133.24342773 50.47769775 133.86185547 51.01789551 134.49902344 51.57446289 C146.46295369 62.09256762 146.46295369 62.09256762 148.75 68.25 C150.76735205 69.59410262 150.76735205 69.59410262 152.75 70.25 C152.75 70.91 152.75 71.57 152.75 72.25 C153.41 72.25 154.07 72.25 154.75 72.25 C156.4765625 74.3671875 156.4765625 74.3671875 158.375 77.125 C159.32246094 78.48238281 159.32246094 78.48238281 160.2890625 79.8671875 C161.75 82.25 161.75 82.25 161.75 84.25 C162.41 84.25 163.07 84.25 163.75 84.25 C168.51303448 90.39323198 172.14392176 97.60416536 175.9375 104.375 C176.35322266 105.11411621 176.76894531 105.85323242 177.19726562 106.61474609 C181.29228854 114.01363349 184.61968559 121.57208821 187.375 129.5625 C188.84499928 133.95121416 188.84499928 133.95121416 190.75708008 138.15039062 C191.84037208 140.44109906 192.32238 142.49196431 192.78515625 144.98046875 C192.95466797 145.86541016 193.12417969 146.75035156 193.29882812 147.66210938 C193.46833984 148.57798828 193.63785156 149.49386719 193.8125 150.4375 C194.15411843 152.26496813 194.49899361 154.09183149 194.84765625 155.91796875 C194.99726807 156.72516357 195.14687988 157.5323584 195.30102539 158.36401367 C195.57610854 160.25081761 195.57610854 160.25081761 196.75 161.25 C198.72579763 172.18928399 199.06712132 183.09970203 199.01074219 194.18579102 C199.0000234 196.68205113 199.01071033 199.17758959 199.0234375 201.67382812 C199.03631044 215.53653843 198.03828905 229.22569933 194.8125 242.75 C194.63920166 243.5028125 194.46590332 244.255625 194.28735352 245.03125 C193.23135803 249.51813538 192.03528771 253.90827286 190.46484375 258.24609375 C189.63298409 260.57802822 188.94196407 262.93544209 188.25 265.3125 C186.94804981 269.71433161 185.41351236 273.97239678 183.75 278.25 C183.09 278.25 182.43 278.25 181.75 278.25 C181.523125 279.36375 181.29625 280.4775 181.0625 281.625 C179.76939103 286.89182339 177.30263105 291.4954811 174.75 296.25 C174.09 296.25 173.43 296.25 172.75 296.25 C172.646875 297.178125 172.54375 298.10625 172.4375 299.0625 C171.6863995 302.54487503 171.23257162 302.95132257 168.75 305.25 C167.80158206 306.91790742 166.85484227 308.58685838 165.92578125 310.265625 C163.84154124 313.78321279 161.50310055 317.2215894 158.75 320.25 C158.09 320.25 157.43 320.25 156.75 320.25 C156.688125 320.78625 156.62625 321.3225 156.5625 321.875 C154.9656446 326.54273116 151.40636467 329.81381181 147.625 332.8125 C144.65624566 335.06483148 144.65624566 335.06483148 143.0625 338.0625 C142.629375 338.784375 142.19625 339.50625 141.75 340.25 C140.76 340.25 139.77 340.25 138.75 340.25 C138.09 341.57 137.43 342.89 136.75 344.25 C136.09 344.25 135.43 344.25 134.75 344.25 C134.75 344.91 134.75 345.57 134.75 346.25 C129.67151496 351.49453905 123.54220063 355.83204732 117.75 360.25 C117.06808594 360.78882813 116.38617188 361.32765625 115.68359375 361.8828125 C111.77926029 364.92376107 107.95612043 367.22754605 103.4765625 369.3203125 C101.57123277 370.2281899 101.57123277 370.2281899 99.875 372.25 C97.02374455 374.93353454 93.9592945 375.89008951 90.32421875 377.25390625 C88.07010697 378.12613463 85.96018865 379.08487222 83.8125 380.1875 C73.99413605 385.18522434 64.0086572 390.25 52.75 390.25 C52.75 390.91 52.75 391.57 52.75 392.25 C48.60532317 393.06847334 44.45907143 393.87868462 40.3125 394.6875 C38.56549805 395.03264648 38.56549805 395.03264648 36.78320312 395.38476562 C25.44353414 397.58881396 14.81312914 398.44464126 3.25 398.4375 C2.23969727 398.43759064 2.23969727 398.43759064 1.20898438 398.43768311 C-8.30550881 398.4256103 -17.76041156 398.12218354 -27.25 397.375 C-28.26255859 397.29660889 -29.27511719 397.21821777 -30.31835938 397.13745117 C-35.5286785 396.67503092 -40.25563404 395.889237 -45.25 394.25 C-46.55039717 393.84252223 -47.85119676 393.43632707 -49.15234375 393.03125 C-51.1695461 392.3921752 -53.18587278 391.75052084 -55.20117188 391.10546875 C-58.56817484 390.0408296 -61.92581714 389.06213331 -65.359375 388.234375 C-75.86240162 385.66984646 -86.70547326 381.20065676 -95.3671875 374.6484375 C-97.3306708 373.06899844 -97.3306708 373.06899844 -100.3125 372 C-105.64491468 369.82279139 -110.6515381 366.70092529 -115.25 363.25 C-115.25 362.59 -115.25 361.93 -115.25 361.25 C-115.806875 360.981875 -116.36375 360.71375 -116.9375 360.4375 C-120.52600651 358.59475342 -123.89489054 356.48673964 -127.25 354.25 C-127.25 353.59 -127.25 352.93 -127.25 352.25 C-128.3328125 351.9096875 -128.3328125 351.9096875 -129.4375 351.5625 C-132.825977 349.98121073 -134.65258285 347.93245164 -137.25 345.25 C-138.04019531 344.48300781 -138.83039063 343.71601562 -139.64453125 342.92578125 C-144.64814934 338.03533061 -149.20716451 333.03361913 -153.4609375 327.4765625 C-155.20464554 325.21238092 -155.20464554 325.21238092 -157.2890625 323.2734375 C-159.40920856 321.08571707 -160.74043472 318.88870392 -162.25 316.25 C-163.33954674 314.65657087 -164.44417618 313.07336592 -165.5625 311.5 C-166.48095703 310.19095703 -166.48095703 310.19095703 -167.41796875 308.85546875 C-168.56129125 307.22946426 -169.70899349 305.60652002 -170.86328125 303.98828125 C-174.77824714 298.3535629 -177.54102817 292.5386846 -180.25 286.25 C-181.26373539 283.96491503 -182.28365925 281.68263643 -183.30322266 279.40014648 C-184.6577313 276.36684933 -186.01059456 273.33298656 -187.3449707 270.29077148 C-188.13846214 268.5015093 -188.96685592 266.72780971 -189.80078125 264.95703125 C-202.7497798 231.83412121 -202.84170989 189.65881841 -195.25 155.25 C-195.09031738 154.50314941 -194.93063477 153.75629883 -194.76611328 152.98681641 C-193.99308331 149.39025462 -193.16839022 145.81224085 -192.25 142.25 C-191.59 142.25 -190.93 142.25 -190.25 142.25 C-190.1675 140.97125 -190.085 139.6925 -190 138.375 C-189.37304569 132.86123743 -187.52093225 128.27900454 -185.25 123.25 C-184.76917969 122.18007813 -184.28835937 121.11015625 -183.79296875 120.0078125 C-181.06467331 114.02628377 -178.23589775 108.10695328 -175.25 102.25 C-174.59 102.25 -173.93 102.25 -173.25 102.25 C-173.105625 101.63125 -172.96125 101.0125 -172.8125 100.375 C-172.25 98.25 -172.25 98.25 -171.25 96.25 C-170.59 96.25 -169.93 96.25 -169.25 96.25 C-169.13011719 95.67894531 -169.01023438 95.10789062 -168.88671875 94.51953125 C-167.1205496 88.22416758 -163.21552236 82.93082459 -158.875 78.15625 C-157.03822466 76.00157124 -155.52104281 73.72203667 -153.9375 71.375 C-149.98664736 65.85914942 -145.411611 61.11187802 -140.625 56.3125 C-139.89627686 55.57854004 -139.16755371 54.84458008 -138.41674805 54.08837891 C-134.57000368 50.29114839 -130.83078162 47.10955979 -126.25 44.25 C-125.54875 43.54875 -124.8475 42.8475 -124.125 42.125 C-122.22671245 40.22671245 -120.74121966 39.21434309 -118.25 38.25 C-117.26 38.25 -116.27 38.25 -115.25 38.25 C-114.92 37.26 -114.59 36.27 -114.25 35.25 C-112.25 34.25 -110.25 33.25 -108.25 32.25 C-107.24357052 30.92151309 -106.24307821 29.58849671 -105.25 28.25 C-102.31159553 26.78079777 -100.55252488 26.25 -97.25 26.25 C-97.25 25.59 -97.25 24.93 -97.25 24.25 C-77.41864608 13.25 -77.41864608 13.25 -69.25 13.25 C-69.25 12.59 -69.25 11.93 -69.25 11.25 C-63.77977233 9.00329935 -59.11695897 7.86757463 -53.25 7.25 C-52.92 6.92 -52.59 6.59 -52.25 6.25 C-48.76427344 5.58910927 -45.27373145 5.00766005 -41.77148438 4.44335938 C-38.4901887 3.8941052 -35.46955557 3.32767987 -32.32421875 2.21484375 C-22.14801394 -0.97895878 -10.56217365 0.007158 0 0 Z " fill="#F7F6F6" transform="translate(383.25,173.75)"/>
<path d="M0 0 C0.33 0 0.66 0 1 0 C4.40168556 19.55245433 6.4965191 38.69368608 6.375 58.5625 C6.37040771 59.45628357 6.36581543 60.35006714 6.36108398 61.27093506 C6.27528836 73.06104634 6.0280248 84.66468156 3.54296875 96.23046875 C2.45493868 101.78020486 1.75885949 107.39735652 1 113 C0.67 113 0.34 113 0 113 C0.1401998 109.64557336 0.28818428 106.29153225 0.4375 102.9375 C0.47681641 101.99455078 0.51613281 101.05160156 0.55664062 100.08007812 C0.59853516 99.15517578 0.64042969 98.23027344 0.68359375 97.27734375 C0.72025146 96.43421631 0.75690918 95.59108887 0.79467773 94.72241211 C1 92 1 92 1.51147461 89.04248047 C2.39361412 83.09309626 2.14221157 77.04160753 2.1328125 71.04296875 C2.13348697 69.69012942 2.13445819 68.33729021 2.13571167 66.98445129 C2.13717939 64.16288081 2.13506229 61.34134216 2.13037109 58.51977539 C2.12464687 54.9004297 2.12797557 51.28115774 2.13394356 47.66181469 C2.13755089 44.87463318 2.13641027 42.08746927 2.13381577 39.30028725 C2.13282402 37.3160103 2.13586161 35.33173268 2.13894653 33.34745789 C2.13579437 32.14893692 2.13264221 30.95041595 2.12939453 29.71557617 C2.12859894 28.65747238 2.12780334 27.59936859 2.12698364 26.50920105 C2.16842806 24.00232661 2.16842806 24.00232661 1 22 C0.06308212 14.68972717 -0.14656989 7.36106568 0 0 Z " fill="#F18F9B" transform="translate(682,318)"/>
<path d="M0 0 C1.03454819 -0.00315216 2.06909637 -0.00630432 3.13499451 -0.009552 C4.8239962 -0.00651566 4.8239962 -0.00651566 6.54711914 -0.00341797 C7.69515518 -0.00437469 8.84319122 -0.00533142 10.02601624 -0.00631714 C12.45972752 -0.00699921 14.89344062 -0.00514305 17.32714844 -0.00097656 C21.06262282 0.00436642 24.79797668 -0.00091816 28.53344727 -0.00732422 C30.89217149 -0.00666335 33.25089564 -0.005382 35.60961914 -0.00341797 C36.73359604 -0.0054422 37.85757294 -0.00746643 39.01560974 -0.009552 C40.57216026 -0.00482376 40.57216026 -0.00482376 42.16015625 0 C43.07647324 0.00079559 43.99279022 0.00159119 44.93687439 0.00241089 C47.14477539 0.12939453 47.14477539 0.12939453 49.14477539 1.12939453 C52.58575322 1.39380265 56.0202604 1.57399366 59.46704102 1.73486328 C65.04403684 2.02865598 65.04403684 2.02865598 66.14477539 3.12939453 C67.97383774 3.33776872 69.80865673 3.49689112 71.64477539 3.62939453 C77.03366428 4.01828342 77.03366428 4.01828342 78.14477539 5.12939453 C80.68577631 5.66269102 83.2381156 6.09357796 85.79711914 6.53173828 C88.14477539 7.12939453 88.14477539 7.12939453 90.14477539 9.12939453 C84.78443182 8.71199073 79.77834529 8.06869848 74.57446289 6.66845703 C57.57939304 2.89784668 39.66130434 2.94809828 22.33227539 3.00439453 C21.53971344 3.00528076 20.74715149 3.00616699 19.93057251 3.00708008 C5.31821175 3.02612638 -9.25902954 3.42096942 -23.85522461 4.12939453 C-23.52522461 3.46939453 -23.19522461 2.80939453 -22.85522461 2.12939453 C-21.0318457 2.03851563 -21.0318457 2.03851563 -19.17163086 1.94580078 C-17.58698233 1.86141121 -16.00234759 1.77676243 -14.41772461 1.69189453 C-13.6152832 1.65257813 -12.8128418 1.61326172 -11.98608398 1.57275391 C-7.53849597 1.32879338 -4.36763168 0.0037955 0 0 Z " fill="#FBD4D9" transform="translate(361.855224609375,66.87060546875)"/>
<path d="M0 0 C0 0.33 0 0.66 0 1 C-32.75677079 9.78761297 -68.65981922 9.14751217 -102 4 C-102 3.67 -102 3.34 -102 3 C-94.03779131 2.86245705 -86.13806943 3.10956125 -78.1875 3.5 C-51.81439696 5.7214287 -51.81439696 5.7214287 -26 2 C-22.92968408 1.53778148 -19.8384419 1.25384268 -16.75 0.9375 C-15.91597656 0.84662109 -15.08195312 0.75574219 -14.22265625 0.66210938 C-9.45177561 0.16405041 -4.79622094 -0.09722069 0 0 Z " fill="#EF8B98" transform="translate(442,671)"/>
<path d="M0 0 C0.33 0 0.66 0 1 0 C1.16022044 7.01486872 0.42127603 13.39881201 -0.84570312 20.27929688 C-3.17637688 33.77446636 -3.16475561 47.5008982 -3.13037109 61.15551758 C-3.12498295 63.6955353 -3.13037055 66.23537801 -3.13671875 68.77539062 C-3.13975872 76.97897709 -2.99120325 85.09181785 -2.22045898 93.26757812 C-1.87802915 97.51173614 -1.91356794 101.74562211 -2 106 C-2.33 106 -2.66 106 -3 106 C-3.13277344 104.80761719 -3.26554687 103.61523438 -3.40234375 102.38671875 C-3.58055983 100.82029322 -3.75895456 99.25388802 -3.9375 97.6875 C-4.02451172 96.90181641 -4.11152344 96.11613281 -4.20117188 95.30664062 C-4.28818359 94.54931641 -4.37519531 93.79199219 -4.46484375 93.01171875 C-4.543396 92.31522217 -4.62194824 91.61872559 -4.70288086 90.90112305 C-4.97996783 88.78351766 -4.97996783 88.78351766 -6 86 C-6.09727274 84.35038178 -6.13816195 82.69714614 -6.14526367 81.04467773 C-6.15164352 80.03610214 -6.15802338 79.02752655 -6.16459656 77.98838806 C-6.16570938 76.89780594 -6.1668222 75.80722382 -6.16796875 74.68359375 C-6.17129715 73.55736099 -6.17462555 72.43112823 -6.17805481 71.27076721 C-6.18312272 68.88258269 -6.18546318 66.49439107 -6.18530273 64.10620117 C-6.18747677 60.47627828 -6.20559966 56.84666547 -6.22460938 53.21679688 C-6.22754592 50.8932302 -6.22952897 48.56966209 -6.23046875 46.24609375 C-6.23765427 45.16968124 -6.24483978 44.09326874 -6.25224304 42.98423767 C-6.23499594 37.20662879 -5.79622825 31.87429417 -4.48432922 26.24105835 C-3.45319251 21.46984605 -3.2017502 16.56180099 -2.7890625 11.70507812 C-2.39067595 7.46363514 -1.89276624 3.88805731 0 0 Z " fill="#FBD2D8" transform="translate(83,312)"/>
<path d="M0 0 C0.33 0 0.66 0 1 0 C1.01981934 0.88445801 1.03963867 1.76891602 1.06005859 2.68017578 C1.52607789 22.53362748 2.04636819 42.3267024 5 62 C4.505 60.515 4.505 60.515 4 59 C3.34 59 2.68 59 2 59 C2 55.37 2 51.74 2 48 C1.34 48 0.68 48 0 48 C-0.89406472 38.65916209 -1.15748254 29.40329075 -1.13037109 20.0300293 C-1.12491429 17.77711546 -1.13040332 15.52439295 -1.13671875 13.27148438 C-1.13605947 11.8333329 -1.13478145 10.39518153 -1.1328125 8.95703125 C-1.13168457 7.66772705 -1.13055664 6.37842285 -1.12939453 5.05004883 C-1 2 -1 2 0 0 Z " fill="#EE8492" transform="translate(183,354)"/>
<path d="M0 0 C1.65 0 3.3 0 5 0 C-2.20516718 5.60401892 -10.21845036 8.77756174 -18.6875 11.9375 C-19.38302979 12.19764893 -20.07855957 12.45779785 -20.79516602 12.72583008 C-25.93538809 14.63475195 -31.10547576 16.42911813 -36.3203125 18.125 C-38.05039096 18.68992358 -39.77497689 19.2720922 -41.4921875 19.875 C-46.01935903 21.46027219 -50.22586636 22.49211344 -55 23 C-52.550129 20.550129 -50.60899701 20.09239681 -47.3125 19.0625 C-43.89391044 17.97033778 -40.70750897 16.86658304 -37.4375 15.375 C-32.74267926 13.4970717 -27.98133001 12.76566555 -23 12 C-23 11.34 -23 10.68 -23 10 C-19.12315913 8.80712589 -16.08378077 8 -12 8 C-12 7.34 -12 6.68 -12 6 C-10.56570999 5.32645501 -9.12742943 4.66140299 -7.6875 4 C-6.48673828 3.443125 -6.48673828 3.443125 -5.26171875 2.875 C-3 2 -3 2 0 2 C0 1.34 0 0.68 0 0 Z " fill="#EF8592" transform="translate(513,645)"/>
<path d="M0 0 C3.87534124 0.30835759 7.7501999 0.6224211 11.625 0.9375 C12.71941406 1.02451172 13.81382812 1.11152344 14.94140625 1.20117188 C16.00488281 1.28818359 17.06835938 1.37519531 18.1640625 1.46484375 C19.62513428 1.58267212 19.62513428 1.58267212 21.11572266 1.70288086 C24 2 24 2 26.8371582 2.52514648 C30.71556218 3.10743099 34.53015471 3.14323746 38.44140625 3.1328125 C39.64759865 3.13424759 39.64759865 3.13424759 40.87815857 3.13571167 C42.57673216 3.13638988 44.27530839 3.13456071 45.97387695 3.13037109 C48.53017249 3.12506708 51.08628836 3.13030273 53.64257812 3.13671875 C62.81494761 3.14006621 71.86503965 2.90637306 81 2 C81 2.33 81 2.66 81 3 C74.14076073 5.09381845 67.8027411 5.27650332 60.66015625 5.23046875 C59.49745712 5.23001053 58.334758 5.22955231 57.13682556 5.2290802 C54.69366426 5.22607192 52.25050464 5.2182286 49.80737305 5.20581055 C46.05055024 5.18744157 42.2939726 5.18530182 38.53710938 5.18554688 C36.16145618 5.18063546 33.78580467 5.1748088 31.41015625 5.16796875 C30.28110367 5.16685593 29.15205109 5.1657431 27.98878479 5.16459656 C26.43598061 5.15502678 26.43598061 5.15502678 24.85180664 5.14526367 C23.93661758 5.14145187 23.02142853 5.13764008 22.07850647 5.13371277 C20 5 20 5 19 4 C17.67286656 3.79874525 16.33706285 3.6536871 15 3.53515625 C14.195625 3.45716797 13.39125 3.37917969 12.5625 3.29882812 C10.85451949 3.14130858 9.14617751 2.98766038 7.4375 2.83789062 C6.633125 2.75861328 5.82875 2.67933594 5 2.59765625 C3.88625 2.49723022 3.88625 2.49723022 2.75 2.39477539 C1.88375 2.19936157 1.88375 2.19936157 1 2 C0.67 1.34 0.34 0.68 0 0 Z " fill="#FDE2E6" transform="translate(336,674)"/>
<path d="M0 0 C0.66 0.33 1.32 0.66 2 1 C3.37808851 6.38152285 3.14819522 11.92090293 3.125 17.4375 C3.12886719 18.35337891 3.13273438 19.26925781 3.13671875 20.21289062 C3.11709202 33.88290798 3.11709202 33.88290798 1 36 C0.63239269 38.32817964 0.29758419 40.6618385 0 43 C-0.33 43 -0.66 43 -1 43 C-0.67 28.81 -0.34 14.62 0 0 Z " fill="#EF7C8B" transform="translate(582,355)"/>
<path d="M0 0 C0 0.99 0 1.98 0 3 C-0.639375 3.2475 -1.27875 3.495 -1.9375 3.75 C-2.9584375 4.36875 -2.9584375 4.36875 -4 5 C-4.12270264 5.59127686 -4.24540527 6.18255371 -4.37182617 6.79174805 C-5.77001549 11.70687527 -10.78247389 15.29281829 -14.3125 18.8125 C-15.18068359 19.70904297 -16.04886719 20.60558594 -16.94335938 21.52929688 C-17.78318359 22.37169922 -18.62300781 23.21410156 -19.48828125 24.08203125 C-20.25696533 24.85780518 -21.02564941 25.6335791 -21.81762695 26.43286133 C-24 28 -24 28 -26.28198242 27.74487305 C-26.84892822 27.49906494 -27.41587402 27.25325684 -28 27 C-27.33613281 26.40832031 -26.67226562 25.81664062 -25.98828125 25.20703125 C-20.00387575 19.85164356 -14.29033214 14.48499863 -9 8.4375 C-6.20897098 5.26587612 -3.44741314 2.4778282 0 0 Z " fill="#F27484" transform="translate(184,142)"/>
<path d="M0 0 C5.30584305 0.44964772 8.51707801 1.01138534 13 4 C15.30783342 5.07149409 17.64628429 6.03082294 20 7 C20 7.66 20 8.32 20 9 C20.78375 8.896875 21.5675 8.79375 22.375 8.6875 C27.56630359 9.13502617 31.49132264 11.50507972 36 14 C32.45332822 15.25127906 30.27746562 14.72285053 26.75 13.5625 C25.85796875 13.27503906 24.9659375 12.98757813 24.046875 12.69140625 C23.37140625 12.46324219 22.6959375 12.23507812 22 12 C22 11.34 22 10.68 22 10 C20.824375 9.9071875 20.824375 9.9071875 19.625 9.8125 C14.63350561 8.69371677 10.49849432 6.38027126 6 4 C4.79358007 3.39202158 3.58561963 2.78707228 2.375 2.1875 C1.59125 1.795625 0.8075 1.40375 0 1 C0 0.67 0 0.34 0 0 Z " fill="#F08E9B" transform="translate(244,644)"/>
<path d="M0 0 C0.33 0 0.66 0 1 0 C1.26972099 6.44333487 0.3173554 12.01232229 -1.25 18.25 C-1.47598877 19.17006836 -1.70197754 20.09013672 -1.93481445 21.03808594 C-5.59295497 35.66035426 -5.59295497 35.66035426 -8 41 C-8.99 41.495 -8.99 41.495 -10 42 C-9.37899527 39.1240849 -8.75333835 36.24931373 -8.125 33.375 C-7.95097656 32.56675781 -7.77695312 31.75851562 -7.59765625 30.92578125 C-6.6271262 26.50447768 -5.43228978 22.29686933 -4 18 C-3.22900281 14.88839977 -2.54972058 11.75870226 -1.875 8.625 C-1.69324219 7.79355469 -1.51148438 6.96210938 -1.32421875 6.10546875 C-0.87989787 4.07094684 -0.43954423 2.03555921 0 0 Z " fill="#EE8693" transform="translate(580,402)"/>
<path d="M0 0 C-1.95928356 1.95928356 -5.41341436 1.84941588 -8.06640625 2.3046875 C-10.4656797 2.87335684 -12.48680485 3.55955904 -14.7578125 4.47265625 C-19.19910868 6.19274734 -23.61283997 6.90446972 -28.3125 7.5625 C-29.89291645 7.78608357 -31.47241391 8.01628829 -33.05078125 8.25390625 C-33.73825439 8.35002197 -34.42572754 8.4461377 -35.1340332 8.54516602 C-37.31749186 8.96475072 -37.31749186 8.96475072 -40 11 C-42.1875 10.625 -42.1875 10.625 -44 10 C-43.195625 9.71125 -42.39125 9.4225 -41.5625 9.125 C-38.8673532 8.26737432 -38.8673532 8.26737432 -38 6 C-35.30358349 5.44797772 -32.65901349 5.00718183 -29.9375 4.625 C-22.86274445 3.55973868 -16.01132162 2.13994547 -9.12866211 0.18212891 C-5.75735438 -0.73735865 -3.31806572 -1.30054837 0 0 Z " fill="#F095A0" transform="translate(326,75)"/>
<path d="M0 0 C2 1 2 1 2.74609375 3.1875 C2.97425781 4.115625 3.20242188 5.04375 3.4375 6 C4.37283913 9.67931874 5.39809191 13.24229929 6.6875 16.8125 C7.89570423 20.31125809 8.28708553 23.26788808 8 27 C8.66 27 9.32 27 10 27 C10.66 32.28 11.32 37.56 12 43 C11.34 43 10.68 43 10 43 C9.86722656 42.14535156 9.73445312 41.29070312 9.59765625 40.41015625 C9.42105469 39.30542969 9.24445312 38.20070313 9.0625 37.0625 C8.88847656 35.96035156 8.71445312 34.85820312 8.53515625 33.72265625 C8.28154864 31.09573071 8.28154864 31.09573071 7 30 C6.66666667 27.66666667 6.33333333 25.33333333 6 23 C5.67 22.67 5.34 22.34 5 22 C4.85884839 19.32941149 4.95752893 16.67567762 5 14 C4.34 14 3.68 14 3 14 C2.49713066 12.0424015 1.9977901 10.08389623 1.5 8.125 C1.2215625 7.03445313 0.943125 5.94390625 0.65625 4.8203125 C0 2 0 2 0 0 Z " fill="#EE8794" transform="translate(670,273)"/>
<path d="M0 0 C6.85014668 -0.05084645 13.70024439 -0.08579508 20.55053711 -0.10986328 C22.87933165 -0.11990049 25.20811366 -0.13353314 27.53686523 -0.15087891 C30.89049379 -0.17522727 34.24395521 -0.18650615 37.59765625 -0.1953125 C39.15118553 -0.21079636 39.15118553 -0.21079636 40.73609924 -0.22659302 C47.63100355 -0.2276553 53.11904905 0.07936603 59 4 C57.87424561 3.86287598 56.74849121 3.72575195 55.58862305 3.58447266 C43.32022926 2.15518211 31.15573813 1.59216317 18.8125 1.375 C16.97198989 1.33666619 15.13149474 1.29760664 13.29101562 1.2578125 C8.86080386 1.16355863 4.43050981 1.07895005 0 1 C0 0.67 0 0.34 0 0 Z " fill="#EF8895" transform="translate(364,173)"/>
<path d="M0 0 C6.8178302 -0.17951202 13.27342306 0.27980878 20 1.375 C20.86850586 1.51075439 21.73701172 1.64650879 22.63183594 1.78637695 C28.45417951 2.70997761 34.2377069 3.75150316 40 5 C40 5.33 40 5.66 40 6 C37.18711295 5.85980308 34.37483115 5.71312045 31.5625 5.5625 C30.76005859 5.52318359 29.95761719 5.48386719 29.13085938 5.44335938 C23.11328125 5.11328125 23.11328125 5.11328125 22 4 C19.81561055 3.81327471 17.62690199 3.67626532 15.4375 3.5625 C10.02388832 3.21965636 5.18573815 2.55572144 0 1 C0 0.67 0 0.34 0 0 Z " fill="#ED7B89" transform="translate(408,70)"/>
<path d="M0 0 C0.78821819 2.29543427 1.13558044 3.58008982 0.37915039 5.92285156 C0.03875732 6.5722168 -0.30163574 7.22158203 -0.65234375 7.890625 C-1.01650391 8.59960938 -1.38066406 9.30859375 -1.75585938 10.0390625 C-2.14580078 10.76867187 -2.53574219 11.49828125 -2.9375 12.25 C-3.32357422 12.99507812 -3.70964844 13.74015625 -4.10742188 14.5078125 C-5.06090166 16.34414394 -6.02905677 18.17284207 -7 20 C-7.66 20 -8.32 20 -9 20 C-9.103125 20.721875 -9.20625 21.44375 -9.3125 22.1875 C-10.05986932 25.24491993 -11.28045189 27.38329635 -13 30 C-13.33 29.34 -13.66 28.68 -14 28 C-13.38125 26.9790625 -13.38125 26.9790625 -12.75 25.9375 C-11.24614597 23.41317359 -10.46396946 21.51281322 -9.625 18.75 C-8.04792836 13.76977377 -5.67131994 9.46948999 -3 5 C-2.401875 3.989375 -1.80375 2.97875 -1.1875 1.9375 C-0.795625 1.298125 -0.40375 0.65875 0 0 Z " fill="#EF8693" transform="translate(116,226)"/>
<path d="M0 0 C1.32 0.33 2.64 0.66 4 1 C4 1.66 4 2.32 4 3 C5.32 3.66 6.64 4.32 8 5 C8 5.66 8 6.32 8 7 C9.32 7.66 10.64 8.32 12 9 C12 9.66 12 10.32 12 11 C13.32 11.66 14.64 12.32 16 13 C16 13.66 16 14.32 16 15 C17.32 15.66 18.64 16.32 20 17 C20 17.66 20 18.32 20 19 C21.32 19.66 22.64 20.32 24 21 C23.67 21.99 23.34 22.98 23 24 C18.74589247 20.60836907 15.80935667 17.68226112 13 13 C11.23314681 11.35935061 9.40633348 9.83755356 7.5234375 8.33203125 C6 7 6 7 5 5 C4.01 4.67 3.02 4.34 2 4 C0.8125 1.9375 0.8125 1.9375 0 0 Z " fill="#EF8390" transform="translate(588,652)"/>
<path d="M0 0 C0.33 0.66 0.66 1.32 1 2 C0.67 2.99 0.34 3.98 0 5 C-0.08106686 6.55421729 -0.10756898 8.11167027 -0.09765625 9.66796875 C-0.09443359 10.56064453 -0.09121094 11.45332031 -0.08789062 12.37304688 C-0.07951172 13.30181641 -0.07113281 14.23058594 -0.0625 15.1875 C-0.05798828 16.12787109 -0.05347656 17.06824219 -0.04882812 18.03710938 C-0.03704626 20.35813712 -0.02059558 22.67903644 0 25 C-0.33 24.01 -0.66 23.02 -1 22 C-1.66 22 -2.32 22 -3 22 C-4.82405648 16.52783055 -5.31916708 9.22591076 -3.10546875 3.8125 C-2 2.1875 -2 2.1875 0 0 Z " fill="#F08B97" transform="translate(643,530)"/>
<path d="M0 0 C0.66 0 1.32 0 2 0 C2.19335938 0.84304688 2.38671875 1.68609375 2.5859375 2.5546875 C2.84632812 3.65039062 3.10671875 4.74609375 3.375 5.875 C3.63023438 6.96554687 3.88546875 8.05609375 4.1484375 9.1796875 C4.78906215 12.10408455 4.78906215 12.10408455 7 14 C7.89418121 16.47332814 8.72109601 18.92848504 9.5 21.4375 C10.69211111 25.25586801 11.75581937 28.63372906 14 32 C13.625 34.1875 13.625 34.1875 13 36 C12.69707031 35.26136719 12.39414063 34.52273438 12.08203125 33.76171875 C9.96216358 28.62837765 7.79982746 23.55956085 5.375 18.5625 C2.60906821 12.59436959 1.25778851 6.43210547 0 0 Z " fill="#ED818F" transform="translate(92,462)"/>
<path d="M0 0 C2.97276957 1.48638479 3.08443143 3.53038443 4.1875 6.625 C6.4097349 12.65106042 8.98837708 18.4010577 11.85229492 24.14892578 C12.62512249 25.73953 13.31999114 27.36755637 14 29 C13.67 29.66 13.34 30.32 13 31 C12.67 29.68 12.34 28.36 12 27 C11.34 27 10.68 27 10 27 C0.80821918 9.29452055 0.80821918 9.29452055 0 0 Z " fill="#EE8491" transform="translate(192,435)"/>
<path d="M0 0 C0.33 0 0.66 0 1 0 C1.14752005 6.40108729 0.65489957 12.32464896 -0.4375 18.625 C-0.70745015 20.24211763 -0.97698825 21.8593041 -1.24609375 23.4765625 C-1.37483887 24.2387207 -1.50358398 25.00087891 -1.63623047 25.78613281 C-2.13987643 28.85127481 -2.57516245 31.92302123 -3 35 C-3.33 35 -3.66 35 -4 35 C-4.28370684 27.98613645 -3.82862026 21.09778327 -3.125 14.125 C-3.04652832 13.30475342 -2.96805664 12.48450684 -2.88720703 11.6394043 C-2.43891671 7.44259808 -1.85580819 3.85197163 0 0 Z " fill="#FBCDD4" transform="translate(83,312)"/>
<path d="M0 0 C1.41805831 0.28482368 2.83440379 0.57818144 4.25 0.875 C5.03890625 1.03742187 5.8278125 1.19984375 6.640625 1.3671875 C9 2 9 2 10.9296875 2.9765625 C13.51847865 4.25630454 16.06515095 4.84222363 18.875 5.5 C22.99468392 6.49214882 27.00929448 7.55891189 31 9 C31 9.33 31 9.66 31 10 C20.90883113 9.2554089 20.90883113 9.2554089 16 7 C14.9275 6.71125 13.855 6.4225 12.75 6.125 C8.30108429 4.79032529 4.20139075 2.96255441 0 1 C0 0.67 0 0.34 0 0 Z " fill="#EE8894" transform="translate(303,557)"/>
<path d="M0 0 C2.4375 0.8125 2.4375 0.8125 5 2 C5.33 2.99 5.66 3.98 6 5 C8.00016466 6.20882096 8.00016466 6.20882096 10 7 C10 7.66 10 8.32 10 9 C11.32 9.66 12.64 10.32 14 11 C14 11.66 14 12.32 14 13 C14.8971875 13.433125 14.8971875 13.433125 15.8125 13.875 C18 15 18 15 21 17 C21 17.99 21 18.98 21 20 C20.34 20 19.68 20 19 20 C18.443125 19.29875 17.88625 18.5975 17.3125 17.875 C14.19323607 13.9969962 10.49612626 10.24806313 6 8 C6 7.34 6 6.68 6 6 C4.68 5.34 3.36 4.68 2 4 C2 3.34 2 2.68 2 2 C1.34 2 0.68 2 0 2 C0 1.34 0 0.68 0 0 Z " fill="#F08895" transform="translate(166,586)"/>
<path d="M0 0 C2.58185923 3.02534711 3.51652656 5.33916859 4.16796875 9.24609375 C4.33876953 10.24833984 4.50957031 11.25058594 4.68554688 12.28320312 C4.85119141 13.32412109 5.01683594 14.36503906 5.1875 15.4375 C5.36474609 16.47455078 5.54199219 17.51160156 5.72460938 18.58007812 C6.47829464 23.11091967 7.10231854 27.39670444 7 32 C5.33175731 28.96606633 4.44886143 26.1313273 3.7109375 22.75390625 C3.49179688 21.75166016 3.27265625 20.74941406 3.046875 19.71679688 C2.71429688 18.15541992 2.71429688 18.15541992 2.375 16.5625 C2.14554687 15.52544922 1.91609375 14.48839844 1.6796875 13.41992188 C0.69430289 8.85371997 -0.13864361 4.69007002 0 0 Z " fill="#EE8592" transform="translate(84,428)"/>
<path d="M0 0 C4.36245896 6.54368844 2.86628741 17.40527968 2 25 C0.7485141 30.031505 -1.42432802 34.50790541 -4 39 C-4.33 39 -4.66 39 -5 39 C-4.52338232 34.13849961 -3.58780616 31.09735975 -1 27 C-0.1171138 23.51870673 0.11860887 20.28211659 0.09765625 16.69921875 C0.09443359 15.72275391 0.09121094 14.74628906 0.08789062 13.74023438 C0.07951172 12.73283203 0.07113281 11.72542969 0.0625 10.6875 C0.05798828 9.66076172 0.05347656 8.63402344 0.04882812 7.57617188 C0.03708184 5.05072118 0.02065565 2.52539095 0 0 Z " fill="#F0949F" transform="translate(716,645)"/>
<path d="M0 0 C3.47951523 0.13818532 6.95850495 0.28682601 10.4375 0.4375 C11.92733398 0.49647461 11.92733398 0.49647461 13.44726562 0.55664062 C14.86362305 0.61948242 14.86362305 0.61948242 16.30859375 0.68359375 C17.18314209 0.72025146 18.05769043 0.75690918 18.95874023 0.79467773 C21 1 21 1 22 2 C24.54100092 2.53329649 27.09334021 2.96418343 29.65234375 3.40234375 C32 4 32 4 34 6 C28.6628014 5.58439847 23.66722442 4.97093537 18.4921875 3.54296875 C12.42102491 2.22025464 6.16813611 1.7036466 0 1 C0 0.67 0 0.34 0 0 Z " fill="#FBD2D7" transform="translate(418,70)"/>
<path d="M0 0 C2.47552876 3.71329314 2.40718554 6.81407681 2.5625 11.125 C2.32823765 15.94808485 2.32823765 15.94808485 4 20 C4.07179964 21.51928038 4.08392007 23.04167482 4.0625 24.5625 C4.05347656 25.38878906 4.04445312 26.21507812 4.03515625 27.06640625 C4.02355469 27.70449219 4.01195312 28.34257812 4 29 C-0.82952138 20.37585468 -0.27821216 9.58286316 0 0 Z " fill="#FDE1E5" transform="translate(185,387)"/>
<path d="M0 0 C-7.89090116 5.096207 -15.3236586 5.15964368 -24.5 5.0625 C-25.32242188 5.05798828 -26.14484375 5.05347656 -26.9921875 5.04882812 C-28.99482396 5.03718489 -30.99742227 5.01925556 -33 5 C-33 4.67 -33 4.34 -33 4 C-31.40285156 3.96132813 -31.40285156 3.96132813 -29.7734375 3.921875 C-20.86285643 3.60625539 -13.16361967 2.57342102 -4.66015625 -0.2578125 C-2 -1 -2 -1 0 0 Z " fill="#FBCDD4" transform="translate(689,705)"/>
<path d="M0 0 C0.66 0.33 1.32 0.66 2 1 C0.68 6.28 -0.64 11.56 -2 17 C-2.66 17 -3.32 17 -4 17 C-4.66 19.64 -5.32 22.28 -6 25 C-6.33 25 -6.66 25 -7 25 C-6.505 20.545 -6.505 20.545 -6 16 C-5.34 16 -4.68 16 -4 16 C-3.86722656 15.29488281 -3.73445312 14.58976562 -3.59765625 13.86328125 C-2.98596011 10.93273701 -2.2368647 8.0721639 -1.4375 5.1875 C-1.16808594 4.21167969 -0.89867187 3.23585938 -0.62109375 2.23046875 C-0.41613281 1.49441406 -0.21117187 0.75835937 0 0 Z " fill="#EF8391" transform="translate(669,469)"/>
<path d="M0 0 C0.33 0 0.66 0 1 0 C1.51003854 3.16513278 2.00615957 6.33230284 2.5 9.5 C2.64308594 10.386875 2.78617188 11.27375 2.93359375 12.1875 C3.75865611 17.53076099 4.15157107 22.59396514 4 28 C-0.43606946 19.12786107 -0.19584447 9.83574427 0 0 Z " fill="#ED7E8C" transform="translate(682,318)"/>
<path d="M0 0 C1.54461372 3.9648365 0.40115597 6.85418036 -0.8125 10.8125 C-1.16957031 11.99457031 -1.52664062 13.17664063 -1.89453125 14.39453125 C-2.25933594 15.58433594 -2.62414062 16.77414062 -3 18 C-3.6768031 20.33058139 -4.3392084 22.66480435 -5 25 C-5.66 25 -6.32 25 -7 25 C-6.04913185 18.18730937 -4.98024189 12.20883726 -2 6 C-1.31163487 4.00736409 -0.63718601 2.00958663 0 0 Z " fill="#EE8492" transform="translate(95,273)"/>
<path d="M0 0 C5.64142367 5.64142367 6.91640025 16.41480175 8 24 C7.578125 26.421875 7.578125 26.421875 7 28 C3.94595841 18.45371907 3.94595841 18.45371907 3.4375 14 C3.28926626 10.89082286 3.28926626 10.89082286 1 9 C0.5859375 6.8359375 0.5859375 6.8359375 0.375 4.375 C0.30023437 3.55773437 0.22546875 2.74046875 0.1484375 1.8984375 C0.09945312 1.27195312 0.05046875 0.64546875 0 0 Z " fill="#F9C9CF" transform="translate(570,304)"/>
<path d="M0 0 C0 0.33 0 0.66 0 1 C-1.60681641 1.19916016 -1.60681641 1.19916016 -3.24609375 1.40234375 C-4.64325769 1.5805056 -6.04039159 1.75890319 -7.4375 1.9375 C-8.14455078 2.02451172 -8.85160156 2.11152344 -9.58007812 2.20117188 C-13.08817968 2.38216191 -13.08817968 2.38216191 -16 4 C-18.67058851 4.14115161 -21.32432238 4.04247107 -24 4 C-23.67 3.01 -23.34 2.02 -23 1 C-15.307359 0.15199233 -7.73708326 -0.12152487 0 0 Z " fill="#EE8795" transform="translate(364,174)"/>
<path d="M0 0 C5.08141191 5.08141191 4.04672221 12.88060602 4.0625 19.5625 C4.04665998 21.37505052 4.02760015 23.18759041 4 25 C3.67 25 3.34 25 3 25 C2.49389097 21.77176021 1.99620093 18.54227635 1.5 15.3125 C1.35691406 14.40048828 1.21382812 13.48847656 1.06640625 12.54882812 C0.93105469 11.66259766 0.79570313 10.77636719 0.65625 9.86328125 C0.53056641 9.05157471 0.40488281 8.23986816 0.27539062 7.40356445 C-0.00977723 4.91466595 -0.04674739 2.50293311 0 0 Z " fill="#FBD3D8" transform="translate(682,313)"/>
<path d="M0 0 C2.64959458 1.95839599 2.99735143 2.98440286 3.5625 6.3125 C3.706875 7.529375 3.85125 8.74625 4 10 C4.556875 11.5778125 4.556875 11.5778125 5.125 13.1875 C6.01802669 16.05794292 6.05900963 17.24657496 5 20 C2.06036715 13.58625561 -0.44985251 7.19764013 0 0 Z " fill="#FACFD5" transform="translate(190,422)"/>
<path d="M0 0 C7.57555192 1.52434886 14.25919595 3.16699377 21 7 C21 7.66 21 8.32 21 9 C13.63011293 7.033631 6.86954798 4.30417422 0 1 C0 0.67 0 0.34 0 0 Z " fill="#EF8D99" transform="translate(449,184)"/>
<path d="M0 0 C-13.44874715 4.59225513 -13.44874715 4.59225513 -21 4 C-21 3.67 -21 3.34 -21 3 C-18.25244513 2.30111323 -15.50268803 1.6156012 -12.75 0.9375 C-11.97269531 0.73833984 -11.19539063 0.53917969 -10.39453125 0.33398438 C-9.64042969 0.15029297 -8.88632812 -0.03339844 -8.109375 -0.22265625 C-7.07248535 -0.48187866 -7.07248535 -0.48187866 -6.01464844 -0.74633789 C-3.74929191 -1.03156637 -2.1631688 -0.68076195 0 0 Z " fill="#F6BCC3" transform="translate(458,669)"/>
<path d="M0 0 C0.66 0 1.32 0 2 0 C2.04254356 1.99954746 2.04080783 4.00041636 2 6 C1.67 6.33 1.34 6.66 1 7 C0.87625 8.11375 0.7525 9.2275 0.625 10.375 C-0.0177652 14.10303815 -0.3298489 14.67254209 -3 17 C-2.48517081 11.147205 -1.54642808 5.6702363 0 0 Z " fill="#FBD7DB" transform="translate(191,316)"/>
<path d="M0 0 C-0.95712891 0.19916016 -0.95712891 0.19916016 -1.93359375 0.40234375 C-3.17302734 0.66724609 -3.17302734 0.66724609 -4.4375 0.9375 C-5.26121094 1.11152344 -6.08492188 1.28554687 -6.93359375 1.46484375 C-8.97661204 1.80752994 -8.97661204 1.80752994 -10 3 C-11.68183948 3.23287008 -13.3712416 3.41264166 -15.0625 3.5625 C-15.98160156 3.64628906 -16.90070313 3.73007813 -17.84765625 3.81640625 C-18.55792969 3.87699219 -19.26820313 3.93757812 -20 4 C-20 3.34 -20 2.68 -20 2 C-13.74892772 -0.46752853 -6.55782174 -2.00965505 0 0 Z " fill="#F08A98" transform="translate(340,179)"/>
<path d="M0 0 C0.33 0 0.66 0 1 0 C1.09765625 6.15234375 1.09765625 6.15234375 1 8 C0.67 8.33 0.34 8.66 0 9 C-0.53176398 11.57391641 -0.96430799 14.15859517 -1.40234375 16.75 C-1.59957031 17.4925 -1.79679688 18.235 -2 19 C-2.66 19.33 -3.32 19.66 -4 20 C-3.42978625 13.04339229 -1.98697306 6.68572695 0 0 Z " fill="#F8BEC5" transform="translate(681,432)"/>
<path d="M0 0 C3.79857549 1.89928774 4.57998295 7.18044393 6 11 C6.433125 12.11375 6.86625 13.2275 7.3125 14.375 C8.04361747 17.16653942 7.79596365 18.30861211 7 21 C6.00988557 18.81690366 5.03294432 16.62932734 4.0625 14.4375 C3.78470703 13.82841797 3.50691406 13.21933594 3.22070312 12.59179688 C1.36408217 8.36406963 0.46734921 4.59658658 0 0 Z " fill="#ED7A88" transform="translate(567,293)"/>
<path d="M0 0 C0.67546875 0.13664063 1.3509375 0.27328125 2.046875 0.4140625 C4.20005779 0.84128131 6.35688137 1.25026923 8.515625 1.6484375 C10.36414063 2.00808594 10.36414063 2.00808594 12.25 2.375 C13.49265625 2.60960937 14.7353125 2.84421875 16.015625 3.0859375 C17.00046875 3.38757813 17.9853125 3.68921875 19 4 C19.33 4.99 19.66 5.98 20 7 C16.44699869 6.31648251 12.94047484 5.53119377 9.4375 4.625 C8.50808594 4.39039063 7.57867187 4.15578125 6.62109375 3.9140625 C3.93488449 2.97729206 2.16358547 1.82250258 0 0 Z " fill="#EE8592" transform="translate(280,659)"/>
<path d="M0 0 C0.66 0.33 1.32 0.66 2 1 C-1.58541658 5.81790352 -5.43234681 9.52958434 -11 12 C-11.66 11.67 -12.32 11.34 -13 11 C-12.278125 10.443125 -11.55625 9.88625 -10.8125 9.3125 C-7.95119715 7.03615962 -7.95119715 7.03615962 -5.375 4.375 C-3 2 -3 2 0 0 Z " fill="#F8C2C9" transform="translate(261,214)"/>
<path d="M0 0 C6.90767437 0.36823999 12.6381142 1.23918163 19 4 C15.34811918 5.07174763 12.73567172 4.76411467 9 4 C9 3.34 9 2.68 9 2 C6.03 1.67 3.06 1.34 0 1 C0 0.67 0 0.34 0 0 Z " fill="#EE8E9A" transform="translate(301,666)"/>
<path d="M0 0 C1.485 0.99 1.485 0.99 3 2 C3.34057617 4.06298828 3.34057617 4.06298828 3.29296875 6.5703125 C3.28330078 7.46621094 3.27363281 8.36210938 3.26367188 9.28515625 C3.23853516 10.22230469 3.21339844 11.15945313 3.1875 12.125 C3.17396484 13.06988281 3.16042969 14.01476562 3.14648438 14.98828125 C3.11106306 17.32608779 3.06167271 19.66276237 3 22 C2.67 22 2.34 22 2 22 C1.93941406 20.99839844 1.87882813 19.99679687 1.81640625 18.96484375 C1.73191595 17.62238669 1.64727232 16.27993928 1.5625 14.9375 C1.48128906 13.62652344 1.40007813 12.31554687 1.31640625 10.96484375 C1.02101751 7.26336762 0.56734612 3.66629552 0 0 Z " fill="#FBD3D9" transform="translate(716,641)"/>
<path d="M0 0 C1.10490662 4.41962647 0.81718339 5.07870953 -1 9 C-1.28875 9.86625 -1.5775 10.7325 -1.875 11.625 C-3.16148133 14.34090503 -4.48975571 15.41017861 -7 17 C-6.01 14.03 -5.02 11.06 -4 8 C-3.34 8 -2.68 8 -2 8 C-1.34 5.36 -0.68 2.72 0 0 Z " fill="#FBD1D6" transform="translate(665,486)"/>
<path d="M0 0 C5.46737191 1.74807129 10.75824848 3.65794081 16 6 C12.69564916 7.12377697 10.9493138 6.89554742 7.75 5.5625 C7.04359375 5.27503906 6.3371875 4.98757812 5.609375 4.69140625 C5.07828125 4.46324219 4.5471875 4.23507813 4 4 C4 3.34 4 2.68 4 2 C2.68 1.67 1.36 1.34 0 1 C0 0.67 0 0.34 0 0 Z " fill="#EF8693" transform="translate(480,84)"/>
<path d="M0 0 C5.91262501 0.53751136 11.55868519 1.51152124 17 4 C17.33 4.66 17.66 5.32 18 6 C17.195625 5.690625 16.39125 5.38125 15.5625 5.0625 C11.96816311 3.99050479 8.77367532 3.64073218 5.05078125 3.44140625 C2.547484 2.90260132 1.62220414 1.93119541 0 0 Z " fill="#FACED5" transform="translate(432,180)"/>
<path d="M0 0 C0.33 0.66 0.66 1.32 1 2 C0.29296875 3.83984375 0.29296875 3.83984375 -0.8125 5.9375 C-1.34810547 6.97197266 -1.34810547 6.97197266 -1.89453125 8.02734375 C-2.84989011 9.73213606 -3.91598646 11.3739797 -5 13 C-5.66 13 -6.32 13 -7 13 C-5.58832253 7.73829306 -3.25149768 4.27828642 0 0 Z " fill="#EE818F" transform="translate(125,211)"/>
<path d="M0 0 C6.31631828 0.40316925 10.64993984 2.71232131 16 6 C16 6.66 16 7.32 16 8 C12.34061828 6.56835889 8.76011932 5.01065704 5.1875 3.375 C4.21167969 2.92898437 3.23585938 2.48296875 2.23046875 2.0234375 C1.49441406 1.68570313 0.75835937 1.34796875 0 1 C0 0.67 0 0.34 0 0 Z " fill="#FACFD5" transform="translate(502,92)"/>
<path d="M0 0 C0.33 0.66 0.66 1.32 1 2 C-0.89732848 6.11087838 -3.0054207 7.94872955 -7 10 C-5.6062718 5.56541027 -3.39417765 3.12621626 0 0 Z " fill="#F9C8CE" transform="translate(237,236)"/>
<path d="M0 0 C-0.33 0.99 -0.66 1.98 -1 3 C-2.7421875 3.80078125 -2.7421875 3.80078125 -4.875 4.3125 C-5.92300781 4.58513672 -5.92300781 4.58513672 -6.9921875 4.86328125 C-9 5 -9 5 -12 3 C-10.75336669 2.49166409 -9.50250613 1.99368855 -8.25 1.5 C-7.55390625 1.2215625 -6.8578125 0.943125 -6.140625 0.65625 C-4 0 -4 0 0 0 Z " fill="#F9D0D6" transform="translate(326,182)"/>
<path d="M0 0 C1.41805831 0.28482368 2.83440379 0.57818144 4.25 0.875 C5.03890625 1.03742187 5.8278125 1.19984375 6.640625 1.3671875 C8.96831144 1.99150075 10.89031952 2.84838542 13 4 C13 4.66 13 5.32 13 6 C9.88452559 5.32116957 7.14862279 4.25893098 4.25 2.9375 C3.45078125 2.57527344 2.6515625 2.21304688 1.828125 1.83984375 C1.22484375 1.56269531 0.6215625 1.28554688 0 1 C0 0.67 0 0.34 0 0 Z " fill="#ED7A88" transform="translate(303,557)"/>
<path d="M0 0 C0 3.58912412 -0.66436554 4.10857029 -3 6.6875 C-3.556875 7.31011719 -4.11375 7.93273437 -4.6875 8.57421875 C-5.120625 9.04472656 -5.55375 9.51523438 -6 10 C-6.99 9.67 -7.98 9.34 -9 9 C-6.03 6.03 -3.06 3.06 0 0 Z " fill="#F9C6CC" transform="translate(247,226)"/>
<path d="M0 0 C4.92127034 -0.16682272 8.50343896 -0.24828052 13 2 C13 2.33 13 2.66 13 3 C8.17639811 3.19294408 4.50353262 2.75747614 0 1 C0 0.67 0 0.34 0 0 Z " fill="#F18C99" transform="translate(448,76)"/>
<path d="M0 0 C2.97 0.495 2.97 0.495 6 1 C6 1.66 6 2.32 6 3 C6.763125 2.938125 7.52625 2.87625 8.3125 2.8125 C11 3 11 3 12.8125 4.5 C13.204375 4.995 13.59625 5.49 14 6 C8.29290936 5.53411505 4.84060277 4.06242216 0 1 C0 0.67 0 0.34 0 0 Z " fill="#FBCFD5" transform="translate(296,552)"/>
<path d="M0 0 C2.60590285 1.30295142 2.96190955 2.2991275 4 5 C4.1953125 7.796875 4.1953125 7.796875 4.125 10.75 C4.10695313 11.73484375 4.08890625 12.7196875 4.0703125 13.734375 C4.03550781 14.85585938 4.03550781 14.85585938 4 16 C3.67 16 3.34 16 3 16 C2.01 10.72 1.02 5.44 0 0 Z " fill="#EE8491" transform="translate(575,318)"/>
<path d="M0 0 C0.8125 1.6875 0.8125 1.6875 1 4 C-1.1613627 6.51185394 -3.01962439 8.50981219 -6 10 C-5.625 8.0625 -5.625 8.0625 -5 6 C-4.34 5.67 -3.68 5.34 -3 5 C-1.9590934 3.35857037 -0.95495674 1.69287785 0 0 Z " fill="#F18895" transform="translate(142,186)"/>
<path d="M0 0 C1.77174819 0.08723378 3.54247377 0.19541655 5.3125 0.3125 C6.29863281 0.37050781 7.28476562 0.42851563 8.30078125 0.48828125 C11.24384457 1.04622813 12.18182999 1.68540132 14 4 C9.03083364 3.48594831 4.70973649 2.76615118 0 1 C0 0.67 0 0.34 0 0 Z " fill="#FCD9DE" transform="translate(328,564)"/>
<path d="M0 0 C-3.40219265 2.74792483 -7.48464588 6 -12 6 C-12 5.34 -12 4.68 -12 4 C-11.01 4 -10.02 4 -9 4 C-9 3.34 -9 2.68 -9 2 C-5.86501708 0.14223235 -3.62528568 -0.20140476 0 0 Z " fill="#ED7A87" transform="translate(300,191)"/>
<path d="M0 0 C0.66 0.33 1.32 0.66 2 1 C1.278125 1.556875 0.55625 2.11375 -0.1875 2.6875 C-2.97457299 4.97909334 -5.48641528 7.41459857 -8 10 C-7.67 8.35 -7.34 6.7 -7 5 C-6.34 5 -5.68 5 -5 5 C-5 4.34 -5 3.68 -5 3 C-2.625 1.3125 -2.625 1.3125 0 0 Z " fill="#F9C3CA" transform="translate(172,152)"/>
<path d="M0 0 C0.66 0.33 1.32 0.66 2 1 C0.75 3.4375 0.75 3.4375 -1 6 C-3.125 6.625 -3.125 6.625 -5 7 C-5.33 7.99 -5.66 8.98 -6 10 C-6.66 9.67 -7.32 9.34 -8 9 C-6 6 -6 6 -3 5 C-1.30117552 2.50240018 -1.30117552 2.50240018 0 0 Z " fill="#F1909C" transform="translate(528,508)"/>
<path d="M0 0 C0.66 0.33 1.32 0.66 2 1 C1.09972412 2.03531726 0.17906965 3.05294165 -0.75 4.0625 C-1.51570312 4.91521484 -1.51570312 4.91521484 -2.296875 5.78515625 C-4 7 -4 7 -6.203125 6.68359375 C-6.79609375 6.45800781 -7.3890625 6.23242188 -8 6 C-7.236875 5.566875 -6.47375 5.13375 -5.6875 4.6875 C-3.41906232 3.26313215 -1.7800277 1.96739903 0 0 Z " fill="#F08995" transform="translate(204,126)"/>
<path d="M0 0 C1 2 1 2 0.22265625 4.3828125 C-0.16019531 5.28773438 -0.54304687 6.19265625 -0.9375 7.125 C-1.31777344 8.03507813 -1.69804688 8.94515625 -2.08984375 9.8828125 C-2.39019531 10.58148437 -2.69054687 11.28015625 -3 12 C-3.33 12 -3.66 12 -4 12 C-3.5317879 7.22423661 -2.75668002 3.95523655 0 0 Z " fill="#EE8190" transform="translate(715,672)"/>
<path d="M0 0 C0.6875 1.625 0.6875 1.625 1 4 C-0.4375 7.25 -0.4375 7.25 -2 10 C-2.66 10 -3.32 10 -4 10 C-2.99806563 6.20696275 -2.18975773 3.28463659 0 0 Z " fill="#FBD6DB" transform="translate(654,510)"/>
<path d="M0 0 C0.33 0 0.66 0 1 0 C1.36552803 1.41377782 1.71695495 2.83120576 2.0625 4.25 C2.25972656 5.03890625 2.45695312 5.8278125 2.66015625 6.640625 C3.01497267 9.10394822 2.76877544 10.65604132 2 13 C2 12.34 2 11.68 2 11 C1.34 11 0.68 11 0 11 C0 7.37 0 3.74 0 0 Z " fill="#FDDEE2" transform="translate(81,419)"/>
<path d="M0 0 C4.0042343 3.49087093 5.62671065 5.64951939 6 11 C3.02753198 8.45217026 1.58464712 5.54659117 0 2 C0 1.34 0 0.68 0 0 Z " fill="#EE8290" transform="translate(557,274)"/>
<path d="M0 0 C2.7710688 2.34591852 3.52059284 4.14776201 4.1875 7.6875 C4.34605469 8.49574219 4.50460937 9.30398438 4.66796875 10.13671875 C4.77753906 10.75160156 4.88710938 11.36648438 5 12 C4.34 11.67 3.68 11.34 3 11 C3 9.68 3 8.36 3 7 C2.34 7 1.68 7 1 7 C0.67 4.69 0.34 2.38 0 0 Z " fill="#EF94A0" transform="translate(660,247)"/>
<path d="M0 0 C0.33 0.66 0.66 1.32 1 2 C0.00390625 4.3828125 0.00390625 4.3828125 -1.4375 7.125 C-1.91058594 8.03507813 -2.38367188 8.94515625 -2.87109375 9.8828125 C-3.24363281 10.58148437 -3.61617187 11.28015625 -4 12 C-5.03596041 8.78782744 -5.07584301 8.1805786 -3.6875 4.875 C-2 2 -2 2 0 0 Z " fill="#EE8794" transform="translate(650,516)"/>
<path d="M0 0 C2.98170547 1.98780365 4.81831749 3.56237816 6 7 C5.67 7.99 5.34 8.98 5 10 C2.08772731 6.71195019 0.50298788 4.40114397 0 0 Z " fill="#FACCD3" transform="translate(657,240)"/>
<path d="M0 0 C3.11373372 1.49920512 6.12228205 3.08152136 9 5 C9 5.66 9 6.32 9 7 C7.68 6.67 6.36 6.34 5 6 C5 5.34 5 4.68 5 4 C4.360625 3.71125 3.72125 3.4225 3.0625 3.125 C1 2 1 2 0 0 Z " fill="#F0929E" transform="translate(499,210)"/>
<path d="M0 0 C3.95820859 0.56545837 6.6659053 1.80902348 10 4 C9.01 4.495 9.01 4.495 8 5 C1.25806452 2.51612903 1.25806452 2.51612903 0 0 Z " fill="#EE8491" transform="translate(640,701)"/>
<path d="M0 0 C0.8125 1.625 0.8125 1.625 1 4 C-0.46818136 6.24609835 -2.15852858 8.02378677 -4 10 C-4.66 9.67 -5.32 9.34 -6 9 C-5.566875 8.62875 -5.13375 8.2575 -4.6875 7.875 C-2.53847015 5.48718905 -1.35242016 2.8980432 0 0 Z " fill="#FDE5E9" transform="translate(712,682)"/>
<path d="M0 0 C0.66 0.33 1.32 0.66 2 1 C-0.83430453 4.2542015 -2.68607774 5.5206753 -7 6 C-5.01180815 3.01771223 -3.42353587 1.21480305 0 0 Z " fill="#F08E99" transform="translate(228,110)"/>
<path d="M0 0 C2.475 0.495 2.475 0.495 5 1 C5.33 1.99 5.66 2.98 6 4 C6.66 4.33 7.32 4.66 8 5 C7.67 5.66 7.34 6.32 7 7 C5.83040013 6.02433888 4.66438823 5.044375 3.5 4.0625 C2.8503125 3.51722656 2.200625 2.97195313 1.53125 2.41015625 C1.0259375 1.94480469 0.520625 1.47945312 0 1 C0 0.67 0 0.34 0 0 Z " fill="#FBD1D7" transform="translate(242,514)"/>
</svg>
