<svg xmlns="http://www.w3.org/2000/svg" viewBox="0 0 32 32" width="32" height="32">
<path d="M 7,0 L 5,2 L 5,3 L 4,4 L 4,6 L 3,7 L 3,12 L 4,13 L 4,15 L 5,16 L 5,17 L 4,18 L 4,19 L 3,20 L 3,21 L 1,23 L 1,24 L 0,25 L 0,26 L 1,27 L 1,28 L 0,29 L 0,31 L 31,31 L 31,29 L 30,28 L 30,27 L 31,26 L 31,25 L 30,24 L 30,23 L 29,22 L 29,21 L 28,20 L 28,19 L 27,18 L 27,17 L 26,16 L 26,15 L 25,14 L 25,13 L 24,12 L 24,11 L 23,10 L 23,9 L 22,8 L 22,7 L 21,6 L 21,5 L 20,4 L 19,4 L 18,3 L 17,3 L 16,2 L 17,1 L 18,1 L 17,1 L 16,0 L 15,1 L 14,0 L 9,0 L 8,1 Z" fill="black"/>
</svg>