<?xml version="1.0" encoding="UTF-8"?>
<svg version="1.1" xmlns="http://www.w3.org/2000/svg" width="256" height="256">
<path d="M0 0 C22.01215359 19.02892751 37.22754594 43.332433 40.96875 72.56640625 C41.25934776 77.32010132 41.30304825 82.05473447 41.28125 86.81640625 C41.27561035 88.10184326 41.2699707 89.38728027 41.26416016 90.71166992 C41.0362602 108.50704626 36.28270841 123.29927718 28.85668945 139.33154297 C28.31599319 140.49982635 27.77529694 141.66810974 27.21821594 142.87179565 C26.80589218 143.76101715 26.39356842 144.65023865 25.96875 145.56640625 C26.53615906 146.12049164 27.10356812 146.67457703 27.68817139 147.24545288 C33.05885172 152.49541282 38.41455514 157.76001232 43.75446701 163.04125023 C46.49964818 165.75525125 49.25006709 168.46344289 52.01367188 171.15869141 C54.68549631 173.76484562 57.34196195 176.38581228 59.98886871 179.01726151 C60.99620982 180.01360121 62.00877754 181.00468777 63.02681732 181.99009323 C70.60175026 189.33192931 75.84759475 195.88263566 76.40625 206.69140625 C76.05597788 214.1522025 73.27145667 221.21158453 67.96875 226.56640625 C60.54024879 231.70921478 53.92575848 233.34643645 44.96875 232.56640625 C35.8678296 230.45975044 30.23753642 224.63003137 23.9296875 218.11328125 C22.91397485 217.08635329 21.89691093 216.06076025 20.87857056 215.03643799 C18.22488393 212.36003672 15.58972957 209.66611204 12.95825195 206.96789551 C10.26064498 204.20848792 7.54559007 201.46636241 4.83203125 198.72265625 C-0.47278255 193.35383714 -5.75810393 187.96635165 -11.03125 182.56640625 C-11.58834152 182.82333252 -12.14543304 183.08025879 -12.71940613 183.3449707 C-15.29354884 184.52838815 -17.87133081 185.70367086 -20.44921875 186.87890625 C-21.32509644 187.28302734 -22.20097412 187.68714844 -23.10339355 188.10351562 C-46.21132184 198.60372409 -74.46540402 202.04666385 -99.03125 194.56640625 C-99.68915527 194.37304688 -100.34706055 194.1796875 -101.02490234 193.98046875 C-116.7972257 189.25424191 -130.87019307 181.74616752 -143.03125 170.56640625 C-143.8061377 169.86306152 -143.8061377 169.86306152 -144.59667969 169.14550781 C-161.46122564 153.68217043 -172.99033056 133.95870101 -178.03125 111.56640625 C-178.25554687 110.5815625 -178.47984375 109.59671875 -178.7109375 108.58203125 C-184.14043555 79.8726306 -177.84076993 49.93553951 -162.03125 25.56640625 C-159.85780658 22.4020596 -157.54594 19.46460017 -155.03125 16.56640625 C-154.36738281 15.77105469 -153.70351562 14.97570313 -153.01953125 14.15625 C-114.83489748 -30.19825278 -45.84252292 -36.20803665 0 0 Z M-120.03125 30.56640625 C-120.75699219 31.18 -121.48273438 31.79359375 -122.23046875 32.42578125 C-135.96470692 45.05372518 -144.2785851 64.25962622 -145.28125 82.68359375 C-146.02239067 102.88515886 -139.81674728 122.44223464 -126.03125 137.56640625 C-125.30421875 138.38496094 -124.5771875 139.20351562 -123.828125 140.046875 C-109.75421497 155.05147908 -91.02774974 162.33129581 -70.78125 163.53125 C-49.25451337 163.73306316 -30.10120719 155.08996055 -14.6953125 140.328125 C-0.37905979 125.40111066 6.75432707 106.08668097 6.96875 85.56640625 C5.81495734 65.28956864 -1.70365708 47.94136311 -16.03125 33.56640625 C-16.78019531 32.79425781 -17.52914062 32.02210937 -18.30078125 31.2265625 C-32.51950442 17.43227882 -51.38493825 11.27638543 -70.93701172 11.32202148 C-89.53578649 11.60789777 -106.02231869 18.55275002 -120.03125 30.56640625 Z " fill="#FA0101" transform="translate(180.03125,23.43359375)"/>
<path d="M0 0 C0.99 0.495 0.99 0.495 2 1 C2 4.3 2 7.6 2 11 C2.66 11 3.32 11 4 11 C4 13.64 4 16.28 4 19 C4.66 19 5.32 19 6 19 C6 21.64 6 24.28 6 27 C3.6087996 23.41319941 2.82906416 19.88427804 1.875 15.75 C1.69324219 15.01136719 1.51148438 14.27273437 1.32421875 13.51171875 C0.24018288 8.89030269 -0.1882817 4.7446988 0 0 Z " fill="#D41014" transform="translate(1,122)"/>
<path d="M0 0 C0 4.89252666 -1.92830782 8.7334547 -5.0625 12.4375 C-7 14 -7 14 -9 14 C-9 14.99 -9 15.98 -9 17 C-9.66 17 -10.32 17 -11 17 C-9.62666848 13.17527171 -7.85872294 10.11571157 -5.5 6.8125 C-4.8915625 5.95269531 -4.283125 5.09289063 -3.65625 4.20703125 C-2 2 -2 2 0 0 Z " fill="#DA0D0E" transform="translate(26,39)"/>
<path d="M0 0 C0.66 0 1.32 0 2 0 C2.67154933 1.28913487 3.33708859 2.58140204 4 3.875 C4.37125 4.59429687 4.7425 5.31359375 5.125 6.0546875 C6 8 6 8 6 10 C6.66 10 7.32 10 8 10 C8.28875 10.804375 8.5775 11.60875 8.875 12.4375 C9.73262568 15.1326468 9.73262568 15.1326468 12 16 C11.67 17.32 11.34 18.64 11 20 C9.5332579 17.79686886 8.07662536 15.58806075 6.625 13.375 C6.2125 12.75753906 5.8 12.14007813 5.375 11.50390625 C2.9393186 7.77181379 1.21427374 4.33669193 0 0 Z " fill="#D81014" transform="translate(11,158)"/>
<path d="M0 0 C1.0625 1.8125 1.0625 1.8125 2 4 C1.67 4.99 1.34 5.98 1 7 C0.34 7 -0.32 7 -1 7 C-1.10957031 7.556875 -1.21914062 8.11375 -1.33203125 8.6875 C-2.44275248 14.03341031 -3.97225526 18.93063816 -6 24 C-7.06840878 20.77113226 -6.92989222 18.93660536 -5.8203125 15.7421875 C-5.55089844 14.95199219 -5.28148437 14.16179687 -5.00390625 13.34765625 C-4.71386719 12.53167969 -4.42382812 11.71570313 -4.125 10.875 C-3.70154297 9.63943359 -3.70154297 9.63943359 -3.26953125 8.37890625 C-1.21552579 2.43105159 -1.21552579 2.43105159 0 0 Z " fill="#CF1210" transform="translate(10,63)"/>
<path d="M0 0 C0.33 0.66 0.66 1.32 1 2 C0.67 2.66 0.34 3.32 0 4 C-1.32 4 -2.64 4 -4 4 C-4.4021875 5.1446875 -4.4021875 5.1446875 -4.8125 6.3125 C-5.94424112 8.87380884 -6.91223401 10.19692938 -9 12 C-9.99 11.01 -10.98 10.02 -12 9 C-8.18504423 5.60282037 -4.51045941 2.46025059 0 0 Z " fill="#E20A0C" transform="translate(51,17)"/>
<path d="M0 0 C0.66 0.33 1.32 0.66 2 1 C1.67 1.66 1.34 2.32 1 3 C0.01 3 -0.98 3 -2 3 C-2 3.66 -2 4.32 -2 5 C-5.25 6.625 -5.25 6.625 -9 8 C-11.234375 7.0859375 -11.234375 7.0859375 -13 6 C-10.87959258 4.96966118 -8.75352092 3.95097146 -6.625 2.9375 C-5.44164062 2.36902344 -4.25828125 1.80054688 -3.0390625 1.21484375 C-2.03617188 0.81394531 -1.03328125 0.41304687 0 0 Z " fill="#DC0D0F" transform="translate(148,176)"/>
<path d="M0 0 C-0.185625 0.78375 -0.37125 1.5675 -0.5625 2.375 C-1.25962266 4.97089775 -1.25962266 4.97089775 0 7 C-0.99 7.33 -1.98 7.66 -3 8 C-3.66 8.66 -4.32 9.32 -5 10 C-5.66 9.67 -6.32 9.34 -7 9 C-4.83333333 0 -4.83333333 0 0 0 Z " fill="#EF0806" transform="translate(207,164)"/>
<path d="M0 0 C4.66666667 4.66666667 9.33333333 9.33333333 14 14 C11 14 11 14 9.5 12.72265625 C9.005 12.17480469 8.51 11.62695312 8 11.0625 C5.87768805 8.72464075 5.11172349 8.03724116 2 7 C0.8125 3.4375 0.8125 3.4375 0 0 Z " fill="#D11213" transform="translate(48,154)"/>
<path d="M0 0 C1.13199353 0.9080162 2.25532363 1.82683826 3.375 2.75 C4.00148437 3.26046875 4.62796875 3.7709375 5.2734375 4.296875 C7.08312318 6.08199481 8.00117455 7.67949644 9 10 C5.5625 8.75 5.5625 8.75 2 7 C1.1875 4.875 1.1875 4.875 1 3 C0.34 2.67 -0.32 2.34 -1 2 C-0.67 1.34 -0.34 0.68 0 0 Z " fill="#E90807" transform="translate(243,207)"/>
<path d="M0 0 C0.99 0.33 1.98 0.66 3 1 C1.21046815 1.83790789 -0.58169695 2.67019396 -2.375 3.5 C-3.87160156 4.19609375 -3.87160156 4.19609375 -5.3984375 4.90625 C-8 6 -8 6 -10 6 C-9.34 4.35 -8.68 2.7 -8 1 C-7.05125 1.020625 -6.1025 1.04125 -5.125 1.0625 C-2.09333717 1.22551826 -2.09333717 1.22551826 0 0 Z " fill="#E20C0C" transform="translate(157,209)"/>
<path d="M0 0 C0.33 0 0.66 0 1 0 C1.08097324 2.27024968 1.13917704 4.54132075 1.1875 6.8125 C1.22230469 8.07707031 1.25710938 9.34164062 1.29296875 10.64453125 C1 14 1 14 -2 17 C-1.34 11.39 -0.68 5.78 0 0 Z " fill="#D41213" transform="translate(2,87)"/>
<path d="M0 0 C3.44164469 1.52961986 6.09151758 3.62729066 9 6 C9.66 6.33 10.32 6.66 11 7 C10.67 8.32 10.34 9.64 10 11 C8.33035479 9.35718838 6.6643536 7.71067239 5 6.0625 C4.071875 5.14597656 3.14375 4.22945312 2.1875 3.28515625 C0 1 0 1 0 0 Z " fill="#D51110" transform="translate(158,51)"/>
<path d="M0 0 C4.67105792 1.55701931 8.08705685 4.08447373 12 7 C9 8 9 8 6 7 C4.64631404 5.68733482 3.31200404 4.35432675 2 3 C1.34 2.67 0.68 2.34 0 2 C0 1.34 0 0.68 0 0 Z " fill="#CF1517" transform="translate(166,15)"/>
<path d="M0 0 C2.64 1.65 5.28 3.3 8 5 C4 6 4 6 0 6 C0 4.02 0 2.04 0 0 Z " fill="#E10D0F" transform="translate(62,169)"/>
<path d="M0 0 C1.17539996 0.92652701 2.34010577 1.86663387 3.5 2.8125 C4.1496875 3.33457031 4.799375 3.85664062 5.46875 4.39453125 C7 6 7 6 7 9 C5.68 9 4.36 9 3 9 C2.87625 8.2575 2.7525 7.515 2.625 6.75 C2.0421624 4.18551458 1.21335551 2.30833488 0 0 Z " fill="#DA1011" transform="translate(189,33)"/>
<path d="M0 0 C-0.33 1.65 -0.66 3.3 -1 5 C-3.64 4.67 -6.28 4.34 -9 4 C-6.43425105 1.43425105 -3.68548192 0 0 0 Z " fill="#E00E0D" transform="translate(72,7)"/>
<path d="M0 0 C1.10844919 3.32534757 0.84454356 5.62182575 0 9 C-0.66 9 -1.32 9 -2 9 C-2 9.99 -2 10.98 -2 12 C-2.66 12 -3.32 12 -4 12 C-2.66666667 8 -1.33333333 4 0 0 Z " fill="#CF1511" transform="translate(183,132)"/>
<path d="M0 0 C0.33 1.32 0.66 2.64 1 4 C-0.65 5.32 -2.3 6.64 -4 8 C-4.66 7.67 -5.32 7.34 -6 7 C-4.02 4.69 -2.04 2.38 0 0 Z " fill="#DB0E12" transform="translate(171,156)"/>
<path d="M0 0 C4.26086957 6.39130435 4.26086957 6.39130435 3.625 10.3125 C3.41875 10.869375 3.2125 11.42625 3 12 C2.71125 11.21625 2.4225 10.4325 2.125 9.625 C1.15087746 6.90328368 1.15087746 6.90328368 -1 5 C-0.625 2.375 -0.625 2.375 0 0 Z " fill="#D5120B" transform="translate(213,69)"/>
<path d="M0 0 C-2.62198774 2.15377564 -4.64404172 3.40072174 -8 4 C-8 3.01 -8 2.02 -8 1 C-5.29120665 -0.35439668 -2.99066732 -0.06501451 0 0 Z " fill="#DF0D0E" transform="translate(80,41)"/>
<path d="M0 0 C1.98 1.65 3.96 3.3 6 5 C4.125 5.625 4.125 5.625 2 6 C1.34 5.34 0.68 4.68 0 4 C0 2.68 0 1.36 0 0 Z " fill="#EE0604" transform="translate(213,177)"/>
<path d="M0 0 C-1 2 -1 2 -2.6875 2.6875 C-5.62480602 3.08443325 -8.11159734 2.59080963 -11 2 C-11 1.67 -11 1.34 -11 1 C-7.26562152 0.12132271 -3.83225427 -0.08912219 0 0 Z " fill="#DE0D0B" transform="translate(98,1)"/>
</svg>
